M48
;Layer_Color=9474304
;FILE_FORMAT=4:3
METRIC,TZ
;TYPE=PLATED
T1F00S00C0.300
T2F00S00C0.900
T4F00S00C1.067
T5F00S00C1.200
;TYPE=NON_PLATED
T6F00S00C3.200
%
T01
X6350Y6229
X8735Y6223
X8735Y7874
X8735Y9642
X8650Y11770
X8636Y13160
X6350Y13059
X6350Y14371
X6350Y15764
X6350Y17346
X6350Y19016
X10128Y19017
X10128Y17346
X10128Y15836
X10128Y14448
X6350Y11704
X6350Y9582
X6350Y7747
X21747Y11501
X20809Y19246
X18269Y18296
X26285Y17796
X32953Y11684
X35755Y6756
X38735Y6756
X40460Y6756
X42649Y7481
X43184Y8283
X43815Y14559
X44682Y14559
X41021Y14559
X49982Y14559
X47879Y26035
X44207Y26035
X44182Y23368
X41169Y24458
X40194Y24458
X38735Y24458
X37205Y24866
X35369Y24866
X35369Y23368
X58420Y35687
X62992Y35687
X66437Y35205
X66978Y36005
X66978Y36996
X67570Y37771
X75554Y37853
X75819Y46703
X74979Y46711
X69965Y46703
X67695Y46990
X66675Y46990
X66040Y48006
X64270Y48006
X61357Y46711
T02
X70485Y1905
X73025Y1905
X75565Y1905
X75565Y4445
X73025Y4445
X70485Y4445
X67945Y4445
X67945Y1905
X65405Y1905
X65405Y4445
X62865Y4445
X62865Y1905
X60325Y1905
X60325Y4445
X57785Y4445
X57785Y1905
X55245Y1905
X55245Y4445
X52705Y4445
X52705Y1905
X50165Y1905
X50165Y4445
X47625Y4445
X47625Y1905
X45085Y1905
X45085Y4445
X42545Y4445
X42545Y1905
X40005Y1905
X40005Y4445
X37465Y4445
X37465Y1905
X34925Y1905
X34925Y4445
X32385Y4445
X32385Y1905
X29845Y1905
X29845Y4445
X27305Y4445
X27305Y1905
X24765Y1905
X22225Y1905
X22225Y4445
X19685Y4445
X19685Y1905
X24765Y4445
X24785Y7747
X22245Y7747
X19705Y7747
X28194Y7747
X30734Y7747
X36120Y38989
X38660Y38989
X41200Y38989
X64770Y24003
X67310Y24003
X69850Y24003
X70485Y50165
X73025Y50165
X75565Y50165
X75565Y52705
X73025Y52705
X70485Y52705
X67945Y52705
X67945Y50165
X65405Y50165
X65405Y52705
X62865Y52705
X62865Y50165
X60325Y50165
X60325Y52705
X57785Y52705
X57785Y50165
X55245Y50165
X55245Y52705
X52705Y52705
X52705Y50165
X50165Y50165
X50165Y52705
X47625Y52705
X47625Y50165
X45085Y50165
X45085Y52705
X42545Y52705
X42545Y50165
X40005Y50165
X40005Y52705
X37465Y52705
X37465Y50165
X34925Y50165
X34925Y52705
X32385Y52705
X32385Y50165
X32385Y47117
X34925Y47117
X37465Y47117
X40005Y47117
X42545Y47117
X29845Y47117
X27305Y47117
X24765Y47117
X22225Y47117
X19685Y47117
X17145Y47117
X14605Y47117
X19685Y50165
X22225Y50165
X22225Y52705
X19685Y52705
X24765Y52705
X27305Y52705
X29845Y52705
X29845Y50165
X27305Y50165
X24765Y50165
T04
X29845Y30226
X29845Y32766
X32385Y32766
X34925Y32766
X34925Y30226
X37465Y30226
X40005Y30226
X40005Y32766
X42545Y32766
X42545Y30226
X45085Y30226
X45085Y32766
X47625Y32766
X47625Y30226
X58420Y30226
X58420Y32766
X60960Y32766
X60960Y30226
X63500Y30226
X66040Y30226
X66040Y32766
X63500Y32766
X68580Y32766
X68580Y30226
X37465Y32766
X32385Y30226
X71120Y30226
X73660Y30226
X76200Y30226
X76200Y32766
X73660Y32766
X71120Y32766
T05
X3088Y4572
X8088Y4572
T06
X80645Y6350
X14605Y3175
X80645Y48260
X14605Y51435
M30
