G04*
G04 #@! TF.GenerationSoftware,Altium Limited,Altium Designer,22.10.1 (41)*
G04*
G04 Layer_Color=16711935*
%FSLAX43Y43*%
%MOMM*%
G71*
G04*
G04 #@! TF.SameCoordinates,A9E92A4C-3054-4B5A-B43F-CED4EE29FA58*
G04*
G04*
G04 #@! TF.FilePolarity,Negative*
G04*
G01*
G75*
%ADD15C,0.127*%
%ADD16C,0.178*%
%ADD32C,1.900*%
%ADD33P,2.057X8X22.5*%
%ADD34C,1.876*%
%ADD35R,1.876X1.876*%
%ADD36C,2.400*%
%ADD37O,2.700X5.200*%
%ADD38O,2.700X4.700*%
%ADD39O,4.700X2.700*%
%ADD40C,3.600*%
D15*
X41400Y-164500D02*
X41400Y-159420D01*
X-22100Y-104175D02*
X-17020Y-104175D01*
X-22100Y-43850D02*
X-17020Y-43850D01*
X-22100Y16475D02*
X-17020Y16475D01*
X104900Y-164500D02*
X104900Y-159420D01*
X168400Y-164500D02*
X168400Y-159420D01*
X231900Y-164500D02*
X231900Y-159420D01*
X295400Y-164500D02*
X295400Y-159420D01*
X353820Y-104175D02*
X358900Y-104175D01*
X353820Y-43850D02*
X358900Y-43850D01*
X353820Y16475D02*
X358900Y16475D01*
X41400Y71720D02*
X41400Y76800D01*
X104900Y71720D02*
X104900Y76800D01*
X168400Y71720D02*
X168400Y76800D01*
X231900Y71720D02*
X231900Y76800D01*
X295400Y71720D02*
X295400Y76800D01*
D16*
X327582Y-161198D02*
X327497Y-161029D01*
X327243Y-160944D01*
X327074Y-160944D01*
X326820Y-161029D01*
X326650Y-161283D01*
X326566Y-161706D01*
X326566Y-162129D01*
X326650Y-162468D01*
X326820Y-162637D01*
X327074Y-162722D01*
X327158Y-162722D01*
X327412Y-162637D01*
X327582Y-162468D01*
X327666Y-162214D01*
X327666Y-162129D01*
X327582Y-161876D01*
X327412Y-161706D01*
X327158Y-161622D01*
X327074Y-161622D01*
X326820Y-161706D01*
X326650Y-161876D01*
X326566Y-162129D01*
X263955Y-160944D02*
X263108Y-160944D01*
X263023Y-161706D01*
X263108Y-161622D01*
X263362Y-161537D01*
X263616Y-161537D01*
X263870Y-161622D01*
X264039Y-161791D01*
X264124Y-162045D01*
X264124Y-162214D01*
X264039Y-162468D01*
X263870Y-162637D01*
X263616Y-162722D01*
X263362Y-162722D01*
X263108Y-162637D01*
X263023Y-162553D01*
X262939Y-162383D01*
X200311Y-160944D02*
X199464Y-162129D01*
X200734Y-162129D01*
X200311Y-160944D02*
X200311Y-162722D01*
X135964Y-160944D02*
X136896Y-160944D01*
X136388Y-161622D01*
X136642Y-161622D01*
X136811Y-161706D01*
X136896Y-161791D01*
X136980Y-162045D01*
X136980Y-162214D01*
X136896Y-162468D01*
X136726Y-162637D01*
X136472Y-162722D01*
X136218Y-162722D01*
X135964Y-162637D01*
X135880Y-162553D01*
X135795Y-162383D01*
X72650Y-161368D02*
X72650Y-161283D01*
X72735Y-161114D01*
X72820Y-161029D01*
X72989Y-160944D01*
X73328Y-160944D01*
X73497Y-161029D01*
X73582Y-161114D01*
X73666Y-161283D01*
X73666Y-161452D01*
X73582Y-161622D01*
X73412Y-161876D01*
X72566Y-162722D01*
X73751Y-162722D01*
X9176Y-161283D02*
X9345Y-161198D01*
X9599Y-160944D01*
X9599Y-162722D01*
X-20195Y-134732D02*
X-20195Y-136509D01*
X-20195Y-134732D02*
X-19602Y-134732D01*
X-19348Y-134816D01*
X-19179Y-134986D01*
X-19095Y-135155D01*
X-19010Y-135409D01*
X-19010Y-135832D01*
X-19095Y-136086D01*
X-19179Y-136255D01*
X-19348Y-136425D01*
X-19602Y-136509D01*
X-20195Y-136509D01*
X-18925Y-74957D02*
X-19010Y-74788D01*
X-19179Y-74618D01*
X-19348Y-74534D01*
X-19687Y-74534D01*
X-19856Y-74618D01*
X-20026Y-74788D01*
X-20110Y-74957D01*
X-20195Y-75211D01*
X-20195Y-75634D01*
X-20110Y-75888D01*
X-20026Y-76057D01*
X-19856Y-76227D01*
X-19687Y-76311D01*
X-19348Y-76311D01*
X-19179Y-76227D01*
X-19010Y-76057D01*
X-18925Y-75888D01*
X-20195Y-14209D02*
X-20195Y-15986D01*
X-20195Y-14209D02*
X-19433Y-14209D01*
X-19179Y-14293D01*
X-19095Y-14378D01*
X-19010Y-14547D01*
X-19010Y-14716D01*
X-19095Y-14886D01*
X-19179Y-14970D01*
X-19433Y-15055D01*
X-20195Y-15055D02*
X-19433Y-15055D01*
X-19179Y-15140D01*
X-19095Y-15224D01*
X-19010Y-15394D01*
X-19010Y-15648D01*
X-19095Y-15817D01*
X-19179Y-15902D01*
X-19433Y-15986D01*
X-20195Y-15986D01*
X355725Y-134732D02*
X355725Y-136509D01*
X355725Y-134732D02*
X356318Y-134732D01*
X356572Y-134816D01*
X356741Y-134986D01*
X356825Y-135155D01*
X356910Y-135409D01*
X356910Y-135832D01*
X356825Y-136086D01*
X356741Y-136255D01*
X356572Y-136425D01*
X356318Y-136509D01*
X355725Y-136509D01*
X356995Y-74957D02*
X356910Y-74788D01*
X356741Y-74618D01*
X356572Y-74534D01*
X356233Y-74534D01*
X356064Y-74618D01*
X355894Y-74788D01*
X355810Y-74957D01*
X355725Y-75211D01*
X355725Y-75634D01*
X355810Y-75888D01*
X355894Y-76057D01*
X356064Y-76227D01*
X356233Y-76311D01*
X356572Y-76311D01*
X356741Y-76227D01*
X356910Y-76057D01*
X356995Y-75888D01*
X355725Y-14209D02*
X355725Y-15986D01*
X355725Y-14209D02*
X356487Y-14209D01*
X356741Y-14293D01*
X356825Y-14378D01*
X356910Y-14547D01*
X356910Y-14716D01*
X356825Y-14886D01*
X356741Y-14970D01*
X356487Y-15055D01*
X355725Y-15055D02*
X356487Y-15055D01*
X356741Y-15140D01*
X356825Y-15224D01*
X356910Y-15394D01*
X356910Y-15648D01*
X356825Y-15817D01*
X356741Y-15902D01*
X356487Y-15986D01*
X355725Y-15986D01*
X357079Y44466D02*
X356402Y46243D01*
X355725Y44466D01*
X355979Y45058D02*
X356825Y45058D01*
X263955Y75276D02*
X263108Y75276D01*
X263023Y74514D01*
X263108Y74598D01*
X263362Y74683D01*
X263616Y74683D01*
X263870Y74598D01*
X264039Y74429D01*
X264124Y74175D01*
X264124Y74006D01*
X264039Y73752D01*
X263870Y73583D01*
X263616Y73498D01*
X263362Y73498D01*
X263108Y73583D01*
X263023Y73667D01*
X262939Y73837D01*
X200311Y75276D02*
X199464Y74091D01*
X200734Y74091D01*
X200311Y75276D02*
X200311Y73498D01*
X135964Y75276D02*
X136896Y75276D01*
X136388Y74598D01*
X136642Y74598D01*
X136811Y74514D01*
X136896Y74429D01*
X136980Y74175D01*
X136980Y74006D01*
X136896Y73752D01*
X136726Y73583D01*
X136472Y73498D01*
X136218Y73498D01*
X135964Y73583D01*
X135880Y73667D01*
X135795Y73837D01*
X72650Y74852D02*
X72650Y74937D01*
X72735Y75106D01*
X72820Y75191D01*
X72989Y75276D01*
X73328Y75276D01*
X73497Y75191D01*
X73582Y75106D01*
X73666Y74937D01*
X73666Y74768D01*
X73582Y74598D01*
X73412Y74344D01*
X72566Y73498D01*
X73751Y73498D01*
D32*
X75565Y52705D02*
D03*
X75565Y50165D02*
D03*
X73025Y52705D02*
D03*
X73025Y50165D02*
D03*
X70485Y52705D02*
D03*
X70485Y50165D02*
D03*
X67945Y52705D02*
D03*
X67945Y50165D02*
D03*
X65405Y52705D02*
D03*
X65405Y50165D02*
D03*
X62865Y52705D02*
D03*
X62865Y50165D02*
D03*
X60325Y52705D02*
D03*
X60325Y50165D02*
D03*
X57785Y52705D02*
D03*
X57785Y50165D02*
D03*
X55245Y52705D02*
D03*
X55245Y50165D02*
D03*
X52705Y52705D02*
D03*
X52705Y50165D02*
D03*
X50165Y52705D02*
D03*
X50165Y50165D02*
D03*
X47625Y52705D02*
D03*
X47625Y50165D02*
D03*
X45085Y52705D02*
D03*
X45085Y50165D02*
D03*
X42545Y52705D02*
D03*
X42545Y50165D02*
D03*
X40005Y52705D02*
D03*
X40005Y50165D02*
D03*
X37465Y52705D02*
D03*
X37465Y50165D02*
D03*
X34925Y52705D02*
D03*
X34925Y50165D02*
D03*
X32385Y52705D02*
D03*
X32385Y50165D02*
D03*
X29845Y52705D02*
D03*
X29845Y50165D02*
D03*
X27305Y52705D02*
D03*
X27305Y50165D02*
D03*
X22225Y52705D02*
D03*
X22225Y50165D02*
D03*
X19685Y52705D02*
D03*
X24765Y50165D02*
D03*
X24765Y52705D02*
D03*
X64770Y24003D02*
D03*
X67310Y24003D02*
D03*
X36120Y38989D02*
D03*
X38660Y38989D02*
D03*
X42545Y47117D02*
D03*
X40005Y47117D02*
D03*
X34925Y47117D02*
D03*
X29845Y47117D02*
D03*
X19685Y47117D02*
D03*
X32385Y47117D02*
D03*
X22225Y47117D02*
D03*
X37465Y47117D02*
D03*
X17145Y47117D02*
D03*
X24765Y47117D02*
D03*
X27305Y47117D02*
D03*
X75565Y4445D02*
D03*
X75565Y1905D02*
D03*
X73025Y4445D02*
D03*
X73025Y1905D02*
D03*
X70485Y4445D02*
D03*
X70485Y1905D02*
D03*
X67945Y4445D02*
D03*
X67945Y1905D02*
D03*
X65405Y4445D02*
D03*
X65405Y1905D02*
D03*
X62865Y4445D02*
D03*
X62865Y1905D02*
D03*
X60325Y4445D02*
D03*
X60325Y1905D02*
D03*
X57785Y4445D02*
D03*
X57785Y1905D02*
D03*
X55245Y4445D02*
D03*
X55245Y1905D02*
D03*
X52705Y4445D02*
D03*
X52705Y1905D02*
D03*
X50165Y4445D02*
D03*
X50165Y1905D02*
D03*
X47625Y4445D02*
D03*
X47625Y1905D02*
D03*
X45085Y4445D02*
D03*
X45085Y1905D02*
D03*
X42545Y4445D02*
D03*
X42545Y1905D02*
D03*
X40005Y4445D02*
D03*
X40005Y1905D02*
D03*
X37465Y4445D02*
D03*
X37465Y1905D02*
D03*
X34925Y4445D02*
D03*
X34925Y1905D02*
D03*
X32385Y4445D02*
D03*
X32385Y1905D02*
D03*
X29845Y4445D02*
D03*
X29845Y1905D02*
D03*
X27305Y4445D02*
D03*
X27305Y1905D02*
D03*
X22225Y4445D02*
D03*
X22225Y1905D02*
D03*
X19685Y4445D02*
D03*
X24765Y1905D02*
D03*
X24765Y4445D02*
D03*
X28194Y7747D02*
D03*
X19705Y7747D02*
D03*
X22245Y7747D02*
D03*
D33*
X19685Y50165D02*
D03*
X69850Y24003D02*
D03*
X41200Y38989D02*
D03*
X14605Y47117D02*
D03*
X19685Y1905D02*
D03*
X30734Y7747D02*
D03*
X24785Y7747D02*
D03*
D34*
X58420Y32766D02*
D03*
X60960Y30226D02*
D03*
X60960Y32766D02*
D03*
X76200Y32766D02*
D03*
X76200Y30226D02*
D03*
X73660Y30226D02*
D03*
X73660Y32766D02*
D03*
X66040Y30226D02*
D03*
X66040Y32766D02*
D03*
X63500Y30226D02*
D03*
X63500Y32766D02*
D03*
X71120Y30226D02*
D03*
X71120Y32766D02*
D03*
X68580Y30226D02*
D03*
X68580Y32766D02*
D03*
X40005Y32766D02*
D03*
X40005Y30226D02*
D03*
X42545Y32766D02*
D03*
X42545Y30226D02*
D03*
X34925Y32766D02*
D03*
X34925Y30226D02*
D03*
X37465Y32766D02*
D03*
X37465Y30226D02*
D03*
X45085Y32766D02*
D03*
X45085Y30226D02*
D03*
X47625Y30226D02*
D03*
X47625Y32766D02*
D03*
X32385Y32766D02*
D03*
X32385Y30226D02*
D03*
X29845Y32766D02*
D03*
D35*
X58420Y30226D02*
D03*
X29845Y30226D02*
D03*
D36*
X8088Y4572D02*
D03*
X3088Y4572D02*
D03*
D37*
X14128Y16764D02*
D03*
D38*
X8128Y16764D02*
D03*
D39*
X11128Y12064D02*
D03*
D40*
X14605Y3175D02*
D03*
X14605Y51435D02*
D03*
X80645Y6350D02*
D03*
X80645Y48260D02*
D03*
M02*
