G04*
G04 #@! TF.GenerationSoftware,Altium Limited,Altium Designer,22.10.1 (41)*
G04*
G04 Layer_Physical_Order=2*
G04 Layer_Color=16711680*
%FSLAX43Y43*%
%MOMM*%
G71*
G04*
G04 #@! TF.SameCoordinates,A9E92A4C-3054-4B5A-B43F-CED4EE29FA58*
G04*
G04*
G04 #@! TF.FilePolarity,Positive*
G04*
G01*
G75*
%ADD10C,0.250*%
%ADD15C,0.127*%
%ADD16C,0.178*%
%ADD44C,1.700*%
%ADD45P,1.840X8X22.5*%
%ADD46C,1.676*%
%ADD47R,1.676X1.676*%
%ADD48C,2.200*%
%ADD49O,2.500X5.000*%
%ADD50O,2.500X4.500*%
%ADD51O,4.500X2.500*%
%ADD52C,0.700*%
G36*
X75094Y54025D02*
X75208Y54007D01*
X75219Y53803D01*
X75121Y53777D01*
X74859Y53625D01*
X74645Y53411D01*
X74493Y53149D01*
X74415Y52856D01*
X74415Y52554D01*
X74493Y52261D01*
X74645Y51999D01*
X74859Y51785D01*
X75121Y51633D01*
X75414Y51555D01*
X75716Y51555D01*
X76009Y51633D01*
X76271Y51785D01*
X76485Y51999D01*
X76637Y52261D01*
X76715Y52554D01*
X76715Y52856D01*
X76637Y53149D01*
X76485Y53411D01*
X76416Y53481D01*
X76420Y53755D01*
X76445Y53778D01*
X76971Y53652D01*
X77883Y53356D01*
X78767Y52989D01*
X79621Y52554D01*
X80438Y52054D01*
X81213Y51491D01*
X81941Y50868D01*
X82618Y50191D01*
X83241Y49463D01*
X83804Y48688D01*
X84304Y47871D01*
X84739Y47017D01*
X85106Y46133D01*
X85402Y45221D01*
X85625Y44290D01*
X85775Y43344D01*
X85850Y42389D01*
X85850Y41910D01*
X85850Y12700D01*
X85850Y12221D01*
X85775Y11266D01*
X85625Y10320D01*
X85402Y9389D01*
X85106Y8477D01*
X84739Y7593D01*
X84304Y6739D01*
X83804Y5922D01*
X83241Y5147D01*
X82618Y4419D01*
X81941Y3742D01*
X81213Y3119D01*
X80438Y2556D01*
X79621Y2056D01*
X78767Y1621D01*
X77883Y1254D01*
X76971Y958D01*
X76208Y775D01*
X76133Y963D01*
X76240Y1025D01*
X76445Y1230D01*
X76590Y1480D01*
X76664Y1755D01*
X74466Y1755D01*
X74540Y1480D01*
X74685Y1230D01*
X74890Y1025D01*
X75140Y880D01*
X75340Y826D01*
X75329Y622D01*
X75094Y585D01*
X74139Y510D01*
X73660Y510D01*
X510Y510D01*
X510Y21334D01*
X19685Y21334D01*
X19880Y21373D01*
X20045Y21484D01*
X20156Y21649D01*
X20195Y21844D01*
X20195Y38735D01*
X20156Y38930D01*
X20045Y39095D01*
X19880Y39206D01*
X19685Y39245D01*
X510Y39245D01*
X510Y54100D01*
X74139Y54100D01*
X75094Y54025D01*
X75094Y54025D02*
G37*
%LPC*%
G36*
X19835Y53804D02*
X19835Y52855D01*
X20784Y52855D01*
X20710Y53130D01*
X20565Y53380D01*
X20360Y53585D01*
X20110Y53730D01*
X19835Y53804D01*
X19835Y53804D02*
G37*
G36*
X19535Y53804D02*
X19260Y53730D01*
X19010Y53585D01*
X18805Y53380D01*
X18660Y53130D01*
X18586Y52855D01*
X19535Y52855D01*
X19535Y53804D01*
X19535Y53804D02*
G37*
G36*
X73176Y53855D02*
X72874Y53855D01*
X72581Y53777D01*
X72319Y53625D01*
X72105Y53411D01*
X71953Y53149D01*
X71875Y52856D01*
X71875Y52685D01*
X71835Y52648D01*
X71652Y52728D01*
X71635Y52751D01*
X71635Y52856D01*
X71557Y53149D01*
X71405Y53411D01*
X71191Y53625D01*
X70929Y53777D01*
X70636Y53855D01*
X70334Y53855D01*
X70041Y53777D01*
X69779Y53625D01*
X69565Y53411D01*
X69413Y53149D01*
X69335Y52856D01*
X69335Y52554D01*
X69413Y52261D01*
X69419Y52252D01*
X68954Y51786D01*
X68860Y51646D01*
X68827Y51480D01*
X68827Y51160D01*
X68627Y51099D01*
X68389Y51237D01*
X68096Y51315D01*
X67794Y51315D01*
X67501Y51237D01*
X67466Y51216D01*
X67244Y51319D01*
X67234Y51381D01*
X67492Y51639D01*
X67501Y51633D01*
X67794Y51555D01*
X68096Y51555D01*
X68389Y51633D01*
X68651Y51785D01*
X68865Y51999D01*
X69017Y52261D01*
X69095Y52554D01*
X69095Y52856D01*
X69017Y53149D01*
X68865Y53411D01*
X68651Y53625D01*
X68389Y53777D01*
X68096Y53855D01*
X67794Y53855D01*
X67501Y53777D01*
X67239Y53625D01*
X67025Y53411D01*
X66873Y53149D01*
X66795Y52856D01*
X66795Y52554D01*
X66873Y52261D01*
X66879Y52252D01*
X66369Y51741D01*
X66275Y51601D01*
X66242Y51435D01*
X66242Y51219D01*
X66042Y51125D01*
X65849Y51237D01*
X65556Y51315D01*
X65254Y51315D01*
X64961Y51237D01*
X64699Y51085D01*
X64619Y51005D01*
X64396Y50979D01*
X63722Y51653D01*
X63708Y51914D01*
X63718Y51931D01*
X63785Y51999D01*
X63937Y52261D01*
X64015Y52554D01*
X64015Y52856D01*
X63937Y53149D01*
X63785Y53411D01*
X63571Y53625D01*
X63309Y53777D01*
X63016Y53855D01*
X62714Y53855D01*
X62421Y53777D01*
X62159Y53625D01*
X61945Y53411D01*
X61793Y53149D01*
X61715Y52856D01*
X61715Y52554D01*
X61793Y52261D01*
X61895Y52085D01*
X61789Y51885D01*
X61401Y51885D01*
X61295Y52085D01*
X61397Y52261D01*
X61475Y52554D01*
X61475Y52856D01*
X61397Y53149D01*
X61245Y53411D01*
X61031Y53625D01*
X60769Y53777D01*
X60476Y53855D01*
X60174Y53855D01*
X59881Y53777D01*
X59619Y53625D01*
X59405Y53411D01*
X59253Y53149D01*
X59175Y52856D01*
X59175Y52554D01*
X59253Y52261D01*
X59265Y52241D01*
X59160Y52023D01*
X59090Y52012D01*
X58851Y52252D01*
X58857Y52261D01*
X58935Y52554D01*
X58935Y52856D01*
X58857Y53149D01*
X58705Y53411D01*
X58491Y53625D01*
X58229Y53777D01*
X57936Y53855D01*
X57634Y53855D01*
X57341Y53777D01*
X57079Y53625D01*
X56865Y53411D01*
X56713Y53149D01*
X56635Y52856D01*
X56635Y52554D01*
X56713Y52261D01*
X56865Y51999D01*
X57079Y51785D01*
X57341Y51633D01*
X57634Y51555D01*
X57936Y51555D01*
X58229Y51633D01*
X58238Y51639D01*
X58732Y51145D01*
X58872Y51052D01*
X59038Y51019D01*
X59293Y51019D01*
X59374Y50819D01*
X59253Y50609D01*
X59175Y50316D01*
X59175Y50014D01*
X59253Y49721D01*
X59405Y49459D01*
X59619Y49245D01*
X59881Y49093D01*
X60174Y49015D01*
X60476Y49015D01*
X60769Y49093D01*
X61031Y49245D01*
X61245Y49459D01*
X61397Y49721D01*
X61475Y50014D01*
X61475Y50316D01*
X61397Y50609D01*
X61276Y50819D01*
X61357Y51019D01*
X61833Y51019D01*
X61914Y50819D01*
X61793Y50609D01*
X61715Y50316D01*
X61715Y50014D01*
X61793Y49721D01*
X61945Y49459D01*
X62159Y49245D01*
X62421Y49093D01*
X62714Y49015D01*
X63016Y49015D01*
X63309Y49093D01*
X63457Y49179D01*
X63657Y49063D01*
X63657Y48635D01*
X63690Y48469D01*
X63742Y48391D01*
X63664Y48257D01*
X63620Y48092D01*
X63620Y47920D01*
X63664Y47755D01*
X63750Y47607D01*
X63871Y47486D01*
X64019Y47400D01*
X64184Y47356D01*
X64356Y47356D01*
X64521Y47400D01*
X64669Y47486D01*
X64790Y47607D01*
X64876Y47755D01*
X64920Y47920D01*
X64920Y48092D01*
X64876Y48257D01*
X64790Y48405D01*
X64693Y48502D01*
X64669Y48622D01*
X64575Y48762D01*
X64523Y48814D01*
X64523Y49170D01*
X64723Y49231D01*
X64961Y49093D01*
X65254Y49015D01*
X65556Y49015D01*
X65849Y49093D01*
X66042Y49205D01*
X66242Y49111D01*
X66242Y48820D01*
X66077Y48656D01*
X65954Y48656D01*
X65789Y48612D01*
X65641Y48526D01*
X65520Y48405D01*
X65434Y48257D01*
X65390Y48092D01*
X65390Y47920D01*
X65434Y47755D01*
X65520Y47607D01*
X65641Y47486D01*
X65789Y47400D01*
X65911Y47368D01*
X65971Y47320D01*
X66047Y47156D01*
X66025Y47076D01*
X66025Y46904D01*
X66069Y46739D01*
X66155Y46591D01*
X66276Y46470D01*
X66424Y46384D01*
X66589Y46340D01*
X66761Y46340D01*
X66926Y46384D01*
X67074Y46470D01*
X67185Y46581D01*
X67296Y46470D01*
X67444Y46384D01*
X67609Y46340D01*
X67781Y46340D01*
X67946Y46384D01*
X68094Y46470D01*
X68215Y46591D01*
X68301Y46739D01*
X68345Y46904D01*
X68345Y47027D01*
X69824Y48507D01*
X70992Y48507D01*
X71158Y48540D01*
X71299Y48634D01*
X72016Y49351D01*
X72239Y49325D01*
X72239Y49325D01*
X72319Y49245D01*
X72581Y49093D01*
X72874Y49015D01*
X73176Y49015D01*
X73469Y49093D01*
X73731Y49245D01*
X73945Y49459D01*
X74097Y49721D01*
X74175Y50014D01*
X74175Y50316D01*
X74097Y50609D01*
X73945Y50871D01*
X73731Y51085D01*
X73469Y51237D01*
X73176Y51315D01*
X72874Y51315D01*
X72581Y51237D01*
X72343Y51099D01*
X72143Y51160D01*
X72143Y51584D01*
X72335Y51775D01*
X72581Y51633D01*
X72874Y51555D01*
X73176Y51555D01*
X73469Y51633D01*
X73731Y51785D01*
X73945Y51999D01*
X74097Y52261D01*
X74175Y52554D01*
X74175Y52856D01*
X74097Y53149D01*
X73945Y53411D01*
X73731Y53625D01*
X73469Y53777D01*
X73176Y53855D01*
X73176Y53855D02*
G37*
G36*
X20784Y52555D02*
X19835Y52555D01*
X19835Y51606D01*
X20110Y51680D01*
X20360Y51825D01*
X20565Y52030D01*
X20710Y52280D01*
X20784Y52555D01*
X20784Y52555D02*
G37*
G36*
X19535Y52555D02*
X18586Y52555D01*
X18660Y52280D01*
X18805Y52030D01*
X19010Y51825D01*
X19260Y51680D01*
X19535Y51606D01*
X19535Y52555D01*
X19535Y52555D02*
G37*
G36*
X65556Y53855D02*
X65254Y53855D01*
X64961Y53777D01*
X64699Y53625D01*
X64485Y53411D01*
X64333Y53149D01*
X64255Y52856D01*
X64255Y52554D01*
X64333Y52261D01*
X64485Y51999D01*
X64699Y51785D01*
X64961Y51633D01*
X65254Y51555D01*
X65556Y51555D01*
X65849Y51633D01*
X66111Y51785D01*
X66325Y51999D01*
X66477Y52261D01*
X66555Y52554D01*
X66555Y52856D01*
X66477Y53149D01*
X66325Y53411D01*
X66111Y53625D01*
X65849Y53777D01*
X65556Y53855D01*
X65556Y53855D02*
G37*
G36*
X55396Y53855D02*
X55094Y53855D01*
X54801Y53777D01*
X54539Y53625D01*
X54325Y53411D01*
X54173Y53149D01*
X54095Y52856D01*
X54095Y52554D01*
X54173Y52261D01*
X54325Y51999D01*
X54539Y51785D01*
X54801Y51633D01*
X55094Y51555D01*
X55396Y51555D01*
X55689Y51633D01*
X55951Y51785D01*
X56165Y51999D01*
X56317Y52261D01*
X56395Y52554D01*
X56395Y52856D01*
X56317Y53149D01*
X56165Y53411D01*
X55951Y53625D01*
X55689Y53777D01*
X55396Y53855D01*
X55396Y53855D02*
G37*
G36*
X52856Y53855D02*
X52554Y53855D01*
X52261Y53777D01*
X51999Y53625D01*
X51785Y53411D01*
X51633Y53149D01*
X51555Y52856D01*
X51555Y52554D01*
X51633Y52261D01*
X51785Y51999D01*
X51999Y51785D01*
X52261Y51633D01*
X52554Y51555D01*
X52856Y51555D01*
X53149Y51633D01*
X53411Y51785D01*
X53625Y51999D01*
X53777Y52261D01*
X53855Y52554D01*
X53855Y52856D01*
X53777Y53149D01*
X53625Y53411D01*
X53411Y53625D01*
X53149Y53777D01*
X52856Y53855D01*
X52856Y53855D02*
G37*
G36*
X50316Y53855D02*
X50014Y53855D01*
X49721Y53777D01*
X49459Y53625D01*
X49245Y53411D01*
X49093Y53149D01*
X49015Y52856D01*
X49015Y52554D01*
X49093Y52261D01*
X49245Y51999D01*
X49459Y51785D01*
X49721Y51633D01*
X50014Y51555D01*
X50316Y51555D01*
X50609Y51633D01*
X50871Y51785D01*
X51085Y51999D01*
X51237Y52261D01*
X51315Y52554D01*
X51315Y52856D01*
X51237Y53149D01*
X51085Y53411D01*
X50871Y53625D01*
X50609Y53777D01*
X50316Y53855D01*
X50316Y53855D02*
G37*
G36*
X47776Y53855D02*
X47474Y53855D01*
X47181Y53777D01*
X46919Y53625D01*
X46705Y53411D01*
X46553Y53149D01*
X46475Y52856D01*
X46475Y52554D01*
X46553Y52261D01*
X46705Y51999D01*
X46919Y51785D01*
X47181Y51633D01*
X47474Y51555D01*
X47776Y51555D01*
X48069Y51633D01*
X48331Y51785D01*
X48545Y51999D01*
X48697Y52261D01*
X48775Y52554D01*
X48775Y52856D01*
X48697Y53149D01*
X48545Y53411D01*
X48331Y53625D01*
X48069Y53777D01*
X47776Y53855D01*
X47776Y53855D02*
G37*
G36*
X45236Y53855D02*
X44934Y53855D01*
X44641Y53777D01*
X44379Y53625D01*
X44165Y53411D01*
X44013Y53149D01*
X43935Y52856D01*
X43935Y52554D01*
X44013Y52261D01*
X44165Y51999D01*
X44379Y51785D01*
X44641Y51633D01*
X44934Y51555D01*
X45236Y51555D01*
X45529Y51633D01*
X45791Y51785D01*
X46005Y51999D01*
X46157Y52261D01*
X46235Y52554D01*
X46235Y52856D01*
X46157Y53149D01*
X46005Y53411D01*
X45791Y53625D01*
X45529Y53777D01*
X45236Y53855D01*
X45236Y53855D02*
G37*
G36*
X42696Y53855D02*
X42394Y53855D01*
X42101Y53777D01*
X41839Y53625D01*
X41625Y53411D01*
X41473Y53149D01*
X41395Y52856D01*
X41395Y52554D01*
X41473Y52261D01*
X41625Y51999D01*
X41839Y51785D01*
X42101Y51633D01*
X42394Y51555D01*
X42696Y51555D01*
X42989Y51633D01*
X43251Y51785D01*
X43465Y51999D01*
X43617Y52261D01*
X43695Y52554D01*
X43695Y52856D01*
X43617Y53149D01*
X43465Y53411D01*
X43251Y53625D01*
X42989Y53777D01*
X42696Y53855D01*
X42696Y53855D02*
G37*
G36*
X40156Y53855D02*
X39854Y53855D01*
X39561Y53777D01*
X39299Y53625D01*
X39085Y53411D01*
X38933Y53149D01*
X38855Y52856D01*
X38855Y52554D01*
X38933Y52261D01*
X39085Y51999D01*
X39299Y51785D01*
X39561Y51633D01*
X39854Y51555D01*
X40156Y51555D01*
X40449Y51633D01*
X40711Y51785D01*
X40925Y51999D01*
X41077Y52261D01*
X41155Y52554D01*
X41155Y52856D01*
X41077Y53149D01*
X40925Y53411D01*
X40711Y53625D01*
X40449Y53777D01*
X40156Y53855D01*
X40156Y53855D02*
G37*
G36*
X37616Y53855D02*
X37314Y53855D01*
X37021Y53777D01*
X36759Y53625D01*
X36545Y53411D01*
X36393Y53149D01*
X36315Y52856D01*
X36315Y52554D01*
X36393Y52261D01*
X36545Y51999D01*
X36759Y51785D01*
X37021Y51633D01*
X37314Y51555D01*
X37616Y51555D01*
X37909Y51633D01*
X38171Y51785D01*
X38385Y51999D01*
X38537Y52261D01*
X38615Y52554D01*
X38615Y52856D01*
X38537Y53149D01*
X38385Y53411D01*
X38171Y53625D01*
X37909Y53777D01*
X37616Y53855D01*
X37616Y53855D02*
G37*
G36*
X35076Y53855D02*
X34774Y53855D01*
X34481Y53777D01*
X34219Y53625D01*
X34005Y53411D01*
X33853Y53149D01*
X33775Y52856D01*
X33775Y52554D01*
X33853Y52261D01*
X34005Y51999D01*
X34219Y51785D01*
X34481Y51633D01*
X34774Y51555D01*
X35076Y51555D01*
X35369Y51633D01*
X35631Y51785D01*
X35845Y51999D01*
X35997Y52261D01*
X36075Y52554D01*
X36075Y52856D01*
X35997Y53149D01*
X35845Y53411D01*
X35631Y53625D01*
X35369Y53777D01*
X35076Y53855D01*
X35076Y53855D02*
G37*
G36*
X32536Y53855D02*
X32234Y53855D01*
X31941Y53777D01*
X31679Y53625D01*
X31465Y53411D01*
X31313Y53149D01*
X31235Y52856D01*
X31235Y52554D01*
X31313Y52261D01*
X31465Y51999D01*
X31679Y51785D01*
X31941Y51633D01*
X32234Y51555D01*
X32536Y51555D01*
X32829Y51633D01*
X33091Y51785D01*
X33305Y51999D01*
X33457Y52261D01*
X33535Y52554D01*
X33535Y52856D01*
X33457Y53149D01*
X33305Y53411D01*
X33091Y53625D01*
X32829Y53777D01*
X32536Y53855D01*
X32536Y53855D02*
G37*
G36*
X29996Y53855D02*
X29694Y53855D01*
X29401Y53777D01*
X29139Y53625D01*
X28925Y53411D01*
X28773Y53149D01*
X28695Y52856D01*
X28695Y52554D01*
X28773Y52261D01*
X28925Y51999D01*
X29139Y51785D01*
X29401Y51633D01*
X29694Y51555D01*
X29996Y51555D01*
X30289Y51633D01*
X30551Y51785D01*
X30765Y51999D01*
X30917Y52261D01*
X30995Y52554D01*
X30995Y52856D01*
X30917Y53149D01*
X30765Y53411D01*
X30551Y53625D01*
X30289Y53777D01*
X29996Y53855D01*
X29996Y53855D02*
G37*
G36*
X27456Y53855D02*
X27154Y53855D01*
X26861Y53777D01*
X26599Y53625D01*
X26385Y53411D01*
X26233Y53149D01*
X26155Y52856D01*
X26155Y52554D01*
X26233Y52261D01*
X26385Y51999D01*
X26599Y51785D01*
X26861Y51633D01*
X27154Y51555D01*
X27456Y51555D01*
X27749Y51633D01*
X28011Y51785D01*
X28225Y51999D01*
X28377Y52261D01*
X28455Y52554D01*
X28455Y52856D01*
X28377Y53149D01*
X28225Y53411D01*
X28011Y53625D01*
X27749Y53777D01*
X27456Y53855D01*
X27456Y53855D02*
G37*
G36*
X24916Y53855D02*
X24614Y53855D01*
X24321Y53777D01*
X24059Y53625D01*
X23845Y53411D01*
X23693Y53149D01*
X23615Y52856D01*
X23615Y52554D01*
X23693Y52261D01*
X23845Y51999D01*
X24059Y51785D01*
X24321Y51633D01*
X24614Y51555D01*
X24916Y51555D01*
X25209Y51633D01*
X25471Y51785D01*
X25685Y51999D01*
X25837Y52261D01*
X25915Y52554D01*
X25915Y52856D01*
X25837Y53149D01*
X25685Y53411D01*
X25471Y53625D01*
X25209Y53777D01*
X24916Y53855D01*
X24916Y53855D02*
G37*
G36*
X22376Y53855D02*
X22074Y53855D01*
X21781Y53777D01*
X21519Y53625D01*
X21305Y53411D01*
X21153Y53149D01*
X21075Y52856D01*
X21075Y52554D01*
X21153Y52261D01*
X21305Y51999D01*
X21519Y51785D01*
X21781Y51633D01*
X22074Y51555D01*
X22376Y51555D01*
X22669Y51633D01*
X22931Y51785D01*
X23145Y51999D01*
X23297Y52261D01*
X23375Y52554D01*
X23375Y52856D01*
X23297Y53149D01*
X23145Y53411D01*
X22931Y53625D01*
X22669Y53777D01*
X22376Y53855D01*
X22376Y53855D02*
G37*
G36*
X20235Y51265D02*
X19835Y51265D01*
X19835Y50315D01*
X20785Y50315D01*
X20785Y50715D01*
X20235Y51265D01*
X20235Y51265D02*
G37*
G36*
X19535Y51265D02*
X19135Y51265D01*
X18585Y50715D01*
X18585Y50315D01*
X19535Y50315D01*
X19535Y51265D01*
X19535Y51265D02*
G37*
G36*
X14792Y53335D02*
X14418Y53335D01*
X14051Y53262D01*
X13705Y53119D01*
X13394Y52911D01*
X13129Y52646D01*
X12921Y52335D01*
X12778Y51989D01*
X12705Y51622D01*
X12705Y51248D01*
X12778Y50881D01*
X12921Y50535D01*
X13129Y50224D01*
X13394Y49959D01*
X13705Y49751D01*
X14051Y49608D01*
X14418Y49535D01*
X14792Y49535D01*
X15159Y49608D01*
X15505Y49751D01*
X15816Y49959D01*
X16081Y50224D01*
X16289Y50535D01*
X16432Y50881D01*
X16505Y51248D01*
X16505Y51622D01*
X16432Y51989D01*
X16289Y52335D01*
X16081Y52646D01*
X15816Y52911D01*
X15505Y53119D01*
X15159Y53262D01*
X14792Y53335D01*
X14792Y53335D02*
G37*
G36*
X57936Y51315D02*
X57634Y51315D01*
X57341Y51237D01*
X57079Y51085D01*
X56865Y50871D01*
X56713Y50609D01*
X56635Y50316D01*
X56635Y50014D01*
X56713Y49721D01*
X56865Y49459D01*
X56979Y49345D01*
X56896Y49145D01*
X56134Y49145D01*
X56051Y49345D01*
X56165Y49459D01*
X56317Y49721D01*
X56395Y50014D01*
X56395Y50316D01*
X56317Y50609D01*
X56165Y50871D01*
X55951Y51085D01*
X55689Y51237D01*
X55396Y51315D01*
X55094Y51315D01*
X54801Y51237D01*
X54539Y51085D01*
X54325Y50871D01*
X54173Y50609D01*
X54095Y50316D01*
X54095Y50014D01*
X54173Y49721D01*
X54325Y49459D01*
X54439Y49345D01*
X54356Y49145D01*
X53594Y49145D01*
X53511Y49345D01*
X53625Y49459D01*
X53777Y49721D01*
X53855Y50014D01*
X53855Y50316D01*
X53777Y50609D01*
X53625Y50871D01*
X53411Y51085D01*
X53149Y51237D01*
X52856Y51315D01*
X52554Y51315D01*
X52261Y51237D01*
X51999Y51085D01*
X51785Y50871D01*
X51633Y50609D01*
X51555Y50316D01*
X51555Y50014D01*
X51633Y49721D01*
X51785Y49459D01*
X51899Y49345D01*
X51816Y49145D01*
X51054Y49145D01*
X50971Y49345D01*
X51085Y49459D01*
X51237Y49721D01*
X51315Y50014D01*
X51315Y50316D01*
X51237Y50609D01*
X51085Y50871D01*
X50871Y51085D01*
X50609Y51237D01*
X50316Y51315D01*
X50014Y51315D01*
X49721Y51237D01*
X49459Y51085D01*
X49245Y50871D01*
X49093Y50609D01*
X49015Y50316D01*
X49015Y50014D01*
X49093Y49721D01*
X49245Y49459D01*
X49359Y49345D01*
X49276Y49145D01*
X48514Y49145D01*
X48431Y49345D01*
X48545Y49459D01*
X48697Y49721D01*
X48775Y50014D01*
X48775Y50316D01*
X48697Y50609D01*
X48545Y50871D01*
X48331Y51085D01*
X48069Y51237D01*
X47776Y51315D01*
X47474Y51315D01*
X47181Y51237D01*
X46919Y51085D01*
X46705Y50871D01*
X46553Y50609D01*
X46475Y50316D01*
X46475Y50014D01*
X46553Y49721D01*
X46705Y49459D01*
X46819Y49345D01*
X46736Y49145D01*
X45974Y49145D01*
X45891Y49345D01*
X46005Y49459D01*
X46157Y49721D01*
X46235Y50014D01*
X46235Y50316D01*
X46157Y50609D01*
X46005Y50871D01*
X45791Y51085D01*
X45529Y51237D01*
X45236Y51315D01*
X44934Y51315D01*
X44641Y51237D01*
X44379Y51085D01*
X44165Y50871D01*
X44013Y50609D01*
X43935Y50316D01*
X43935Y50014D01*
X44013Y49721D01*
X44165Y49459D01*
X44279Y49345D01*
X44196Y49145D01*
X44196Y49145D01*
X44001Y49106D01*
X43836Y48995D01*
X43725Y48830D01*
X43686Y48635D01*
X43686Y47840D01*
X43486Y47787D01*
X43465Y47823D01*
X43251Y48037D01*
X42989Y48189D01*
X42696Y48267D01*
X42394Y48267D01*
X42101Y48189D01*
X41839Y48037D01*
X41625Y47823D01*
X41473Y47561D01*
X41395Y47268D01*
X41395Y46966D01*
X41473Y46673D01*
X41625Y46411D01*
X41839Y46197D01*
X42101Y46045D01*
X42394Y45967D01*
X42696Y45967D01*
X42989Y46045D01*
X43251Y46197D01*
X43465Y46411D01*
X43486Y46447D01*
X43686Y46394D01*
X43686Y45114D01*
X43725Y44919D01*
X43836Y44754D01*
X44001Y44643D01*
X44196Y44604D01*
X58674Y44604D01*
X58869Y44643D01*
X59034Y44754D01*
X59145Y44919D01*
X59184Y45114D01*
X59184Y48635D01*
X59145Y48830D01*
X59034Y48995D01*
X58869Y49106D01*
X58674Y49145D01*
X58674Y49145D01*
X58591Y49345D01*
X58705Y49459D01*
X58857Y49721D01*
X58935Y50014D01*
X58935Y50316D01*
X58857Y50609D01*
X58705Y50871D01*
X58491Y51085D01*
X58229Y51237D01*
X57936Y51315D01*
X57936Y51315D02*
G37*
G36*
X20785Y50015D02*
X19835Y50015D01*
X19835Y49065D01*
X20235Y49065D01*
X20785Y49615D01*
X20785Y50015D01*
X20785Y50015D02*
G37*
G36*
X19535Y50015D02*
X18585Y50015D01*
X18585Y49615D01*
X19135Y49065D01*
X19535Y49065D01*
X19535Y50015D01*
X19535Y50015D02*
G37*
G36*
X75716Y51315D02*
X75414Y51315D01*
X75121Y51237D01*
X74859Y51085D01*
X74645Y50871D01*
X74493Y50609D01*
X74415Y50316D01*
X74415Y50014D01*
X74493Y49721D01*
X74645Y49459D01*
X74859Y49245D01*
X75121Y49093D01*
X75414Y49015D01*
X75716Y49015D01*
X76009Y49093D01*
X76271Y49245D01*
X76485Y49459D01*
X76637Y49721D01*
X76715Y50014D01*
X76715Y50316D01*
X76637Y50609D01*
X76485Y50871D01*
X76271Y51085D01*
X76009Y51237D01*
X75716Y51315D01*
X75716Y51315D02*
G37*
G36*
X42696Y51315D02*
X42394Y51315D01*
X42101Y51237D01*
X41839Y51085D01*
X41625Y50871D01*
X41473Y50609D01*
X41395Y50316D01*
X41395Y50014D01*
X41473Y49721D01*
X41625Y49459D01*
X41839Y49245D01*
X42101Y49093D01*
X42394Y49015D01*
X42696Y49015D01*
X42989Y49093D01*
X43251Y49245D01*
X43465Y49459D01*
X43617Y49721D01*
X43695Y50014D01*
X43695Y50316D01*
X43617Y50609D01*
X43465Y50871D01*
X43251Y51085D01*
X42989Y51237D01*
X42696Y51315D01*
X42696Y51315D02*
G37*
G36*
X40156Y51315D02*
X39854Y51315D01*
X39561Y51237D01*
X39299Y51085D01*
X39085Y50871D01*
X38933Y50609D01*
X38855Y50316D01*
X38855Y50014D01*
X38933Y49721D01*
X39085Y49459D01*
X39299Y49245D01*
X39561Y49093D01*
X39854Y49015D01*
X40156Y49015D01*
X40449Y49093D01*
X40711Y49245D01*
X40925Y49459D01*
X41077Y49721D01*
X41155Y50014D01*
X41155Y50316D01*
X41077Y50609D01*
X40925Y50871D01*
X40711Y51085D01*
X40449Y51237D01*
X40156Y51315D01*
X40156Y51315D02*
G37*
G36*
X37616Y51315D02*
X37314Y51315D01*
X37021Y51237D01*
X36759Y51085D01*
X36545Y50871D01*
X36393Y50609D01*
X36315Y50316D01*
X36315Y50014D01*
X36393Y49721D01*
X36545Y49459D01*
X36759Y49245D01*
X37021Y49093D01*
X37314Y49015D01*
X37616Y49015D01*
X37909Y49093D01*
X38171Y49245D01*
X38385Y49459D01*
X38537Y49721D01*
X38615Y50014D01*
X38615Y50316D01*
X38537Y50609D01*
X38385Y50871D01*
X38171Y51085D01*
X37909Y51237D01*
X37616Y51315D01*
X37616Y51315D02*
G37*
G36*
X35076Y51315D02*
X34774Y51315D01*
X34481Y51237D01*
X34219Y51085D01*
X34005Y50871D01*
X33853Y50609D01*
X33775Y50316D01*
X33775Y50014D01*
X33853Y49721D01*
X34005Y49459D01*
X34219Y49245D01*
X34481Y49093D01*
X34774Y49015D01*
X35076Y49015D01*
X35369Y49093D01*
X35631Y49245D01*
X35845Y49459D01*
X35997Y49721D01*
X36075Y50014D01*
X36075Y50316D01*
X35997Y50609D01*
X35845Y50871D01*
X35631Y51085D01*
X35369Y51237D01*
X35076Y51315D01*
X35076Y51315D02*
G37*
G36*
X32536Y51315D02*
X32234Y51315D01*
X31941Y51237D01*
X31679Y51085D01*
X31465Y50871D01*
X31313Y50609D01*
X31235Y50316D01*
X31235Y50014D01*
X31313Y49721D01*
X31465Y49459D01*
X31679Y49245D01*
X31941Y49093D01*
X32234Y49015D01*
X32536Y49015D01*
X32829Y49093D01*
X33091Y49245D01*
X33305Y49459D01*
X33457Y49721D01*
X33535Y50014D01*
X33535Y50316D01*
X33457Y50609D01*
X33305Y50871D01*
X33091Y51085D01*
X32829Y51237D01*
X32536Y51315D01*
X32536Y51315D02*
G37*
G36*
X29996Y51315D02*
X29694Y51315D01*
X29401Y51237D01*
X29139Y51085D01*
X28925Y50871D01*
X28773Y50609D01*
X28695Y50316D01*
X28695Y50014D01*
X28773Y49721D01*
X28925Y49459D01*
X29139Y49245D01*
X29401Y49093D01*
X29694Y49015D01*
X29996Y49015D01*
X30289Y49093D01*
X30551Y49245D01*
X30765Y49459D01*
X30917Y49721D01*
X30995Y50014D01*
X30995Y50316D01*
X30917Y50609D01*
X30765Y50871D01*
X30551Y51085D01*
X30289Y51237D01*
X29996Y51315D01*
X29996Y51315D02*
G37*
G36*
X27456Y51315D02*
X27154Y51315D01*
X26861Y51237D01*
X26599Y51085D01*
X26385Y50871D01*
X26233Y50609D01*
X26155Y50316D01*
X26155Y50014D01*
X26233Y49721D01*
X26385Y49459D01*
X26599Y49245D01*
X26861Y49093D01*
X27154Y49015D01*
X27456Y49015D01*
X27749Y49093D01*
X28011Y49245D01*
X28225Y49459D01*
X28377Y49721D01*
X28455Y50014D01*
X28455Y50316D01*
X28377Y50609D01*
X28225Y50871D01*
X28011Y51085D01*
X27749Y51237D01*
X27456Y51315D01*
X27456Y51315D02*
G37*
G36*
X24916Y51315D02*
X24614Y51315D01*
X24321Y51237D01*
X24059Y51085D01*
X23845Y50871D01*
X23693Y50609D01*
X23615Y50316D01*
X23615Y50014D01*
X23693Y49721D01*
X23845Y49459D01*
X24059Y49245D01*
X24321Y49093D01*
X24614Y49015D01*
X24916Y49015D01*
X25209Y49093D01*
X25471Y49245D01*
X25685Y49459D01*
X25837Y49721D01*
X25915Y50014D01*
X25915Y50316D01*
X25837Y50609D01*
X25685Y50871D01*
X25471Y51085D01*
X25209Y51237D01*
X24916Y51315D01*
X24916Y51315D02*
G37*
G36*
X22376Y51315D02*
X22074Y51315D01*
X21781Y51237D01*
X21519Y51085D01*
X21305Y50871D01*
X21153Y50609D01*
X21075Y50316D01*
X21075Y50014D01*
X21153Y49721D01*
X21305Y49459D01*
X21519Y49245D01*
X21781Y49093D01*
X22074Y49015D01*
X22376Y49015D01*
X22669Y49093D01*
X22931Y49245D01*
X23145Y49459D01*
X23297Y49721D01*
X23375Y50014D01*
X23375Y50316D01*
X23297Y50609D01*
X23145Y50871D01*
X22931Y51085D01*
X22669Y51237D01*
X22376Y51315D01*
X22376Y51315D02*
G37*
G36*
X80832Y50160D02*
X80458Y50160D01*
X80091Y50087D01*
X79745Y49944D01*
X79434Y49736D01*
X79169Y49471D01*
X78961Y49160D01*
X78818Y48814D01*
X78745Y48447D01*
X78745Y48073D01*
X78818Y47706D01*
X78961Y47360D01*
X79169Y47049D01*
X79434Y46784D01*
X79745Y46576D01*
X80091Y46433D01*
X80458Y46360D01*
X80832Y46360D01*
X81199Y46433D01*
X81545Y46576D01*
X81856Y46784D01*
X82121Y47049D01*
X82329Y47360D01*
X82472Y47706D01*
X82545Y48073D01*
X82545Y48447D01*
X82472Y48814D01*
X82329Y49160D01*
X82121Y49471D01*
X81856Y49736D01*
X81545Y49944D01*
X81199Y50087D01*
X80832Y50160D01*
X80832Y50160D02*
G37*
G36*
X40156Y48267D02*
X39854Y48267D01*
X39561Y48189D01*
X39299Y48037D01*
X39085Y47823D01*
X38933Y47561D01*
X38855Y47268D01*
X38855Y46966D01*
X38933Y46673D01*
X39085Y46411D01*
X39299Y46197D01*
X39561Y46045D01*
X39854Y45967D01*
X40156Y45967D01*
X40449Y46045D01*
X40711Y46197D01*
X40925Y46411D01*
X41077Y46673D01*
X41155Y46966D01*
X41155Y47268D01*
X41077Y47561D01*
X40925Y47823D01*
X40711Y48037D01*
X40449Y48189D01*
X40156Y48267D01*
X40156Y48267D02*
G37*
G36*
X37616Y48267D02*
X37314Y48267D01*
X37021Y48189D01*
X36759Y48037D01*
X36545Y47823D01*
X36393Y47561D01*
X36315Y47268D01*
X36315Y46966D01*
X36393Y46673D01*
X36545Y46411D01*
X36759Y46197D01*
X37021Y46045D01*
X37314Y45967D01*
X37616Y45967D01*
X37909Y46045D01*
X38171Y46197D01*
X38385Y46411D01*
X38537Y46673D01*
X38615Y46966D01*
X38615Y47268D01*
X38537Y47561D01*
X38385Y47823D01*
X38171Y48037D01*
X37909Y48189D01*
X37616Y48267D01*
X37616Y48267D02*
G37*
G36*
X35076Y48267D02*
X34774Y48267D01*
X34481Y48189D01*
X34219Y48037D01*
X34005Y47823D01*
X33853Y47561D01*
X33775Y47268D01*
X33775Y46966D01*
X33853Y46673D01*
X34005Y46411D01*
X34219Y46197D01*
X34481Y46045D01*
X34774Y45967D01*
X35076Y45967D01*
X35369Y46045D01*
X35631Y46197D01*
X35845Y46411D01*
X35997Y46673D01*
X36075Y46966D01*
X36075Y47268D01*
X35997Y47561D01*
X35845Y47823D01*
X35631Y48037D01*
X35369Y48189D01*
X35076Y48267D01*
X35076Y48267D02*
G37*
G36*
X32536Y48267D02*
X32234Y48267D01*
X31941Y48189D01*
X31679Y48037D01*
X31465Y47823D01*
X31313Y47561D01*
X31235Y47268D01*
X31235Y46966D01*
X31313Y46673D01*
X31465Y46411D01*
X31679Y46197D01*
X31941Y46045D01*
X32234Y45967D01*
X32536Y45967D01*
X32829Y46045D01*
X33091Y46197D01*
X33305Y46411D01*
X33457Y46673D01*
X33535Y46966D01*
X33535Y47268D01*
X33457Y47561D01*
X33305Y47823D01*
X33091Y48037D01*
X32829Y48189D01*
X32536Y48267D01*
X32536Y48267D02*
G37*
G36*
X29996Y48267D02*
X29694Y48267D01*
X29401Y48189D01*
X29139Y48037D01*
X28925Y47823D01*
X28773Y47561D01*
X28695Y47268D01*
X28695Y46966D01*
X28773Y46673D01*
X28925Y46411D01*
X29139Y46197D01*
X29401Y46045D01*
X29694Y45967D01*
X29996Y45967D01*
X30289Y46045D01*
X30551Y46197D01*
X30765Y46411D01*
X30917Y46673D01*
X30995Y46966D01*
X30995Y47268D01*
X30917Y47561D01*
X30765Y47823D01*
X30551Y48037D01*
X30289Y48189D01*
X29996Y48267D01*
X29996Y48267D02*
G37*
G36*
X27456Y48267D02*
X27154Y48267D01*
X26861Y48189D01*
X26599Y48037D01*
X26385Y47823D01*
X26233Y47561D01*
X26155Y47268D01*
X26155Y46966D01*
X26233Y46673D01*
X26385Y46411D01*
X26599Y46197D01*
X26861Y46045D01*
X27154Y45967D01*
X27456Y45967D01*
X27749Y46045D01*
X28011Y46197D01*
X28225Y46411D01*
X28377Y46673D01*
X28455Y46966D01*
X28455Y47268D01*
X28377Y47561D01*
X28225Y47823D01*
X28011Y48037D01*
X27749Y48189D01*
X27456Y48267D01*
X27456Y48267D02*
G37*
G36*
X24916Y48267D02*
X24614Y48267D01*
X24321Y48189D01*
X24059Y48037D01*
X23845Y47823D01*
X23693Y47561D01*
X23615Y47268D01*
X23615Y46966D01*
X23693Y46673D01*
X23845Y46411D01*
X24059Y46197D01*
X24321Y46045D01*
X24614Y45967D01*
X24916Y45967D01*
X25209Y46045D01*
X25471Y46197D01*
X25685Y46411D01*
X25837Y46673D01*
X25915Y46966D01*
X25915Y47268D01*
X25837Y47561D01*
X25685Y47823D01*
X25471Y48037D01*
X25209Y48189D01*
X24916Y48267D01*
X24916Y48267D02*
G37*
G36*
X22376Y48267D02*
X22074Y48267D01*
X21781Y48189D01*
X21519Y48037D01*
X21305Y47823D01*
X21153Y47561D01*
X21075Y47268D01*
X21075Y46966D01*
X21153Y46673D01*
X21305Y46411D01*
X21519Y46197D01*
X21781Y46045D01*
X22074Y45967D01*
X22376Y45967D01*
X22669Y46045D01*
X22931Y46197D01*
X23145Y46411D01*
X23297Y46673D01*
X23375Y46966D01*
X23375Y47268D01*
X23297Y47561D01*
X23145Y47823D01*
X22931Y48037D01*
X22669Y48189D01*
X22376Y48267D01*
X22376Y48267D02*
G37*
G36*
X19836Y48267D02*
X19534Y48267D01*
X19241Y48189D01*
X18979Y48037D01*
X18765Y47823D01*
X18613Y47561D01*
X18535Y47268D01*
X18535Y46966D01*
X18613Y46673D01*
X18765Y46411D01*
X18979Y46197D01*
X19241Y46045D01*
X19534Y45967D01*
X19836Y45967D01*
X20129Y46045D01*
X20391Y46197D01*
X20605Y46411D01*
X20757Y46673D01*
X20835Y46966D01*
X20835Y47268D01*
X20757Y47561D01*
X20605Y47823D01*
X20391Y48037D01*
X20129Y48189D01*
X19836Y48267D01*
X19836Y48267D02*
G37*
G36*
X17296Y48267D02*
X16994Y48267D01*
X16701Y48189D01*
X16439Y48037D01*
X16225Y47823D01*
X16073Y47561D01*
X15995Y47268D01*
X15995Y46966D01*
X16073Y46673D01*
X16225Y46411D01*
X16439Y46197D01*
X16701Y46045D01*
X16994Y45967D01*
X17296Y45967D01*
X17589Y46045D01*
X17851Y46197D01*
X18065Y46411D01*
X18217Y46673D01*
X18295Y46966D01*
X18295Y47268D01*
X18217Y47561D01*
X18065Y47823D01*
X17851Y48037D01*
X17589Y48189D01*
X17296Y48267D01*
X17296Y48267D02*
G37*
G36*
X15180Y48267D02*
X14030Y48267D01*
X13455Y47692D01*
X13455Y46542D01*
X14030Y45967D01*
X15180Y45967D01*
X15755Y46542D01*
X15755Y47692D01*
X15180Y48267D01*
X15180Y48267D02*
G37*
G36*
X41775Y40139D02*
X40625Y40139D01*
X40050Y39564D01*
X40050Y38414D01*
X40625Y37839D01*
X41775Y37839D01*
X42350Y38414D01*
X42350Y39564D01*
X41775Y40139D01*
X41775Y40139D02*
G37*
G36*
X38811Y40139D02*
X38509Y40139D01*
X38216Y40061D01*
X37954Y39909D01*
X37740Y39695D01*
X37588Y39433D01*
X37510Y39140D01*
X37510Y38838D01*
X37588Y38545D01*
X37740Y38283D01*
X37954Y38069D01*
X38216Y37917D01*
X38509Y37839D01*
X38811Y37839D01*
X39104Y37917D01*
X39366Y38069D01*
X39580Y38283D01*
X39732Y38545D01*
X39810Y38838D01*
X39810Y39140D01*
X39732Y39433D01*
X39580Y39695D01*
X39366Y39909D01*
X39104Y40061D01*
X38811Y40139D01*
X38811Y40139D02*
G37*
G36*
X36271Y40139D02*
X35969Y40139D01*
X35676Y40061D01*
X35414Y39909D01*
X35200Y39695D01*
X35048Y39433D01*
X34970Y39140D01*
X34970Y38838D01*
X35048Y38545D01*
X35200Y38283D01*
X35414Y38069D01*
X35676Y37917D01*
X35969Y37839D01*
X36271Y37839D01*
X36564Y37917D01*
X36826Y38069D01*
X37040Y38283D01*
X37192Y38545D01*
X37270Y38838D01*
X37270Y39140D01*
X37192Y39433D01*
X37040Y39695D01*
X36826Y39909D01*
X36564Y40061D01*
X36271Y40139D01*
X36271Y40139D02*
G37*
G36*
X63078Y36337D02*
X62906Y36337D01*
X62741Y36293D01*
X62593Y36207D01*
X62506Y36120D01*
X58906Y36120D01*
X58819Y36207D01*
X58671Y36293D01*
X58506Y36337D01*
X58334Y36337D01*
X58169Y36293D01*
X58021Y36207D01*
X57900Y36086D01*
X57814Y35938D01*
X57770Y35773D01*
X57770Y35601D01*
X57814Y35436D01*
X57900Y35288D01*
X58021Y35167D01*
X58169Y35081D01*
X58334Y35037D01*
X58506Y35037D01*
X58671Y35081D01*
X58819Y35167D01*
X58906Y35254D01*
X62506Y35254D01*
X62593Y35167D01*
X62741Y35081D01*
X62906Y35037D01*
X63078Y35037D01*
X63243Y35081D01*
X63391Y35167D01*
X63512Y35288D01*
X63598Y35436D01*
X63642Y35601D01*
X63642Y35773D01*
X63598Y35938D01*
X63512Y36086D01*
X63391Y36207D01*
X63243Y36293D01*
X63078Y36337D01*
X63078Y36337D02*
G37*
G36*
X32535Y33852D02*
X32535Y32916D01*
X33471Y32916D01*
X33399Y33186D01*
X33256Y33434D01*
X33053Y33637D01*
X32805Y33780D01*
X32535Y33852D01*
X32535Y33852D02*
G37*
G36*
X61110Y33852D02*
X61110Y32916D01*
X62046Y32916D01*
X61974Y33186D01*
X61831Y33434D01*
X61628Y33637D01*
X61380Y33780D01*
X61110Y33852D01*
X61110Y33852D02*
G37*
G36*
X32235Y33852D02*
X31965Y33780D01*
X31717Y33637D01*
X31514Y33434D01*
X31371Y33186D01*
X31299Y32916D01*
X32235Y32916D01*
X32235Y33852D01*
X32235Y33852D02*
G37*
G36*
X60810Y33852D02*
X60540Y33780D01*
X60292Y33637D01*
X60089Y33434D01*
X59946Y33186D01*
X59874Y32916D01*
X60810Y32916D01*
X60810Y33852D01*
X60810Y33852D02*
G37*
G36*
X62046Y32616D02*
X61110Y32616D01*
X61110Y31680D01*
X61380Y31752D01*
X61628Y31895D01*
X61831Y32098D01*
X61974Y32346D01*
X62046Y32616D01*
X62046Y32616D02*
G37*
G36*
X33471Y32616D02*
X32535Y32616D01*
X32535Y31680D01*
X32805Y31752D01*
X33053Y31895D01*
X33256Y32098D01*
X33399Y32346D01*
X33471Y32616D01*
X33471Y32616D02*
G37*
G36*
X60810Y32616D02*
X59874Y32616D01*
X59946Y32346D01*
X60089Y32098D01*
X60292Y31895D01*
X60540Y31752D01*
X60810Y31680D01*
X60810Y32616D01*
X60810Y32616D02*
G37*
G36*
X32235Y32616D02*
X31299Y32616D01*
X31371Y32346D01*
X31514Y32098D01*
X31717Y31895D01*
X31965Y31752D01*
X32235Y31680D01*
X32235Y32616D01*
X32235Y32616D02*
G37*
G36*
X76350Y33904D02*
X76050Y33904D01*
X75761Y33827D01*
X75501Y33677D01*
X75289Y33465D01*
X75139Y33205D01*
X75062Y32916D01*
X75062Y32616D01*
X75139Y32327D01*
X75289Y32067D01*
X75501Y31855D01*
X75761Y31705D01*
X76050Y31628D01*
X76350Y31628D01*
X76639Y31705D01*
X76899Y31855D01*
X77111Y32067D01*
X77261Y32327D01*
X77338Y32616D01*
X77338Y32916D01*
X77261Y33205D01*
X77111Y33465D01*
X76899Y33677D01*
X76639Y33827D01*
X76350Y33904D01*
X76350Y33904D02*
G37*
G36*
X67064Y37646D02*
X66893Y37646D01*
X66727Y37602D01*
X66579Y37516D01*
X66458Y37395D01*
X66372Y37247D01*
X66328Y37082D01*
X66328Y36910D01*
X66372Y36745D01*
X66458Y36597D01*
X66554Y36500D01*
X66458Y36404D01*
X66372Y36256D01*
X66328Y36091D01*
X66328Y35919D01*
X66346Y35854D01*
X66186Y35811D01*
X66038Y35725D01*
X65917Y35604D01*
X65831Y35456D01*
X65787Y35291D01*
X65787Y35119D01*
X65831Y34954D01*
X65917Y34806D01*
X66038Y34685D01*
X66186Y34599D01*
X66351Y34555D01*
X66523Y34555D01*
X66688Y34599D01*
X66836Y34685D01*
X66923Y34772D01*
X67688Y34772D01*
X68147Y34313D01*
X68147Y33828D01*
X68141Y33827D01*
X67881Y33677D01*
X67669Y33465D01*
X67519Y33205D01*
X67442Y32916D01*
X67442Y32616D01*
X67519Y32327D01*
X67669Y32067D01*
X67881Y31855D01*
X68141Y31705D01*
X68430Y31628D01*
X68730Y31628D01*
X69019Y31705D01*
X69279Y31855D01*
X69491Y32067D01*
X69641Y32327D01*
X69718Y32616D01*
X69718Y32916D01*
X69641Y33205D01*
X69491Y33465D01*
X69279Y33677D01*
X69019Y33827D01*
X69013Y33828D01*
X69013Y34492D01*
X68980Y34658D01*
X68886Y34799D01*
X68314Y35372D01*
X68396Y35572D01*
X69480Y35572D01*
X70687Y34365D01*
X70687Y33828D01*
X70681Y33827D01*
X70421Y33677D01*
X70209Y33465D01*
X70059Y33205D01*
X69982Y32916D01*
X69982Y32616D01*
X70059Y32327D01*
X70209Y32067D01*
X70421Y31855D01*
X70681Y31705D01*
X70970Y31628D01*
X71270Y31628D01*
X71559Y31705D01*
X71819Y31855D01*
X72031Y32067D01*
X72181Y32327D01*
X72258Y32616D01*
X72258Y32916D01*
X72181Y33205D01*
X72031Y33465D01*
X71819Y33677D01*
X71559Y33827D01*
X71553Y33828D01*
X71553Y34544D01*
X71520Y34710D01*
X71426Y34850D01*
X69965Y36311D01*
X69889Y36363D01*
X69949Y36563D01*
X71409Y36563D01*
X73227Y34745D01*
X73227Y33828D01*
X73221Y33827D01*
X72961Y33677D01*
X72749Y33465D01*
X72599Y33205D01*
X72522Y32916D01*
X72522Y32616D01*
X72599Y32327D01*
X72749Y32067D01*
X72961Y31855D01*
X73221Y31705D01*
X73510Y31628D01*
X73810Y31628D01*
X74099Y31705D01*
X74359Y31855D01*
X74571Y32067D01*
X74721Y32327D01*
X74798Y32616D01*
X74798Y32916D01*
X74721Y33205D01*
X74571Y33465D01*
X74359Y33677D01*
X74099Y33827D01*
X74093Y33828D01*
X74093Y34924D01*
X74060Y35090D01*
X73966Y35230D01*
X71894Y37302D01*
X71754Y37396D01*
X71588Y37429D01*
X67464Y37429D01*
X67377Y37516D01*
X67229Y37602D01*
X67064Y37646D01*
X67064Y37646D02*
G37*
G36*
X66190Y33904D02*
X65890Y33904D01*
X65601Y33827D01*
X65341Y33677D01*
X65129Y33465D01*
X64979Y33205D01*
X64902Y32916D01*
X64902Y32616D01*
X64979Y32327D01*
X65129Y32067D01*
X65341Y31855D01*
X65601Y31705D01*
X65890Y31628D01*
X66190Y31628D01*
X66479Y31705D01*
X66739Y31855D01*
X66951Y32067D01*
X67101Y32327D01*
X67178Y32616D01*
X67178Y32916D01*
X67101Y33205D01*
X66951Y33465D01*
X66739Y33677D01*
X66479Y33827D01*
X66190Y33904D01*
X66190Y33904D02*
G37*
G36*
X63650Y33904D02*
X63350Y33904D01*
X63061Y33827D01*
X62801Y33677D01*
X62589Y33465D01*
X62439Y33205D01*
X62362Y32916D01*
X62362Y32616D01*
X62439Y32327D01*
X62589Y32067D01*
X62801Y31855D01*
X63061Y31705D01*
X63350Y31628D01*
X63650Y31628D01*
X63939Y31705D01*
X64199Y31855D01*
X64411Y32067D01*
X64561Y32327D01*
X64638Y32616D01*
X64638Y32916D01*
X64561Y33205D01*
X64411Y33465D01*
X64199Y33677D01*
X63939Y33827D01*
X63650Y33904D01*
X63650Y33904D02*
G37*
G36*
X58570Y33904D02*
X58270Y33904D01*
X57981Y33827D01*
X57721Y33677D01*
X57509Y33465D01*
X57359Y33205D01*
X57282Y32916D01*
X57282Y32616D01*
X57359Y32327D01*
X57509Y32067D01*
X57721Y31855D01*
X57981Y31705D01*
X58270Y31628D01*
X58570Y31628D01*
X58859Y31705D01*
X59119Y31855D01*
X59331Y32067D01*
X59481Y32327D01*
X59558Y32616D01*
X59558Y32916D01*
X59481Y33205D01*
X59331Y33465D01*
X59119Y33677D01*
X58859Y33827D01*
X58570Y33904D01*
X58570Y33904D02*
G37*
G36*
X47775Y33904D02*
X47475Y33904D01*
X47186Y33827D01*
X46926Y33677D01*
X46714Y33465D01*
X46564Y33205D01*
X46487Y32916D01*
X46487Y32616D01*
X46564Y32327D01*
X46714Y32067D01*
X46926Y31855D01*
X47186Y31705D01*
X47475Y31628D01*
X47775Y31628D01*
X48064Y31705D01*
X48324Y31855D01*
X48536Y32067D01*
X48686Y32327D01*
X48763Y32616D01*
X48763Y32916D01*
X48686Y33205D01*
X48536Y33465D01*
X48324Y33677D01*
X48064Y33827D01*
X47775Y33904D01*
X47775Y33904D02*
G37*
G36*
X45235Y33904D02*
X44935Y33904D01*
X44646Y33827D01*
X44386Y33677D01*
X44174Y33465D01*
X44024Y33205D01*
X43947Y32916D01*
X43947Y32616D01*
X44024Y32327D01*
X44027Y32321D01*
X43509Y31802D01*
X43415Y31662D01*
X43382Y31496D01*
X43382Y31261D01*
X43182Y31173D01*
X42984Y31287D01*
X42695Y31364D01*
X42395Y31364D01*
X42106Y31287D01*
X42057Y31258D01*
X41834Y31361D01*
X41821Y31430D01*
X42100Y31708D01*
X42106Y31705D01*
X42395Y31628D01*
X42695Y31628D01*
X42984Y31705D01*
X43244Y31855D01*
X43456Y32067D01*
X43606Y32327D01*
X43683Y32616D01*
X43683Y32916D01*
X43606Y33205D01*
X43456Y33465D01*
X43244Y33677D01*
X42984Y33827D01*
X42695Y33904D01*
X42395Y33904D01*
X42106Y33827D01*
X41846Y33677D01*
X41634Y33465D01*
X41484Y33205D01*
X41407Y32916D01*
X41407Y32616D01*
X41484Y32327D01*
X41487Y32321D01*
X40969Y31802D01*
X40875Y31662D01*
X40842Y31496D01*
X40842Y31261D01*
X40642Y31173D01*
X40444Y31287D01*
X40155Y31364D01*
X39855Y31364D01*
X39566Y31287D01*
X39517Y31258D01*
X39294Y31361D01*
X39281Y31430D01*
X39560Y31708D01*
X39566Y31705D01*
X39855Y31628D01*
X40155Y31628D01*
X40444Y31705D01*
X40704Y31855D01*
X40916Y32067D01*
X41066Y32327D01*
X41143Y32616D01*
X41143Y32916D01*
X41066Y33205D01*
X40916Y33465D01*
X40704Y33677D01*
X40444Y33827D01*
X40155Y33904D01*
X39855Y33904D01*
X39566Y33827D01*
X39306Y33677D01*
X39094Y33465D01*
X38944Y33205D01*
X38867Y32916D01*
X38867Y32616D01*
X38944Y32327D01*
X38947Y32321D01*
X38429Y31802D01*
X38335Y31662D01*
X38302Y31496D01*
X38302Y31261D01*
X38102Y31173D01*
X37904Y31287D01*
X37615Y31364D01*
X37315Y31364D01*
X37026Y31287D01*
X36766Y31137D01*
X36554Y30925D01*
X36404Y30665D01*
X36327Y30376D01*
X36327Y30076D01*
X36404Y29787D01*
X36554Y29527D01*
X36766Y29315D01*
X37026Y29165D01*
X37315Y29088D01*
X37615Y29088D01*
X37904Y29165D01*
X38102Y29279D01*
X38302Y29191D01*
X38302Y24944D01*
X38215Y24857D01*
X38129Y24709D01*
X38085Y24544D01*
X38085Y24373D01*
X38129Y24207D01*
X38215Y24059D01*
X38336Y23938D01*
X38484Y23853D01*
X38649Y23808D01*
X38821Y23808D01*
X38986Y23853D01*
X39134Y23938D01*
X39255Y24059D01*
X39341Y24207D01*
X39361Y24283D01*
X39568Y24283D01*
X39588Y24207D01*
X39674Y24059D01*
X39795Y23938D01*
X39943Y23853D01*
X40108Y23808D01*
X40280Y23808D01*
X40445Y23853D01*
X40593Y23938D01*
X40681Y24027D01*
X40770Y23938D01*
X40918Y23853D01*
X41083Y23808D01*
X41255Y23808D01*
X41420Y23853D01*
X41568Y23938D01*
X41689Y24059D01*
X41775Y24207D01*
X41819Y24373D01*
X41819Y24544D01*
X41775Y24709D01*
X41689Y24857D01*
X41602Y24944D01*
X41602Y26955D01*
X44121Y29474D01*
X44308Y29393D01*
X44386Y29315D01*
X44646Y29165D01*
X44935Y29088D01*
X45235Y29088D01*
X45524Y29165D01*
X45784Y29315D01*
X45996Y29527D01*
X46146Y29787D01*
X46223Y30076D01*
X46223Y30376D01*
X46146Y30665D01*
X45996Y30925D01*
X45784Y31137D01*
X45524Y31287D01*
X45235Y31364D01*
X44935Y31364D01*
X44646Y31287D01*
X44597Y31258D01*
X44374Y31361D01*
X44361Y31430D01*
X44640Y31708D01*
X44646Y31705D01*
X44935Y31628D01*
X45235Y31628D01*
X45524Y31705D01*
X45784Y31855D01*
X45996Y32067D01*
X46146Y32327D01*
X46223Y32616D01*
X46223Y32916D01*
X46146Y33205D01*
X45996Y33465D01*
X45784Y33677D01*
X45524Y33827D01*
X45235Y33904D01*
X45235Y33904D02*
G37*
G36*
X37615Y33904D02*
X37315Y33904D01*
X37026Y33827D01*
X36766Y33677D01*
X36554Y33465D01*
X36404Y33205D01*
X36327Y32916D01*
X36327Y32616D01*
X36404Y32327D01*
X36554Y32067D01*
X36766Y31855D01*
X37026Y31705D01*
X37315Y31628D01*
X37615Y31628D01*
X37904Y31705D01*
X38164Y31855D01*
X38376Y32067D01*
X38526Y32327D01*
X38603Y32616D01*
X38603Y32916D01*
X38526Y33205D01*
X38376Y33465D01*
X38164Y33677D01*
X37904Y33827D01*
X37615Y33904D01*
X37615Y33904D02*
G37*
G36*
X35075Y33904D02*
X34775Y33904D01*
X34486Y33827D01*
X34226Y33677D01*
X34014Y33465D01*
X33864Y33205D01*
X33787Y32916D01*
X33787Y32616D01*
X33864Y32327D01*
X34014Y32067D01*
X34226Y31855D01*
X34486Y31705D01*
X34775Y31628D01*
X35075Y31628D01*
X35364Y31705D01*
X35624Y31855D01*
X35836Y32067D01*
X35986Y32327D01*
X36063Y32616D01*
X36063Y32916D01*
X35986Y33205D01*
X35836Y33465D01*
X35624Y33677D01*
X35364Y33827D01*
X35075Y33904D01*
X35075Y33904D02*
G37*
G36*
X29995Y33904D02*
X29695Y33904D01*
X29406Y33827D01*
X29146Y33677D01*
X28934Y33465D01*
X28784Y33205D01*
X28707Y32916D01*
X28707Y32616D01*
X28784Y32327D01*
X28934Y32067D01*
X29146Y31855D01*
X29406Y31705D01*
X29695Y31628D01*
X29995Y31628D01*
X30284Y31705D01*
X30544Y31855D01*
X30756Y32067D01*
X30906Y32327D01*
X30983Y32616D01*
X30983Y32916D01*
X30906Y33205D01*
X30756Y33465D01*
X30544Y33677D01*
X30284Y33827D01*
X29995Y33904D01*
X29995Y33904D02*
G37*
G36*
X76350Y31364D02*
X76050Y31364D01*
X75761Y31287D01*
X75501Y31137D01*
X75289Y30925D01*
X75139Y30665D01*
X75062Y30376D01*
X75062Y30076D01*
X75139Y29787D01*
X75289Y29527D01*
X75501Y29315D01*
X75761Y29165D01*
X76050Y29088D01*
X76350Y29088D01*
X76639Y29165D01*
X76899Y29315D01*
X77111Y29527D01*
X77261Y29787D01*
X77338Y30076D01*
X77338Y30376D01*
X77261Y30665D01*
X77111Y30925D01*
X76899Y31137D01*
X76639Y31287D01*
X76350Y31364D01*
X76350Y31364D02*
G37*
G36*
X73810Y31364D02*
X73510Y31364D01*
X73221Y31287D01*
X72961Y31137D01*
X72749Y30925D01*
X72599Y30665D01*
X72522Y30376D01*
X72522Y30076D01*
X72599Y29787D01*
X72749Y29527D01*
X72961Y29315D01*
X73221Y29165D01*
X73510Y29088D01*
X73810Y29088D01*
X74099Y29165D01*
X74359Y29315D01*
X74571Y29527D01*
X74721Y29787D01*
X74798Y30076D01*
X74798Y30376D01*
X74721Y30665D01*
X74571Y30925D01*
X74359Y31137D01*
X74099Y31287D01*
X73810Y31364D01*
X73810Y31364D02*
G37*
G36*
X71270Y31364D02*
X70970Y31364D01*
X70681Y31287D01*
X70421Y31137D01*
X70209Y30925D01*
X70059Y30665D01*
X69982Y30376D01*
X69982Y30076D01*
X70059Y29787D01*
X70209Y29527D01*
X70421Y29315D01*
X70681Y29165D01*
X70970Y29088D01*
X71270Y29088D01*
X71559Y29165D01*
X71819Y29315D01*
X72031Y29527D01*
X72181Y29787D01*
X72258Y30076D01*
X72258Y30376D01*
X72181Y30665D01*
X72031Y30925D01*
X71819Y31137D01*
X71559Y31287D01*
X71270Y31364D01*
X71270Y31364D02*
G37*
G36*
X68730Y31364D02*
X68430Y31364D01*
X68141Y31287D01*
X67881Y31137D01*
X67669Y30925D01*
X67519Y30665D01*
X67442Y30376D01*
X67442Y30076D01*
X67519Y29787D01*
X67669Y29527D01*
X67881Y29315D01*
X68141Y29165D01*
X68430Y29088D01*
X68730Y29088D01*
X69019Y29165D01*
X69279Y29315D01*
X69491Y29527D01*
X69641Y29787D01*
X69718Y30076D01*
X69718Y30376D01*
X69641Y30665D01*
X69491Y30925D01*
X69279Y31137D01*
X69019Y31287D01*
X68730Y31364D01*
X68730Y31364D02*
G37*
G36*
X66190Y31364D02*
X65890Y31364D01*
X65601Y31287D01*
X65341Y31137D01*
X65129Y30925D01*
X64979Y30665D01*
X64902Y30376D01*
X64902Y30076D01*
X64979Y29787D01*
X65129Y29527D01*
X65341Y29315D01*
X65601Y29165D01*
X65890Y29088D01*
X66190Y29088D01*
X66479Y29165D01*
X66739Y29315D01*
X66951Y29527D01*
X67101Y29787D01*
X67178Y30076D01*
X67178Y30376D01*
X67101Y30665D01*
X66951Y30925D01*
X66739Y31137D01*
X66479Y31287D01*
X66190Y31364D01*
X66190Y31364D02*
G37*
G36*
X63650Y31364D02*
X63350Y31364D01*
X63061Y31287D01*
X62801Y31137D01*
X62589Y30925D01*
X62439Y30665D01*
X62362Y30376D01*
X62362Y30076D01*
X62439Y29787D01*
X62589Y29527D01*
X62801Y29315D01*
X63061Y29165D01*
X63350Y29088D01*
X63650Y29088D01*
X63939Y29165D01*
X64199Y29315D01*
X64411Y29527D01*
X64561Y29787D01*
X64638Y30076D01*
X64638Y30376D01*
X64561Y30665D01*
X64411Y30925D01*
X64199Y31137D01*
X63939Y31287D01*
X63650Y31364D01*
X63650Y31364D02*
G37*
G36*
X61110Y31364D02*
X60810Y31364D01*
X60521Y31287D01*
X60261Y31137D01*
X60049Y30925D01*
X59899Y30665D01*
X59822Y30376D01*
X59822Y30076D01*
X59899Y29787D01*
X60049Y29527D01*
X60261Y29315D01*
X60521Y29165D01*
X60810Y29088D01*
X61110Y29088D01*
X61399Y29165D01*
X61659Y29315D01*
X61871Y29527D01*
X62021Y29787D01*
X62098Y30076D01*
X62098Y30376D01*
X62021Y30665D01*
X61871Y30925D01*
X61659Y31137D01*
X61399Y31287D01*
X61110Y31364D01*
X61110Y31364D02*
G37*
G36*
X59558Y31364D02*
X57282Y31364D01*
X57282Y29088D01*
X59558Y29088D01*
X59558Y31364D01*
X59558Y31364D02*
G37*
G36*
X47775Y31364D02*
X47475Y31364D01*
X47186Y31287D01*
X46926Y31137D01*
X46714Y30925D01*
X46564Y30665D01*
X46487Y30376D01*
X46487Y30076D01*
X46564Y29787D01*
X46714Y29527D01*
X46926Y29315D01*
X47186Y29165D01*
X47475Y29088D01*
X47775Y29088D01*
X48064Y29165D01*
X48324Y29315D01*
X48536Y29527D01*
X48686Y29787D01*
X48763Y30076D01*
X48763Y30376D01*
X48686Y30665D01*
X48536Y30925D01*
X48324Y31137D01*
X48064Y31287D01*
X47775Y31364D01*
X47775Y31364D02*
G37*
G36*
X35075Y31364D02*
X34775Y31364D01*
X34486Y31287D01*
X34226Y31137D01*
X34014Y30925D01*
X33864Y30665D01*
X33787Y30376D01*
X33787Y30076D01*
X33864Y29787D01*
X34014Y29527D01*
X34226Y29315D01*
X34486Y29165D01*
X34775Y29088D01*
X35075Y29088D01*
X35364Y29165D01*
X35624Y29315D01*
X35836Y29527D01*
X35986Y29787D01*
X36063Y30076D01*
X36063Y30376D01*
X35986Y30665D01*
X35836Y30925D01*
X35624Y31137D01*
X35364Y31287D01*
X35075Y31364D01*
X35075Y31364D02*
G37*
G36*
X32535Y31364D02*
X32235Y31364D01*
X31946Y31287D01*
X31686Y31137D01*
X31474Y30925D01*
X31324Y30665D01*
X31247Y30376D01*
X31247Y30076D01*
X31324Y29787D01*
X31474Y29527D01*
X31686Y29315D01*
X31946Y29165D01*
X32235Y29088D01*
X32535Y29088D01*
X32824Y29165D01*
X33084Y29315D01*
X33296Y29527D01*
X33446Y29787D01*
X33523Y30076D01*
X33523Y30376D01*
X33446Y30665D01*
X33296Y30925D01*
X33084Y31137D01*
X32824Y31287D01*
X32535Y31364D01*
X32535Y31364D02*
G37*
G36*
X30983Y31364D02*
X28707Y31364D01*
X28707Y29088D01*
X30983Y29088D01*
X30983Y31364D01*
X30983Y31364D02*
G37*
G36*
X47965Y26685D02*
X47793Y26685D01*
X47628Y26641D01*
X47480Y26555D01*
X47393Y26468D01*
X44693Y26468D01*
X44606Y26555D01*
X44458Y26641D01*
X44293Y26685D01*
X44121Y26685D01*
X43956Y26641D01*
X43808Y26555D01*
X43687Y26434D01*
X43601Y26286D01*
X43557Y26121D01*
X43557Y25949D01*
X43601Y25784D01*
X43687Y25636D01*
X43808Y25515D01*
X43956Y25429D01*
X44121Y25385D01*
X44293Y25385D01*
X44458Y25429D01*
X44606Y25515D01*
X44693Y25602D01*
X47393Y25602D01*
X47480Y25515D01*
X47628Y25429D01*
X47793Y25385D01*
X47965Y25385D01*
X48130Y25429D01*
X48278Y25515D01*
X48399Y25636D01*
X48485Y25784D01*
X48529Y25949D01*
X48529Y26121D01*
X48485Y26286D01*
X48399Y26434D01*
X48278Y26555D01*
X48130Y26641D01*
X47965Y26685D01*
X47965Y26685D02*
G37*
G36*
X37291Y25516D02*
X37119Y25516D01*
X36954Y25471D01*
X36806Y25386D01*
X36719Y25299D01*
X35855Y25299D01*
X35768Y25386D01*
X35619Y25471D01*
X35454Y25516D01*
X35283Y25516D01*
X35118Y25471D01*
X34969Y25386D01*
X34848Y25265D01*
X34763Y25117D01*
X34719Y24951D01*
X34719Y24780D01*
X34763Y24615D01*
X34848Y24467D01*
X34969Y24346D01*
X35118Y24260D01*
X35283Y24216D01*
X35454Y24216D01*
X35619Y24260D01*
X35768Y24346D01*
X35855Y24432D01*
X36719Y24432D01*
X36806Y24346D01*
X36954Y24260D01*
X37119Y24216D01*
X37291Y24216D01*
X37456Y24260D01*
X37604Y24346D01*
X37725Y24467D01*
X37811Y24615D01*
X37855Y24780D01*
X37855Y24951D01*
X37811Y25117D01*
X37725Y25265D01*
X37604Y25386D01*
X37456Y25471D01*
X37291Y25516D01*
X37291Y25516D02*
G37*
G36*
X70425Y25153D02*
X69275Y25153D01*
X68700Y24578D01*
X68700Y23428D01*
X69275Y22853D01*
X70425Y22853D01*
X71000Y23428D01*
X71000Y24578D01*
X70425Y25153D01*
X70425Y25153D02*
G37*
G36*
X67461Y25153D02*
X67159Y25153D01*
X66866Y25075D01*
X66604Y24923D01*
X66390Y24709D01*
X66238Y24447D01*
X66160Y24154D01*
X66160Y23852D01*
X66238Y23559D01*
X66390Y23297D01*
X66604Y23083D01*
X66866Y22931D01*
X67159Y22853D01*
X67461Y22853D01*
X67754Y22931D01*
X68016Y23083D01*
X68230Y23297D01*
X68382Y23559D01*
X68460Y23852D01*
X68460Y24154D01*
X68382Y24447D01*
X68230Y24709D01*
X68016Y24923D01*
X67754Y25075D01*
X67461Y25153D01*
X67461Y25153D02*
G37*
G36*
X64921Y25153D02*
X64619Y25153D01*
X64326Y25075D01*
X64064Y24923D01*
X63850Y24709D01*
X63698Y24447D01*
X63620Y24154D01*
X63620Y23852D01*
X63698Y23559D01*
X63850Y23297D01*
X64064Y23083D01*
X64326Y22931D01*
X64619Y22853D01*
X64921Y22853D01*
X65214Y22931D01*
X65476Y23083D01*
X65690Y23297D01*
X65842Y23559D01*
X65920Y23852D01*
X65920Y24154D01*
X65842Y24447D01*
X65690Y24709D01*
X65476Y24923D01*
X65214Y25075D01*
X64921Y25153D01*
X64921Y25153D02*
G37*
G36*
X20895Y19896D02*
X20723Y19896D01*
X20558Y19852D01*
X20410Y19766D01*
X20323Y19679D01*
X19762Y19679D01*
X19596Y19646D01*
X19456Y19552D01*
X19208Y19304D01*
X19114Y19164D01*
X19081Y18998D01*
X19081Y11648D01*
X19114Y11482D01*
X19208Y11341D01*
X19354Y11195D01*
X19495Y11101D01*
X19660Y11068D01*
X21261Y11068D01*
X21348Y10981D01*
X21497Y10896D01*
X21662Y10851D01*
X21833Y10851D01*
X21998Y10896D01*
X22147Y10981D01*
X22268Y11102D01*
X22353Y11250D01*
X22397Y11416D01*
X22397Y11587D01*
X22353Y11752D01*
X22268Y11900D01*
X22147Y12021D01*
X21998Y12107D01*
X21833Y12151D01*
X21662Y12151D01*
X21497Y12107D01*
X21348Y12021D01*
X21261Y11935D01*
X19947Y11935D01*
X19947Y18813D01*
X20323Y18813D01*
X20410Y18726D01*
X20558Y18640D01*
X20723Y18596D01*
X20895Y18596D01*
X21060Y18640D01*
X21208Y18726D01*
X21329Y18847D01*
X21415Y18995D01*
X21459Y19160D01*
X21459Y19332D01*
X21415Y19497D01*
X21329Y19645D01*
X21208Y19766D01*
X21060Y19852D01*
X20895Y19896D01*
X20895Y19896D02*
G37*
G36*
X8278Y19256D02*
X8278Y16914D01*
X9635Y16914D01*
X9635Y17764D01*
X9606Y18058D01*
X9521Y18341D01*
X9381Y18601D01*
X9194Y18830D01*
X8965Y19017D01*
X8705Y19157D01*
X8422Y19242D01*
X8278Y19256D01*
X8278Y19256D02*
G37*
G36*
X7978Y19256D02*
X7834Y19242D01*
X7551Y19157D01*
X7291Y19017D01*
X7062Y18830D01*
X6875Y18601D01*
X6735Y18341D01*
X6650Y18058D01*
X6621Y17764D01*
X6621Y16914D01*
X7978Y16914D01*
X7978Y19256D01*
X7978Y19256D02*
G37*
G36*
X7978Y16614D02*
X6621Y16614D01*
X6621Y15764D01*
X6650Y15470D01*
X6735Y15187D01*
X6875Y14927D01*
X7062Y14698D01*
X7291Y14511D01*
X7551Y14371D01*
X7834Y14286D01*
X7978Y14272D01*
X7978Y16614D01*
X7978Y16614D02*
G37*
G36*
X9635Y16614D02*
X8278Y16614D01*
X8278Y14272D01*
X8422Y14286D01*
X8705Y14371D01*
X8965Y14511D01*
X9194Y14698D01*
X9381Y14927D01*
X9521Y15187D01*
X9606Y15470D01*
X9635Y15764D01*
X9635Y16614D01*
X9635Y16614D02*
G37*
G36*
X14128Y19572D02*
X13824Y19542D01*
X13532Y19453D01*
X13263Y19309D01*
X13027Y19115D01*
X12833Y18879D01*
X12689Y18610D01*
X12600Y18318D01*
X12571Y18014D01*
X12571Y15514D01*
X12600Y15210D01*
X12689Y14918D01*
X12833Y14649D01*
X13027Y14413D01*
X13263Y14219D01*
X13532Y14075D01*
X13824Y13986D01*
X14128Y13957D01*
X14432Y13986D01*
X14724Y14075D01*
X14993Y14219D01*
X15229Y14413D01*
X15423Y14649D01*
X15567Y14918D01*
X15656Y15210D01*
X15686Y15514D01*
X15686Y18014D01*
X15656Y18318D01*
X15567Y18610D01*
X15423Y18879D01*
X15229Y19115D01*
X14993Y19309D01*
X14724Y19453D01*
X14432Y19542D01*
X14128Y19572D01*
X14128Y19572D02*
G37*
G36*
X12128Y13571D02*
X11278Y13571D01*
X11278Y12214D01*
X13620Y12214D01*
X13606Y12358D01*
X13521Y12641D01*
X13381Y12901D01*
X13194Y13130D01*
X12965Y13317D01*
X12705Y13457D01*
X12422Y13542D01*
X12128Y13571D01*
X12128Y13571D02*
G37*
G36*
X10978Y13571D02*
X10128Y13571D01*
X9834Y13542D01*
X9551Y13457D01*
X9291Y13317D01*
X9062Y13130D01*
X8875Y12901D01*
X8735Y12641D01*
X8650Y12358D01*
X8636Y12214D01*
X10978Y12214D01*
X10978Y13571D01*
X10978Y13571D02*
G37*
G36*
X13620Y11914D02*
X11278Y11914D01*
X11278Y10557D01*
X12128Y10557D01*
X12422Y10586D01*
X12705Y10671D01*
X12965Y10811D01*
X13194Y10998D01*
X13381Y11227D01*
X13521Y11487D01*
X13606Y11770D01*
X13620Y11914D01*
X13620Y11914D02*
G37*
G36*
X10978Y11914D02*
X8636Y11914D01*
X8650Y11770D01*
X8735Y11487D01*
X8875Y11227D01*
X9062Y10998D01*
X9291Y10811D01*
X9551Y10671D01*
X9834Y10586D01*
X10128Y10557D01*
X10978Y10557D01*
X10978Y11914D01*
X10978Y11914D02*
G37*
G36*
X19855Y8846D02*
X19855Y7897D01*
X20804Y7897D01*
X20730Y8172D01*
X20585Y8422D01*
X20381Y8627D01*
X20130Y8772D01*
X19855Y8846D01*
X19855Y8846D02*
G37*
G36*
X19555Y8846D02*
X19281Y8772D01*
X19030Y8627D01*
X18825Y8422D01*
X18680Y8172D01*
X18607Y7897D01*
X19555Y7897D01*
X19555Y8846D01*
X19555Y8846D02*
G37*
G36*
X38821Y7406D02*
X38649Y7406D01*
X38484Y7362D01*
X38336Y7276D01*
X38249Y7189D01*
X36241Y7189D01*
X36154Y7276D01*
X36006Y7362D01*
X35841Y7406D01*
X35669Y7406D01*
X35504Y7362D01*
X35356Y7276D01*
X35235Y7155D01*
X35149Y7007D01*
X35105Y6842D01*
X35105Y6670D01*
X35149Y6505D01*
X35235Y6357D01*
X35356Y6236D01*
X35504Y6150D01*
X35669Y6106D01*
X35841Y6106D01*
X36006Y6150D01*
X36154Y6236D01*
X36241Y6323D01*
X38249Y6323D01*
X38336Y6236D01*
X38484Y6150D01*
X38649Y6106D01*
X38821Y6106D01*
X38986Y6150D01*
X39134Y6236D01*
X39255Y6357D01*
X39341Y6505D01*
X39385Y6670D01*
X39385Y6842D01*
X39341Y7007D01*
X39255Y7155D01*
X39134Y7276D01*
X38986Y7362D01*
X38821Y7406D01*
X38821Y7406D02*
G37*
G36*
X20804Y7597D02*
X19855Y7597D01*
X19855Y6648D01*
X20130Y6722D01*
X20381Y6867D01*
X20585Y7072D01*
X20730Y7322D01*
X20804Y7597D01*
X20804Y7597D02*
G37*
G36*
X19555Y7597D02*
X18607Y7597D01*
X18680Y7322D01*
X18825Y7072D01*
X19030Y6867D01*
X19281Y6722D01*
X19555Y6648D01*
X19555Y7597D01*
X19555Y7597D02*
G37*
G36*
X31309Y8897D02*
X30159Y8897D01*
X29584Y8322D01*
X29584Y7172D01*
X30159Y6597D01*
X31309Y6597D01*
X31884Y7172D01*
X31884Y8322D01*
X31309Y8897D01*
X31309Y8897D02*
G37*
G36*
X28345Y8897D02*
X28043Y8897D01*
X27750Y8819D01*
X27488Y8667D01*
X27274Y8453D01*
X27122Y8191D01*
X27044Y7898D01*
X27044Y7596D01*
X27122Y7303D01*
X27274Y7041D01*
X27488Y6827D01*
X27750Y6675D01*
X28043Y6597D01*
X28345Y6597D01*
X28638Y6675D01*
X28900Y6827D01*
X29114Y7041D01*
X29266Y7303D01*
X29344Y7596D01*
X29344Y7898D01*
X29266Y8191D01*
X29114Y8453D01*
X28900Y8667D01*
X28638Y8819D01*
X28345Y8897D01*
X28345Y8897D02*
G37*
G36*
X25360Y8897D02*
X24210Y8897D01*
X23635Y8322D01*
X23635Y7172D01*
X24210Y6597D01*
X25360Y6597D01*
X25935Y7172D01*
X25935Y8322D01*
X25360Y8897D01*
X25360Y8897D02*
G37*
G36*
X22397Y8897D02*
X22094Y8897D01*
X21801Y8819D01*
X21539Y8667D01*
X21325Y8453D01*
X21174Y8191D01*
X21095Y7898D01*
X21095Y7596D01*
X21174Y7303D01*
X21325Y7041D01*
X21539Y6827D01*
X21801Y6675D01*
X22094Y6597D01*
X22397Y6597D01*
X22689Y6675D01*
X22951Y6827D01*
X23165Y7041D01*
X23317Y7303D01*
X23395Y7596D01*
X23395Y7898D01*
X23317Y8191D01*
X23165Y8453D01*
X22951Y8667D01*
X22689Y8819D01*
X22397Y8897D01*
X22397Y8897D02*
G37*
G36*
X8238Y5919D02*
X8238Y4722D01*
X9435Y4722D01*
X9386Y4966D01*
X9284Y5211D01*
X9137Y5433D01*
X8949Y5621D01*
X8727Y5768D01*
X8482Y5870D01*
X8238Y5919D01*
X8238Y5919D02*
G37*
G36*
X7938Y5919D02*
X7694Y5870D01*
X7449Y5768D01*
X7227Y5621D01*
X7039Y5433D01*
X6892Y5211D01*
X6790Y4966D01*
X6741Y4722D01*
X7938Y4722D01*
X7938Y5919D01*
X7938Y5919D02*
G37*
G36*
X75715Y5544D02*
X75715Y4595D01*
X76664Y4595D01*
X76590Y4870D01*
X76445Y5120D01*
X76240Y5325D01*
X75990Y5470D01*
X75715Y5544D01*
X75715Y5544D02*
G37*
G36*
X75415Y5544D02*
X75140Y5470D01*
X74890Y5325D01*
X74685Y5120D01*
X74540Y4870D01*
X74466Y4595D01*
X75415Y4595D01*
X75415Y5544D01*
X75415Y5544D02*
G37*
G36*
X73175Y5544D02*
X73175Y4595D01*
X74124Y4595D01*
X74050Y4870D01*
X73905Y5120D01*
X73700Y5325D01*
X73450Y5470D01*
X73175Y5544D01*
X73175Y5544D02*
G37*
G36*
X72875Y5544D02*
X72600Y5470D01*
X72350Y5325D01*
X72145Y5120D01*
X72000Y4870D01*
X71926Y4595D01*
X72875Y4595D01*
X72875Y5544D01*
X72875Y5544D02*
G37*
G36*
X19835Y5544D02*
X19835Y4595D01*
X20784Y4595D01*
X20710Y4870D01*
X20565Y5120D01*
X20360Y5325D01*
X20110Y5470D01*
X19835Y5544D01*
X19835Y5544D02*
G37*
G36*
X19535Y5544D02*
X19260Y5470D01*
X19010Y5325D01*
X18805Y5120D01*
X18660Y4870D01*
X18586Y4595D01*
X19535Y4595D01*
X19535Y5544D01*
X19535Y5544D02*
G37*
G36*
X80832Y8250D02*
X80458Y8250D01*
X80091Y8177D01*
X79745Y8034D01*
X79434Y7826D01*
X79169Y7561D01*
X78961Y7250D01*
X78818Y6904D01*
X78745Y6537D01*
X78745Y6163D01*
X78818Y5796D01*
X78961Y5450D01*
X79169Y5139D01*
X79434Y4874D01*
X79745Y4666D01*
X80091Y4523D01*
X80458Y4450D01*
X80832Y4450D01*
X81199Y4523D01*
X81545Y4666D01*
X81856Y4874D01*
X82121Y5139D01*
X82329Y5450D01*
X82472Y5796D01*
X82545Y6163D01*
X82545Y6537D01*
X82472Y6904D01*
X82329Y7250D01*
X82121Y7561D01*
X81856Y7826D01*
X81545Y8034D01*
X81199Y8177D01*
X80832Y8250D01*
X80832Y8250D02*
G37*
G36*
X76664Y4295D02*
X75715Y4295D01*
X75715Y3346D01*
X75990Y3420D01*
X76240Y3565D01*
X76445Y3770D01*
X76590Y4020D01*
X76664Y4295D01*
X76664Y4295D02*
G37*
G36*
X75415Y4295D02*
X74466Y4295D01*
X74540Y4020D01*
X74685Y3770D01*
X74890Y3565D01*
X75140Y3420D01*
X75415Y3346D01*
X75415Y4295D01*
X75415Y4295D02*
G37*
G36*
X74124Y4295D02*
X73175Y4295D01*
X73175Y3346D01*
X73450Y3420D01*
X73700Y3565D01*
X73905Y3770D01*
X74050Y4020D01*
X74124Y4295D01*
X74124Y4295D02*
G37*
G36*
X72875Y4295D02*
X71926Y4295D01*
X72000Y4020D01*
X72145Y3770D01*
X72350Y3565D01*
X72600Y3420D01*
X72875Y3346D01*
X72875Y4295D01*
X72875Y4295D02*
G37*
G36*
X20784Y4295D02*
X19835Y4295D01*
X19835Y3346D01*
X20110Y3420D01*
X20360Y3565D01*
X20565Y3770D01*
X20710Y4020D01*
X20784Y4295D01*
X20784Y4295D02*
G37*
G36*
X19535Y4295D02*
X18586Y4295D01*
X18660Y4020D01*
X18805Y3770D01*
X19010Y3565D01*
X19260Y3420D01*
X19535Y3346D01*
X19535Y4295D01*
X19535Y4295D02*
G37*
G36*
X70636Y5595D02*
X70334Y5595D01*
X70041Y5517D01*
X69779Y5365D01*
X69565Y5151D01*
X69413Y4889D01*
X69335Y4596D01*
X69335Y4294D01*
X69413Y4001D01*
X69565Y3739D01*
X69779Y3525D01*
X70041Y3373D01*
X70334Y3295D01*
X70636Y3295D01*
X70929Y3373D01*
X71191Y3525D01*
X71405Y3739D01*
X71557Y4001D01*
X71635Y4294D01*
X71635Y4596D01*
X71557Y4889D01*
X71405Y5151D01*
X71191Y5365D01*
X70929Y5517D01*
X70636Y5595D01*
X70636Y5595D02*
G37*
G36*
X68096Y5595D02*
X67794Y5595D01*
X67501Y5517D01*
X67239Y5365D01*
X67025Y5151D01*
X66873Y4889D01*
X66795Y4596D01*
X66795Y4294D01*
X66873Y4001D01*
X67025Y3739D01*
X67239Y3525D01*
X67501Y3373D01*
X67794Y3295D01*
X68096Y3295D01*
X68389Y3373D01*
X68651Y3525D01*
X68865Y3739D01*
X69017Y4001D01*
X69095Y4294D01*
X69095Y4596D01*
X69017Y4889D01*
X68865Y5151D01*
X68651Y5365D01*
X68389Y5517D01*
X68096Y5595D01*
X68096Y5595D02*
G37*
G36*
X65556Y5595D02*
X65254Y5595D01*
X64961Y5517D01*
X64699Y5365D01*
X64485Y5151D01*
X64333Y4889D01*
X64255Y4596D01*
X64255Y4294D01*
X64333Y4001D01*
X64485Y3739D01*
X64699Y3525D01*
X64961Y3373D01*
X65254Y3295D01*
X65556Y3295D01*
X65849Y3373D01*
X66111Y3525D01*
X66325Y3739D01*
X66477Y4001D01*
X66555Y4294D01*
X66555Y4596D01*
X66477Y4889D01*
X66325Y5151D01*
X66111Y5365D01*
X65849Y5517D01*
X65556Y5595D01*
X65556Y5595D02*
G37*
G36*
X63016Y5595D02*
X62714Y5595D01*
X62421Y5517D01*
X62159Y5365D01*
X61945Y5151D01*
X61793Y4889D01*
X61715Y4596D01*
X61715Y4294D01*
X61793Y4001D01*
X61945Y3739D01*
X62159Y3525D01*
X62421Y3373D01*
X62714Y3295D01*
X63016Y3295D01*
X63309Y3373D01*
X63571Y3525D01*
X63785Y3739D01*
X63937Y4001D01*
X64015Y4294D01*
X64015Y4596D01*
X63937Y4889D01*
X63785Y5151D01*
X63571Y5365D01*
X63309Y5517D01*
X63016Y5595D01*
X63016Y5595D02*
G37*
G36*
X60476Y5595D02*
X60174Y5595D01*
X59881Y5517D01*
X59619Y5365D01*
X59405Y5151D01*
X59253Y4889D01*
X59175Y4596D01*
X59175Y4294D01*
X59253Y4001D01*
X59405Y3739D01*
X59619Y3525D01*
X59881Y3373D01*
X60174Y3295D01*
X60476Y3295D01*
X60769Y3373D01*
X61031Y3525D01*
X61245Y3739D01*
X61397Y4001D01*
X61475Y4294D01*
X61475Y4596D01*
X61397Y4889D01*
X61245Y5151D01*
X61031Y5365D01*
X60769Y5517D01*
X60476Y5595D01*
X60476Y5595D02*
G37*
G36*
X57936Y5595D02*
X57634Y5595D01*
X57341Y5517D01*
X57079Y5365D01*
X56865Y5151D01*
X56713Y4889D01*
X56635Y4596D01*
X56635Y4294D01*
X56713Y4001D01*
X56865Y3739D01*
X57079Y3525D01*
X57341Y3373D01*
X57634Y3295D01*
X57936Y3295D01*
X58229Y3373D01*
X58491Y3525D01*
X58705Y3739D01*
X58857Y4001D01*
X58935Y4294D01*
X58935Y4596D01*
X58857Y4889D01*
X58705Y5151D01*
X58491Y5365D01*
X58229Y5517D01*
X57936Y5595D01*
X57936Y5595D02*
G37*
G36*
X55396Y5595D02*
X55094Y5595D01*
X54801Y5517D01*
X54539Y5365D01*
X54325Y5151D01*
X54173Y4889D01*
X54095Y4596D01*
X54095Y4294D01*
X54173Y4001D01*
X54325Y3739D01*
X54539Y3525D01*
X54801Y3373D01*
X55094Y3295D01*
X55396Y3295D01*
X55689Y3373D01*
X55951Y3525D01*
X56165Y3739D01*
X56317Y4001D01*
X56395Y4294D01*
X56395Y4596D01*
X56317Y4889D01*
X56165Y5151D01*
X55951Y5365D01*
X55689Y5517D01*
X55396Y5595D01*
X55396Y5595D02*
G37*
G36*
X43270Y8933D02*
X43099Y8933D01*
X42933Y8888D01*
X42785Y8803D01*
X42664Y8682D01*
X42579Y8533D01*
X42534Y8368D01*
X42534Y8197D01*
X42553Y8128D01*
X42398Y8087D01*
X42250Y8001D01*
X42129Y7880D01*
X42043Y7732D01*
X41999Y7567D01*
X41999Y7395D01*
X42001Y7389D01*
X41847Y7189D01*
X40946Y7189D01*
X40859Y7276D01*
X40711Y7362D01*
X40546Y7406D01*
X40374Y7406D01*
X40209Y7362D01*
X40061Y7276D01*
X39940Y7155D01*
X39854Y7007D01*
X39810Y6842D01*
X39810Y6670D01*
X39854Y6505D01*
X39940Y6357D01*
X40061Y6236D01*
X40209Y6150D01*
X40374Y6106D01*
X40546Y6106D01*
X40711Y6150D01*
X40859Y6236D01*
X40946Y6323D01*
X45135Y6323D01*
X46559Y4898D01*
X46553Y4889D01*
X46475Y4596D01*
X46475Y4294D01*
X46553Y4001D01*
X46705Y3739D01*
X46919Y3525D01*
X47181Y3373D01*
X47474Y3295D01*
X47776Y3295D01*
X48069Y3373D01*
X48331Y3525D01*
X48545Y3739D01*
X48697Y4001D01*
X48775Y4294D01*
X48775Y4596D01*
X48697Y4889D01*
X48545Y5151D01*
X48331Y5365D01*
X48069Y5517D01*
X47776Y5595D01*
X47474Y5595D01*
X47181Y5517D01*
X47172Y5511D01*
X45824Y6859D01*
X45900Y7044D01*
X46953Y7044D01*
X49099Y4898D01*
X49093Y4889D01*
X49015Y4596D01*
X49015Y4294D01*
X49093Y4001D01*
X49245Y3739D01*
X49459Y3525D01*
X49721Y3373D01*
X50014Y3295D01*
X50316Y3295D01*
X50609Y3373D01*
X50871Y3525D01*
X51085Y3739D01*
X51237Y4001D01*
X51315Y4294D01*
X51315Y4596D01*
X51237Y4889D01*
X51085Y5151D01*
X50871Y5365D01*
X50609Y5517D01*
X50316Y5595D01*
X50014Y5595D01*
X49721Y5517D01*
X49712Y5511D01*
X47864Y7359D01*
X47940Y7544D01*
X48993Y7544D01*
X51639Y4898D01*
X51633Y4889D01*
X51555Y4596D01*
X51555Y4294D01*
X51633Y4001D01*
X51785Y3739D01*
X51999Y3525D01*
X52261Y3373D01*
X52554Y3295D01*
X52856Y3295D01*
X53149Y3373D01*
X53411Y3525D01*
X53625Y3739D01*
X53777Y4001D01*
X53855Y4294D01*
X53855Y4596D01*
X53777Y4889D01*
X53625Y5151D01*
X53411Y5365D01*
X53149Y5517D01*
X52856Y5595D01*
X52554Y5595D01*
X52261Y5517D01*
X52252Y5511D01*
X49479Y8284D01*
X49339Y8377D01*
X49173Y8410D01*
X43823Y8410D01*
X43790Y8533D01*
X43704Y8682D01*
X43583Y8803D01*
X43435Y8888D01*
X43270Y8933D01*
X43270Y8933D02*
G37*
G36*
X45236Y5595D02*
X44934Y5595D01*
X44641Y5517D01*
X44379Y5365D01*
X44165Y5151D01*
X44013Y4889D01*
X43935Y4596D01*
X43935Y4294D01*
X44013Y4001D01*
X44165Y3739D01*
X44379Y3525D01*
X44641Y3373D01*
X44934Y3295D01*
X45236Y3295D01*
X45529Y3373D01*
X45791Y3525D01*
X46005Y3739D01*
X46157Y4001D01*
X46235Y4294D01*
X46235Y4596D01*
X46157Y4889D01*
X46005Y5151D01*
X45791Y5365D01*
X45529Y5517D01*
X45236Y5595D01*
X45236Y5595D02*
G37*
G36*
X42696Y5595D02*
X42394Y5595D01*
X42101Y5517D01*
X41839Y5365D01*
X41625Y5151D01*
X41473Y4889D01*
X41395Y4596D01*
X41395Y4294D01*
X41473Y4001D01*
X41625Y3739D01*
X41839Y3525D01*
X42101Y3373D01*
X42394Y3295D01*
X42696Y3295D01*
X42989Y3373D01*
X43251Y3525D01*
X43465Y3739D01*
X43617Y4001D01*
X43695Y4294D01*
X43695Y4596D01*
X43617Y4889D01*
X43465Y5151D01*
X43251Y5365D01*
X42989Y5517D01*
X42696Y5595D01*
X42696Y5595D02*
G37*
G36*
X40156Y5595D02*
X39854Y5595D01*
X39561Y5517D01*
X39299Y5365D01*
X39085Y5151D01*
X38933Y4889D01*
X38855Y4596D01*
X38855Y4294D01*
X38933Y4001D01*
X39085Y3739D01*
X39299Y3525D01*
X39561Y3373D01*
X39854Y3295D01*
X40156Y3295D01*
X40449Y3373D01*
X40711Y3525D01*
X40925Y3739D01*
X41077Y4001D01*
X41155Y4294D01*
X41155Y4596D01*
X41077Y4889D01*
X40925Y5151D01*
X40711Y5365D01*
X40449Y5517D01*
X40156Y5595D01*
X40156Y5595D02*
G37*
G36*
X37616Y5595D02*
X37314Y5595D01*
X37021Y5517D01*
X36759Y5365D01*
X36545Y5151D01*
X36393Y4889D01*
X36315Y4596D01*
X36315Y4294D01*
X36393Y4001D01*
X36545Y3739D01*
X36759Y3525D01*
X37021Y3373D01*
X37314Y3295D01*
X37616Y3295D01*
X37909Y3373D01*
X38171Y3525D01*
X38385Y3739D01*
X38537Y4001D01*
X38615Y4294D01*
X38615Y4596D01*
X38537Y4889D01*
X38385Y5151D01*
X38171Y5365D01*
X37909Y5517D01*
X37616Y5595D01*
X37616Y5595D02*
G37*
G36*
X35076Y5595D02*
X34774Y5595D01*
X34481Y5517D01*
X34219Y5365D01*
X34005Y5151D01*
X33853Y4889D01*
X33775Y4596D01*
X33775Y4294D01*
X33853Y4001D01*
X34005Y3739D01*
X34219Y3525D01*
X34481Y3373D01*
X34774Y3295D01*
X35076Y3295D01*
X35369Y3373D01*
X35631Y3525D01*
X35845Y3739D01*
X35997Y4001D01*
X36075Y4294D01*
X36075Y4596D01*
X35997Y4889D01*
X35845Y5151D01*
X35631Y5365D01*
X35369Y5517D01*
X35076Y5595D01*
X35076Y5595D02*
G37*
G36*
X32536Y5595D02*
X32234Y5595D01*
X31941Y5517D01*
X31679Y5365D01*
X31465Y5151D01*
X31313Y4889D01*
X31235Y4596D01*
X31235Y4294D01*
X31313Y4001D01*
X31465Y3739D01*
X31679Y3525D01*
X31941Y3373D01*
X32234Y3295D01*
X32536Y3295D01*
X32829Y3373D01*
X33091Y3525D01*
X33305Y3739D01*
X33457Y4001D01*
X33535Y4294D01*
X33535Y4596D01*
X33457Y4889D01*
X33305Y5151D01*
X33091Y5365D01*
X32829Y5517D01*
X32536Y5595D01*
X32536Y5595D02*
G37*
G36*
X29996Y5595D02*
X29694Y5595D01*
X29401Y5517D01*
X29139Y5365D01*
X28925Y5151D01*
X28773Y4889D01*
X28695Y4596D01*
X28695Y4294D01*
X28773Y4001D01*
X28925Y3739D01*
X29139Y3525D01*
X29401Y3373D01*
X29694Y3295D01*
X29996Y3295D01*
X30289Y3373D01*
X30551Y3525D01*
X30765Y3739D01*
X30917Y4001D01*
X30995Y4294D01*
X30995Y4596D01*
X30917Y4889D01*
X30765Y5151D01*
X30551Y5365D01*
X30289Y5517D01*
X29996Y5595D01*
X29996Y5595D02*
G37*
G36*
X27456Y5595D02*
X27154Y5595D01*
X26861Y5517D01*
X26599Y5365D01*
X26385Y5151D01*
X26233Y4889D01*
X26155Y4596D01*
X26155Y4294D01*
X26233Y4001D01*
X26385Y3739D01*
X26599Y3525D01*
X26861Y3373D01*
X27154Y3295D01*
X27456Y3295D01*
X27749Y3373D01*
X28011Y3525D01*
X28225Y3739D01*
X28377Y4001D01*
X28455Y4294D01*
X28455Y4596D01*
X28377Y4889D01*
X28225Y5151D01*
X28011Y5365D01*
X27749Y5517D01*
X27456Y5595D01*
X27456Y5595D02*
G37*
G36*
X24916Y5595D02*
X24614Y5595D01*
X24321Y5517D01*
X24059Y5365D01*
X23845Y5151D01*
X23693Y4889D01*
X23615Y4596D01*
X23615Y4294D01*
X23693Y4001D01*
X23845Y3739D01*
X24059Y3525D01*
X24321Y3373D01*
X24614Y3295D01*
X24916Y3295D01*
X25209Y3373D01*
X25471Y3525D01*
X25685Y3739D01*
X25837Y4001D01*
X25915Y4294D01*
X25915Y4596D01*
X25837Y4889D01*
X25685Y5151D01*
X25471Y5365D01*
X25209Y5517D01*
X24916Y5595D01*
X24916Y5595D02*
G37*
G36*
X22376Y5595D02*
X22074Y5595D01*
X21781Y5517D01*
X21519Y5365D01*
X21305Y5151D01*
X21153Y4889D01*
X21075Y4596D01*
X21075Y4294D01*
X21153Y4001D01*
X21305Y3739D01*
X21519Y3525D01*
X21781Y3373D01*
X22074Y3295D01*
X22376Y3295D01*
X22669Y3373D01*
X22931Y3525D01*
X23145Y3739D01*
X23297Y4001D01*
X23375Y4294D01*
X23375Y4596D01*
X23297Y4889D01*
X23145Y5151D01*
X22931Y5365D01*
X22669Y5517D01*
X22376Y5595D01*
X22376Y5595D02*
G37*
G36*
X9435Y4422D02*
X8238Y4422D01*
X8238Y3225D01*
X8482Y3274D01*
X8727Y3376D01*
X8949Y3523D01*
X9137Y3711D01*
X9284Y3933D01*
X9386Y4178D01*
X9435Y4422D01*
X9435Y4422D02*
G37*
G36*
X7938Y4422D02*
X6741Y4422D01*
X6790Y4178D01*
X6892Y3933D01*
X7039Y3711D01*
X7227Y3523D01*
X7449Y3376D01*
X7694Y3274D01*
X7938Y3225D01*
X7938Y4422D01*
X7938Y4422D02*
G37*
G36*
X3226Y5972D02*
X2950Y5972D01*
X2680Y5918D01*
X2425Y5813D01*
X2196Y5659D01*
X2001Y5464D01*
X1847Y5235D01*
X1742Y4980D01*
X1688Y4710D01*
X1688Y4434D01*
X1742Y4164D01*
X1847Y3909D01*
X2001Y3680D01*
X2196Y3485D01*
X2425Y3331D01*
X2680Y3226D01*
X2950Y3172D01*
X3226Y3172D01*
X3496Y3226D01*
X3751Y3331D01*
X3980Y3485D01*
X4175Y3680D01*
X4329Y3909D01*
X4434Y4164D01*
X4488Y4434D01*
X4488Y4710D01*
X4434Y4980D01*
X4329Y5235D01*
X4175Y5464D01*
X3980Y5659D01*
X3751Y5813D01*
X3496Y5918D01*
X3226Y5972D01*
X3226Y5972D02*
G37*
G36*
X75715Y3004D02*
X75715Y2055D01*
X76664Y2055D01*
X76590Y2330D01*
X76445Y2580D01*
X76240Y2785D01*
X75990Y2930D01*
X75715Y3004D01*
X75715Y3004D02*
G37*
G36*
X75415Y3004D02*
X75140Y2930D01*
X74890Y2785D01*
X74685Y2580D01*
X74540Y2330D01*
X74466Y2055D01*
X75415Y2055D01*
X75415Y3004D01*
X75415Y3004D02*
G37*
G36*
X73175Y3004D02*
X73175Y2055D01*
X74124Y2055D01*
X74050Y2330D01*
X73905Y2580D01*
X73700Y2785D01*
X73450Y2930D01*
X73175Y3004D01*
X73175Y3004D02*
G37*
G36*
X72875Y3004D02*
X72600Y2930D01*
X72350Y2785D01*
X72145Y2580D01*
X72000Y2330D01*
X71926Y2055D01*
X72875Y2055D01*
X72875Y3004D01*
X72875Y3004D02*
G37*
G36*
X20235Y3005D02*
X19835Y3005D01*
X19835Y2055D01*
X20785Y2055D01*
X20785Y2455D01*
X20235Y3005D01*
X20235Y3005D02*
G37*
G36*
X19535Y3005D02*
X19135Y3005D01*
X18585Y2455D01*
X18585Y2055D01*
X19535Y2055D01*
X19535Y3005D01*
X19535Y3005D02*
G37*
G36*
X14792Y5075D02*
X14418Y5075D01*
X14051Y5002D01*
X13705Y4859D01*
X13394Y4651D01*
X13129Y4386D01*
X12921Y4075D01*
X12778Y3729D01*
X12705Y3362D01*
X12705Y2988D01*
X12778Y2621D01*
X12921Y2275D01*
X13129Y1964D01*
X13394Y1699D01*
X13705Y1491D01*
X14051Y1348D01*
X14418Y1275D01*
X14792Y1275D01*
X15159Y1348D01*
X15505Y1491D01*
X15816Y1699D01*
X16081Y1964D01*
X16289Y2275D01*
X16432Y2621D01*
X16505Y2988D01*
X16505Y3362D01*
X16432Y3729D01*
X16289Y4075D01*
X16081Y4386D01*
X15816Y4651D01*
X15505Y4859D01*
X15159Y5002D01*
X14792Y5075D01*
X14792Y5075D02*
G37*
G36*
X74124Y1755D02*
X73175Y1755D01*
X73175Y806D01*
X73450Y880D01*
X73700Y1025D01*
X73905Y1230D01*
X74050Y1480D01*
X74124Y1755D01*
X74124Y1755D02*
G37*
G36*
X72875Y1755D02*
X71926Y1755D01*
X72000Y1480D01*
X72145Y1230D01*
X72350Y1025D01*
X72600Y880D01*
X72875Y806D01*
X72875Y1755D01*
X72875Y1755D02*
G37*
G36*
X20785Y1755D02*
X19835Y1755D01*
X19835Y805D01*
X20235Y805D01*
X20785Y1355D01*
X20785Y1755D01*
X20785Y1755D02*
G37*
G36*
X19535Y1755D02*
X18585Y1755D01*
X18585Y1355D01*
X19135Y805D01*
X19535Y805D01*
X19535Y1755D01*
X19535Y1755D02*
G37*
G36*
X70636Y3055D02*
X70334Y3055D01*
X70041Y2977D01*
X69779Y2825D01*
X69565Y2611D01*
X69413Y2349D01*
X69335Y2056D01*
X69335Y1754D01*
X69413Y1461D01*
X69565Y1199D01*
X69779Y985D01*
X70041Y833D01*
X70334Y755D01*
X70636Y755D01*
X70929Y833D01*
X71191Y985D01*
X71405Y1199D01*
X71557Y1461D01*
X71635Y1754D01*
X71635Y2056D01*
X71557Y2349D01*
X71405Y2611D01*
X71191Y2825D01*
X70929Y2977D01*
X70636Y3055D01*
X70636Y3055D02*
G37*
G36*
X68096Y3055D02*
X67794Y3055D01*
X67501Y2977D01*
X67239Y2825D01*
X67025Y2611D01*
X66873Y2349D01*
X66795Y2056D01*
X66795Y1754D01*
X66873Y1461D01*
X67025Y1199D01*
X67239Y985D01*
X67501Y833D01*
X67794Y755D01*
X68096Y755D01*
X68389Y833D01*
X68651Y985D01*
X68865Y1199D01*
X69017Y1461D01*
X69095Y1754D01*
X69095Y2056D01*
X69017Y2349D01*
X68865Y2611D01*
X68651Y2825D01*
X68389Y2977D01*
X68096Y3055D01*
X68096Y3055D02*
G37*
G36*
X65556Y3055D02*
X65254Y3055D01*
X64961Y2977D01*
X64699Y2825D01*
X64485Y2611D01*
X64333Y2349D01*
X64255Y2056D01*
X64255Y1754D01*
X64333Y1461D01*
X64485Y1199D01*
X64699Y985D01*
X64961Y833D01*
X65254Y755D01*
X65556Y755D01*
X65849Y833D01*
X66111Y985D01*
X66325Y1199D01*
X66477Y1461D01*
X66555Y1754D01*
X66555Y2056D01*
X66477Y2349D01*
X66325Y2611D01*
X66111Y2825D01*
X65849Y2977D01*
X65556Y3055D01*
X65556Y3055D02*
G37*
G36*
X63016Y3055D02*
X62714Y3055D01*
X62421Y2977D01*
X62159Y2825D01*
X61945Y2611D01*
X61793Y2349D01*
X61715Y2056D01*
X61715Y1754D01*
X61793Y1461D01*
X61945Y1199D01*
X62159Y985D01*
X62421Y833D01*
X62714Y755D01*
X63016Y755D01*
X63309Y833D01*
X63571Y985D01*
X63785Y1199D01*
X63937Y1461D01*
X64015Y1754D01*
X64015Y2056D01*
X63937Y2349D01*
X63785Y2611D01*
X63571Y2825D01*
X63309Y2977D01*
X63016Y3055D01*
X63016Y3055D02*
G37*
G36*
X60476Y3055D02*
X60174Y3055D01*
X59881Y2977D01*
X59619Y2825D01*
X59405Y2611D01*
X59253Y2349D01*
X59175Y2056D01*
X59175Y1754D01*
X59253Y1461D01*
X59405Y1199D01*
X59619Y985D01*
X59881Y833D01*
X60174Y755D01*
X60476Y755D01*
X60769Y833D01*
X61031Y985D01*
X61245Y1199D01*
X61397Y1461D01*
X61475Y1754D01*
X61475Y2056D01*
X61397Y2349D01*
X61245Y2611D01*
X61031Y2825D01*
X60769Y2977D01*
X60476Y3055D01*
X60476Y3055D02*
G37*
G36*
X57936Y3055D02*
X57634Y3055D01*
X57341Y2977D01*
X57079Y2825D01*
X56865Y2611D01*
X56713Y2349D01*
X56635Y2056D01*
X56635Y1754D01*
X56713Y1461D01*
X56865Y1199D01*
X57079Y985D01*
X57341Y833D01*
X57634Y755D01*
X57936Y755D01*
X58229Y833D01*
X58491Y985D01*
X58705Y1199D01*
X58857Y1461D01*
X58935Y1754D01*
X58935Y2056D01*
X58857Y2349D01*
X58705Y2611D01*
X58491Y2825D01*
X58229Y2977D01*
X57936Y3055D01*
X57936Y3055D02*
G37*
G36*
X55396Y3055D02*
X55094Y3055D01*
X54801Y2977D01*
X54539Y2825D01*
X54325Y2611D01*
X54173Y2349D01*
X54095Y2056D01*
X54095Y1754D01*
X54173Y1461D01*
X54325Y1199D01*
X54539Y985D01*
X54801Y833D01*
X55094Y755D01*
X55396Y755D01*
X55689Y833D01*
X55951Y985D01*
X56165Y1199D01*
X56317Y1461D01*
X56395Y1754D01*
X56395Y2056D01*
X56317Y2349D01*
X56165Y2611D01*
X55951Y2825D01*
X55689Y2977D01*
X55396Y3055D01*
X55396Y3055D02*
G37*
G36*
X52856Y3055D02*
X52554Y3055D01*
X52261Y2977D01*
X51999Y2825D01*
X51785Y2611D01*
X51633Y2349D01*
X51555Y2056D01*
X51555Y1754D01*
X51633Y1461D01*
X51785Y1199D01*
X51999Y985D01*
X52261Y833D01*
X52554Y755D01*
X52856Y755D01*
X53149Y833D01*
X53411Y985D01*
X53625Y1199D01*
X53777Y1461D01*
X53855Y1754D01*
X53855Y2056D01*
X53777Y2349D01*
X53625Y2611D01*
X53411Y2825D01*
X53149Y2977D01*
X52856Y3055D01*
X52856Y3055D02*
G37*
G36*
X50316Y3055D02*
X50014Y3055D01*
X49721Y2977D01*
X49459Y2825D01*
X49245Y2611D01*
X49093Y2349D01*
X49015Y2056D01*
X49015Y1754D01*
X49093Y1461D01*
X49245Y1199D01*
X49459Y985D01*
X49721Y833D01*
X50014Y755D01*
X50316Y755D01*
X50609Y833D01*
X50871Y985D01*
X51085Y1199D01*
X51237Y1461D01*
X51315Y1754D01*
X51315Y2056D01*
X51237Y2349D01*
X51085Y2611D01*
X50871Y2825D01*
X50609Y2977D01*
X50316Y3055D01*
X50316Y3055D02*
G37*
G36*
X47776Y3055D02*
X47474Y3055D01*
X47181Y2977D01*
X46919Y2825D01*
X46705Y2611D01*
X46553Y2349D01*
X46475Y2056D01*
X46475Y1754D01*
X46553Y1461D01*
X46705Y1199D01*
X46919Y985D01*
X47181Y833D01*
X47474Y755D01*
X47776Y755D01*
X48069Y833D01*
X48331Y985D01*
X48545Y1199D01*
X48697Y1461D01*
X48775Y1754D01*
X48775Y2056D01*
X48697Y2349D01*
X48545Y2611D01*
X48331Y2825D01*
X48069Y2977D01*
X47776Y3055D01*
X47776Y3055D02*
G37*
G36*
X45236Y3055D02*
X44934Y3055D01*
X44641Y2977D01*
X44379Y2825D01*
X44165Y2611D01*
X44013Y2349D01*
X43935Y2056D01*
X43935Y1754D01*
X44013Y1461D01*
X44165Y1199D01*
X44379Y985D01*
X44641Y833D01*
X44934Y755D01*
X45236Y755D01*
X45529Y833D01*
X45791Y985D01*
X46005Y1199D01*
X46157Y1461D01*
X46235Y1754D01*
X46235Y2056D01*
X46157Y2349D01*
X46005Y2611D01*
X45791Y2825D01*
X45529Y2977D01*
X45236Y3055D01*
X45236Y3055D02*
G37*
G36*
X42696Y3055D02*
X42394Y3055D01*
X42101Y2977D01*
X41839Y2825D01*
X41625Y2611D01*
X41473Y2349D01*
X41395Y2056D01*
X41395Y1754D01*
X41473Y1461D01*
X41625Y1199D01*
X41839Y985D01*
X42101Y833D01*
X42394Y755D01*
X42696Y755D01*
X42989Y833D01*
X43251Y985D01*
X43465Y1199D01*
X43617Y1461D01*
X43695Y1754D01*
X43695Y2056D01*
X43617Y2349D01*
X43465Y2611D01*
X43251Y2825D01*
X42989Y2977D01*
X42696Y3055D01*
X42696Y3055D02*
G37*
G36*
X40156Y3055D02*
X39854Y3055D01*
X39561Y2977D01*
X39299Y2825D01*
X39085Y2611D01*
X38933Y2349D01*
X38855Y2056D01*
X38855Y1754D01*
X38933Y1461D01*
X39085Y1199D01*
X39299Y985D01*
X39561Y833D01*
X39854Y755D01*
X40156Y755D01*
X40449Y833D01*
X40711Y985D01*
X40925Y1199D01*
X41077Y1461D01*
X41155Y1754D01*
X41155Y2056D01*
X41077Y2349D01*
X40925Y2611D01*
X40711Y2825D01*
X40449Y2977D01*
X40156Y3055D01*
X40156Y3055D02*
G37*
G36*
X37616Y3055D02*
X37314Y3055D01*
X37021Y2977D01*
X36759Y2825D01*
X36545Y2611D01*
X36393Y2349D01*
X36315Y2056D01*
X36315Y1754D01*
X36393Y1461D01*
X36545Y1199D01*
X36759Y985D01*
X37021Y833D01*
X37314Y755D01*
X37616Y755D01*
X37909Y833D01*
X38171Y985D01*
X38385Y1199D01*
X38537Y1461D01*
X38615Y1754D01*
X38615Y2056D01*
X38537Y2349D01*
X38385Y2611D01*
X38171Y2825D01*
X37909Y2977D01*
X37616Y3055D01*
X37616Y3055D02*
G37*
G36*
X35076Y3055D02*
X34774Y3055D01*
X34481Y2977D01*
X34219Y2825D01*
X34005Y2611D01*
X33853Y2349D01*
X33775Y2056D01*
X33775Y1754D01*
X33853Y1461D01*
X34005Y1199D01*
X34219Y985D01*
X34481Y833D01*
X34774Y755D01*
X35076Y755D01*
X35369Y833D01*
X35631Y985D01*
X35845Y1199D01*
X35997Y1461D01*
X36075Y1754D01*
X36075Y2056D01*
X35997Y2349D01*
X35845Y2611D01*
X35631Y2825D01*
X35369Y2977D01*
X35076Y3055D01*
X35076Y3055D02*
G37*
G36*
X32536Y3055D02*
X32234Y3055D01*
X31941Y2977D01*
X31679Y2825D01*
X31465Y2611D01*
X31313Y2349D01*
X31235Y2056D01*
X31235Y1754D01*
X31313Y1461D01*
X31465Y1199D01*
X31679Y985D01*
X31941Y833D01*
X32234Y755D01*
X32536Y755D01*
X32829Y833D01*
X33091Y985D01*
X33305Y1199D01*
X33457Y1461D01*
X33535Y1754D01*
X33535Y2056D01*
X33457Y2349D01*
X33305Y2611D01*
X33091Y2825D01*
X32829Y2977D01*
X32536Y3055D01*
X32536Y3055D02*
G37*
G36*
X29996Y3055D02*
X29694Y3055D01*
X29401Y2977D01*
X29139Y2825D01*
X28925Y2611D01*
X28773Y2349D01*
X28695Y2056D01*
X28695Y1754D01*
X28773Y1461D01*
X28925Y1199D01*
X29139Y985D01*
X29401Y833D01*
X29694Y755D01*
X29996Y755D01*
X30289Y833D01*
X30551Y985D01*
X30765Y1199D01*
X30917Y1461D01*
X30995Y1754D01*
X30995Y2056D01*
X30917Y2349D01*
X30765Y2611D01*
X30551Y2825D01*
X30289Y2977D01*
X29996Y3055D01*
X29996Y3055D02*
G37*
G36*
X27456Y3055D02*
X27154Y3055D01*
X26861Y2977D01*
X26599Y2825D01*
X26385Y2611D01*
X26233Y2349D01*
X26155Y2056D01*
X26155Y1754D01*
X26233Y1461D01*
X26385Y1199D01*
X26599Y985D01*
X26861Y833D01*
X27154Y755D01*
X27456Y755D01*
X27749Y833D01*
X28011Y985D01*
X28225Y1199D01*
X28377Y1461D01*
X28455Y1754D01*
X28455Y2056D01*
X28377Y2349D01*
X28225Y2611D01*
X28011Y2825D01*
X27749Y2977D01*
X27456Y3055D01*
X27456Y3055D02*
G37*
G36*
X24916Y3055D02*
X24614Y3055D01*
X24321Y2977D01*
X24059Y2825D01*
X23845Y2611D01*
X23693Y2349D01*
X23615Y2056D01*
X23615Y1754D01*
X23693Y1461D01*
X23845Y1199D01*
X24059Y985D01*
X24321Y833D01*
X24614Y755D01*
X24916Y755D01*
X25209Y833D01*
X25471Y985D01*
X25685Y1199D01*
X25837Y1461D01*
X25915Y1754D01*
X25915Y2056D01*
X25837Y2349D01*
X25685Y2611D01*
X25471Y2825D01*
X25209Y2977D01*
X24916Y3055D01*
X24916Y3055D02*
G37*
G36*
X22376Y3055D02*
X22074Y3055D01*
X21781Y2977D01*
X21519Y2825D01*
X21305Y2611D01*
X21153Y2349D01*
X21075Y2056D01*
X21075Y1754D01*
X21153Y1461D01*
X21305Y1199D01*
X21519Y985D01*
X21781Y833D01*
X22074Y755D01*
X22376Y755D01*
X22669Y833D01*
X22931Y985D01*
X23145Y1199D01*
X23297Y1461D01*
X23375Y1754D01*
X23375Y2056D01*
X23297Y2349D01*
X23145Y2611D01*
X22931Y2825D01*
X22669Y2977D01*
X22376Y3055D01*
X22376Y3055D02*
G37*
%LPD*%
D10*
X42649Y7481D02*
X42653Y7477D01*
X40460Y6756D02*
X45314Y6756D01*
X47625Y4445D01*
X35755Y6756D02*
X38735Y6756D01*
X47133Y7477D02*
X50165Y4445D01*
X42653Y7477D02*
X47133Y7477D01*
X40194Y26915D02*
X41275Y27996D01*
X41275Y31496D02*
X42545Y32766D01*
X41275Y27996D02*
X41275Y31496D01*
X38735Y24458D02*
X38735Y31496D01*
X40005Y32766D01*
X41169Y24458D02*
X41169Y27134D01*
X43815Y29780D01*
X40194Y24458D02*
X40194Y26915D01*
X43815Y31496D02*
X45085Y32766D01*
X43815Y29780D02*
X43815Y31496D01*
X35369Y24866D02*
X37205Y24866D01*
X44207Y26035D02*
X47879Y26035D01*
X19514Y18998D02*
X19762Y19246D01*
X20809Y19246D01*
X19514Y11648D02*
X19660Y11501D01*
X19514Y11648D02*
X19514Y18998D01*
X19660Y11501D02*
X21747Y11501D01*
X43490Y7977D02*
X49173Y7977D01*
X43184Y8283D02*
X43490Y7977D01*
X49173Y7977D02*
X52705Y4445D01*
X57785Y52705D02*
X59038Y51452D01*
X69260Y51480D02*
X70485Y52705D01*
X71710Y49658D02*
X71710Y51763D01*
X72652Y52705D02*
X73025Y52705D01*
X71710Y51763D02*
X72652Y52705D01*
X70992Y48940D02*
X71710Y49658D01*
X69645Y48940D02*
X70992Y48940D01*
X73660Y32766D02*
X73660Y34924D01*
X66978Y36996D02*
X71588Y36996D01*
X67867Y35205D02*
X68580Y34492D01*
X69659Y36005D02*
X71120Y34544D01*
X68580Y32766D02*
X68580Y34492D01*
X71588Y36996D02*
X73660Y34924D01*
X66978Y36005D02*
X69659Y36005D01*
X71120Y32766D02*
X71120Y34544D01*
X66437Y35205D02*
X67867Y35205D01*
X58420Y35687D02*
X62992Y35687D01*
X68147Y48635D02*
X69260Y49748D01*
X66675Y48641D02*
X66675Y51435D01*
X69260Y49748D02*
X69260Y51480D01*
X64090Y48635D02*
X64090Y50672D01*
X67743Y48635D02*
X68147Y48635D01*
X66675Y46990D02*
X66675Y47567D01*
X67743Y48635D01*
X66040Y48006D02*
X66675Y48641D01*
X64090Y48635D02*
X64269Y48456D01*
X64269Y48007D02*
X64269Y48456D01*
X64269Y48007D02*
X64270Y48006D01*
X66675Y51435D02*
X67945Y52705D01*
X59038Y51452D02*
X63311Y51452D01*
X67695Y46990D02*
X69645Y48940D01*
X63311Y51452D02*
X64090Y50672D01*
D15*
X41400Y-164500D02*
X41400Y-159420D01*
X-22100Y-104175D02*
X-17020Y-104175D01*
X-22100Y-43850D02*
X-17020Y-43850D01*
X-22100Y16475D02*
X-17020Y16475D01*
X104900Y-164500D02*
X104900Y-159420D01*
X168400Y-164500D02*
X168400Y-159420D01*
X231900Y-164500D02*
X231900Y-159420D01*
X295400Y-164500D02*
X295400Y-159420D01*
X353820Y-104175D02*
X358900Y-104175D01*
X353820Y-43850D02*
X358900Y-43850D01*
X353820Y16475D02*
X358900Y16475D01*
X41400Y71720D02*
X41400Y76800D01*
X104900Y71720D02*
X104900Y76800D01*
X168400Y71720D02*
X168400Y76800D01*
X231900Y71720D02*
X231900Y76800D01*
X295400Y71720D02*
X295400Y76800D01*
D16*
X327582Y-161198D02*
X327497Y-161029D01*
X327243Y-160944D01*
X327074Y-160944D01*
X326820Y-161029D01*
X326650Y-161283D01*
X326566Y-161706D01*
X326566Y-162129D01*
X326650Y-162468D01*
X326820Y-162637D01*
X327074Y-162722D01*
X327158Y-162722D01*
X327412Y-162637D01*
X327582Y-162468D01*
X327666Y-162214D01*
X327666Y-162129D01*
X327582Y-161876D01*
X327412Y-161706D01*
X327158Y-161622D01*
X327074Y-161622D01*
X326820Y-161706D01*
X326650Y-161876D01*
X326566Y-162129D01*
X263955Y-160944D02*
X263108Y-160944D01*
X263023Y-161706D01*
X263108Y-161622D01*
X263362Y-161537D01*
X263616Y-161537D01*
X263870Y-161622D01*
X264039Y-161791D01*
X264124Y-162045D01*
X264124Y-162214D01*
X264039Y-162468D01*
X263870Y-162637D01*
X263616Y-162722D01*
X263362Y-162722D01*
X263108Y-162637D01*
X263023Y-162553D01*
X262939Y-162383D01*
X200311Y-160944D02*
X199464Y-162129D01*
X200734Y-162129D01*
X200311Y-160944D02*
X200311Y-162722D01*
X135964Y-160944D02*
X136896Y-160944D01*
X136388Y-161622D01*
X136642Y-161622D01*
X136811Y-161706D01*
X136896Y-161791D01*
X136980Y-162045D01*
X136980Y-162214D01*
X136896Y-162468D01*
X136726Y-162637D01*
X136472Y-162722D01*
X136218Y-162722D01*
X135964Y-162637D01*
X135880Y-162553D01*
X135795Y-162383D01*
X72650Y-161368D02*
X72650Y-161283D01*
X72735Y-161114D01*
X72820Y-161029D01*
X72989Y-160944D01*
X73328Y-160944D01*
X73497Y-161029D01*
X73582Y-161114D01*
X73666Y-161283D01*
X73666Y-161452D01*
X73582Y-161622D01*
X73412Y-161876D01*
X72566Y-162722D01*
X73751Y-162722D01*
X9176Y-161283D02*
X9345Y-161198D01*
X9599Y-160944D01*
X9599Y-162722D01*
X-20195Y-134732D02*
X-20195Y-136509D01*
X-20195Y-134732D02*
X-19602Y-134732D01*
X-19348Y-134816D01*
X-19179Y-134986D01*
X-19095Y-135155D01*
X-19010Y-135409D01*
X-19010Y-135832D01*
X-19095Y-136086D01*
X-19179Y-136255D01*
X-19348Y-136425D01*
X-19602Y-136509D01*
X-20195Y-136509D01*
X-18925Y-74957D02*
X-19010Y-74788D01*
X-19179Y-74618D01*
X-19348Y-74534D01*
X-19687Y-74534D01*
X-19856Y-74618D01*
X-20026Y-74788D01*
X-20110Y-74957D01*
X-20195Y-75211D01*
X-20195Y-75634D01*
X-20110Y-75888D01*
X-20026Y-76057D01*
X-19856Y-76227D01*
X-19687Y-76311D01*
X-19348Y-76311D01*
X-19179Y-76227D01*
X-19010Y-76057D01*
X-18925Y-75888D01*
X-20195Y-14209D02*
X-20195Y-15986D01*
X-20195Y-14209D02*
X-19433Y-14209D01*
X-19179Y-14293D01*
X-19095Y-14378D01*
X-19010Y-14547D01*
X-19010Y-14716D01*
X-19095Y-14886D01*
X-19179Y-14970D01*
X-19433Y-15055D01*
X-20195Y-15055D02*
X-19433Y-15055D01*
X-19179Y-15140D01*
X-19095Y-15224D01*
X-19010Y-15394D01*
X-19010Y-15648D01*
X-19095Y-15817D01*
X-19179Y-15902D01*
X-19433Y-15986D01*
X-20195Y-15986D01*
X355725Y-134732D02*
X355725Y-136509D01*
X355725Y-134732D02*
X356318Y-134732D01*
X356572Y-134816D01*
X356741Y-134986D01*
X356825Y-135155D01*
X356910Y-135409D01*
X356910Y-135832D01*
X356825Y-136086D01*
X356741Y-136255D01*
X356572Y-136425D01*
X356318Y-136509D01*
X355725Y-136509D01*
X356995Y-74957D02*
X356910Y-74788D01*
X356741Y-74618D01*
X356572Y-74534D01*
X356233Y-74534D01*
X356064Y-74618D01*
X355894Y-74788D01*
X355810Y-74957D01*
X355725Y-75211D01*
X355725Y-75634D01*
X355810Y-75888D01*
X355894Y-76057D01*
X356064Y-76227D01*
X356233Y-76311D01*
X356572Y-76311D01*
X356741Y-76227D01*
X356910Y-76057D01*
X356995Y-75888D01*
X355725Y-14209D02*
X355725Y-15986D01*
X355725Y-14209D02*
X356487Y-14209D01*
X356741Y-14293D01*
X356825Y-14378D01*
X356910Y-14547D01*
X356910Y-14716D01*
X356825Y-14886D01*
X356741Y-14970D01*
X356487Y-15055D01*
X355725Y-15055D02*
X356487Y-15055D01*
X356741Y-15140D01*
X356825Y-15224D01*
X356910Y-15394D01*
X356910Y-15648D01*
X356825Y-15817D01*
X356741Y-15902D01*
X356487Y-15986D01*
X355725Y-15986D01*
X357079Y44466D02*
X356402Y46243D01*
X355725Y44466D01*
X355979Y45058D02*
X356825Y45058D01*
X263955Y75276D02*
X263108Y75276D01*
X263023Y74514D01*
X263108Y74598D01*
X263362Y74683D01*
X263616Y74683D01*
X263870Y74598D01*
X264039Y74429D01*
X264124Y74175D01*
X264124Y74006D01*
X264039Y73752D01*
X263870Y73583D01*
X263616Y73498D01*
X263362Y73498D01*
X263108Y73583D01*
X263023Y73667D01*
X262939Y73837D01*
X200311Y75276D02*
X199464Y74091D01*
X200734Y74091D01*
X200311Y75276D02*
X200311Y73498D01*
X135964Y75276D02*
X136896Y75276D01*
X136388Y74598D01*
X136642Y74598D01*
X136811Y74514D01*
X136896Y74429D01*
X136980Y74175D01*
X136980Y74006D01*
X136896Y73752D01*
X136726Y73583D01*
X136472Y73498D01*
X136218Y73498D01*
X135964Y73583D01*
X135880Y73667D01*
X135795Y73837D01*
X72650Y74852D02*
X72650Y74937D01*
X72735Y75106D01*
X72820Y75191D01*
X72989Y75276D01*
X73328Y75276D01*
X73497Y75191D01*
X73582Y75106D01*
X73666Y74937D01*
X73666Y74768D01*
X73582Y74598D01*
X73412Y74344D01*
X72566Y73498D01*
X73751Y73498D01*
D44*
X75565Y52705D02*
D03*
X75565Y50165D02*
D03*
X73025Y52705D02*
D03*
X73025Y50165D02*
D03*
X70485Y52705D02*
D03*
X70485Y50165D02*
D03*
X67945Y52705D02*
D03*
X67945Y50165D02*
D03*
X65405Y52705D02*
D03*
X65405Y50165D02*
D03*
X62865Y52705D02*
D03*
X62865Y50165D02*
D03*
X60325Y52705D02*
D03*
X60325Y50165D02*
D03*
X57785Y52705D02*
D03*
X57785Y50165D02*
D03*
X55245Y52705D02*
D03*
X55245Y50165D02*
D03*
X52705Y52705D02*
D03*
X52705Y50165D02*
D03*
X50165Y52705D02*
D03*
X50165Y50165D02*
D03*
X47625Y52705D02*
D03*
X47625Y50165D02*
D03*
X45085Y52705D02*
D03*
X45085Y50165D02*
D03*
X42545Y52705D02*
D03*
X42545Y50165D02*
D03*
X40005Y52705D02*
D03*
X40005Y50165D02*
D03*
X37465Y52705D02*
D03*
X37465Y50165D02*
D03*
X34925Y52705D02*
D03*
X34925Y50165D02*
D03*
X32385Y52705D02*
D03*
X32385Y50165D02*
D03*
X29845Y52705D02*
D03*
X29845Y50165D02*
D03*
X27305Y52705D02*
D03*
X27305Y50165D02*
D03*
X22225Y52705D02*
D03*
X22225Y50165D02*
D03*
X19685Y52705D02*
D03*
X24765Y50165D02*
D03*
X24765Y52705D02*
D03*
X64770Y24003D02*
D03*
X67310Y24003D02*
D03*
X36120Y38989D02*
D03*
X38660Y38989D02*
D03*
X42545Y47117D02*
D03*
X40005Y47117D02*
D03*
X34925Y47117D02*
D03*
X29845Y47117D02*
D03*
X19685Y47117D02*
D03*
X32385Y47117D02*
D03*
X22225Y47117D02*
D03*
X37465Y47117D02*
D03*
X17145Y47117D02*
D03*
X24765Y47117D02*
D03*
X27305Y47117D02*
D03*
X75565Y4445D02*
D03*
X75565Y1905D02*
D03*
X73025Y4445D02*
D03*
X73025Y1905D02*
D03*
X70485Y4445D02*
D03*
X70485Y1905D02*
D03*
X67945Y4445D02*
D03*
X67945Y1905D02*
D03*
X65405Y4445D02*
D03*
X65405Y1905D02*
D03*
X62865Y4445D02*
D03*
X62865Y1905D02*
D03*
X60325Y4445D02*
D03*
X60325Y1905D02*
D03*
X57785Y4445D02*
D03*
X57785Y1905D02*
D03*
X55245Y4445D02*
D03*
X55245Y1905D02*
D03*
X52705Y4445D02*
D03*
X52705Y1905D02*
D03*
X50165Y4445D02*
D03*
X50165Y1905D02*
D03*
X47625Y4445D02*
D03*
X47625Y1905D02*
D03*
X45085Y4445D02*
D03*
X45085Y1905D02*
D03*
X42545Y4445D02*
D03*
X42545Y1905D02*
D03*
X40005Y4445D02*
D03*
X40005Y1905D02*
D03*
X37465Y4445D02*
D03*
X37465Y1905D02*
D03*
X34925Y4445D02*
D03*
X34925Y1905D02*
D03*
X32385Y4445D02*
D03*
X32385Y1905D02*
D03*
X29845Y4445D02*
D03*
X29845Y1905D02*
D03*
X27305Y4445D02*
D03*
X27305Y1905D02*
D03*
X22225Y4445D02*
D03*
X22225Y1905D02*
D03*
X19685Y4445D02*
D03*
X24765Y1905D02*
D03*
X24765Y4445D02*
D03*
X28194Y7747D02*
D03*
X19705Y7747D02*
D03*
X22245Y7747D02*
D03*
D45*
X19685Y50165D02*
D03*
X69850Y24003D02*
D03*
X41200Y38989D02*
D03*
X14605Y47117D02*
D03*
X19685Y1905D02*
D03*
X30734Y7747D02*
D03*
X24785Y7747D02*
D03*
D46*
X58420Y32766D02*
D03*
X60960Y30226D02*
D03*
X60960Y32766D02*
D03*
X76200Y32766D02*
D03*
X76200Y30226D02*
D03*
X73660Y30226D02*
D03*
X73660Y32766D02*
D03*
X66040Y30226D02*
D03*
X66040Y32766D02*
D03*
X63500Y30226D02*
D03*
X63500Y32766D02*
D03*
X71120Y30226D02*
D03*
X71120Y32766D02*
D03*
X68580Y30226D02*
D03*
X68580Y32766D02*
D03*
X40005Y32766D02*
D03*
X40005Y30226D02*
D03*
X42545Y32766D02*
D03*
X42545Y30226D02*
D03*
X34925Y32766D02*
D03*
X34925Y30226D02*
D03*
X37465Y32766D02*
D03*
X37465Y30226D02*
D03*
X45085Y32766D02*
D03*
X45085Y30226D02*
D03*
X47625Y30226D02*
D03*
X47625Y32766D02*
D03*
X32385Y32766D02*
D03*
X32385Y30226D02*
D03*
X29845Y32766D02*
D03*
D47*
X58420Y30226D02*
D03*
X29845Y30226D02*
D03*
D48*
X8088Y4572D02*
D03*
X3088Y4572D02*
D03*
D49*
X14128Y16764D02*
D03*
D50*
X8128Y16764D02*
D03*
D51*
X11128Y12064D02*
D03*
D52*
X75554Y37853D02*
D03*
X74979Y46711D02*
D03*
X75819Y46703D02*
D03*
X67695Y46990D02*
D03*
X66675Y46990D02*
D03*
X69965Y46703D02*
D03*
X66978Y36005D02*
D03*
X66978Y36996D02*
D03*
X67570Y37771D02*
D03*
X58420Y35687D02*
D03*
X61357Y46711D02*
D03*
X62992Y35687D02*
D03*
X66040Y48006D02*
D03*
X64270Y48006D02*
D03*
X47879Y26035D02*
D03*
X66437Y35205D02*
D03*
X35369Y23368D02*
D03*
X35369Y24866D02*
D03*
X37205Y24866D02*
D03*
X40194Y24458D02*
D03*
X41169Y24458D02*
D03*
X38735Y24458D02*
D03*
X44207Y26035D02*
D03*
X44182Y23368D02*
D03*
X8735Y9642D02*
D03*
X8735Y7874D02*
D03*
X8735Y6223D02*
D03*
X8650Y11770D02*
D03*
X8636Y13160D02*
D03*
X32953Y11684D02*
D03*
X21747Y11501D02*
D03*
X35755Y6756D02*
D03*
X6350Y11704D02*
D03*
X6350Y14371D02*
D03*
X6350Y9582D02*
D03*
X6350Y7747D02*
D03*
X6350Y6229D02*
D03*
X6350Y13059D02*
D03*
X43184Y8283D02*
D03*
X43815Y14559D02*
D03*
X38735Y6756D02*
D03*
X40460Y6756D02*
D03*
X44682Y14559D02*
D03*
X41021Y14559D02*
D03*
X42649Y7481D02*
D03*
X49982Y14559D02*
D03*
X10128Y15836D02*
D03*
X18269Y18296D02*
D03*
X10128Y17346D02*
D03*
X10128Y19017D02*
D03*
X6350Y19016D02*
D03*
X6350Y17346D02*
D03*
X6350Y15764D02*
D03*
X10128Y14448D02*
D03*
X26285Y17796D02*
D03*
X20809Y19246D02*
D03*
M02*
