G04*
G04 #@! TF.GenerationSoftware,Altium Limited,Altium Designer,22.10.1 (41)*
G04*
G04 Layer_Color=32768*
%FSLAX43Y43*%
%MOMM*%
G71*
G04*
G04 #@! TF.SameCoordinates,A9E92A4C-3054-4B5A-B43F-CED4EE29FA58*
G04*
G04*
G04 #@! TF.FilePolarity,Positive*
G04*
G01*
G75*
%ADD12C,0.200*%
%ADD15C,0.127*%
%ADD16C,0.178*%
%ADD53C,0.100*%
%ADD54C,0.150*%
%ADD55C,0.254*%
%ADD56C,0.120*%
%ADD57C,0.090*%
%ADD58R,2.400X0.625*%
%ADD59R,1.200X0.600*%
D12*
X52101Y52054D02*
X51768Y52054D01*
X51935Y52054D01*
X51935Y51221D01*
X51768Y51054D01*
X51602Y51054D01*
X51435Y51221D01*
X52435Y51887D02*
X52601Y52054D01*
X52935Y52054D01*
X53101Y51887D01*
X53101Y51720D01*
X52935Y51554D01*
X53101Y51387D01*
X53101Y51221D01*
X52935Y51054D01*
X52601Y51054D01*
X52435Y51221D01*
X52435Y51387D01*
X52601Y51554D01*
X52435Y51720D01*
X52435Y51887D01*
X52601Y51554D02*
X52935Y51554D01*
X67544Y23403D02*
X67877Y23403D01*
X67710Y23403D01*
X67710Y24236D01*
X67877Y24403D01*
X68043Y24403D01*
X68210Y24236D01*
X66544Y23403D02*
X66877Y23570D01*
X67210Y23903D01*
X67210Y24236D01*
X67044Y24403D01*
X66710Y24403D01*
X66544Y24236D01*
X66544Y24070D01*
X66710Y23903D01*
X67210Y23903D01*
X38894Y38389D02*
X39227Y38389D01*
X39060Y38389D01*
X39060Y39222D01*
X39227Y39389D01*
X39393Y39389D01*
X39560Y39222D01*
X37894Y38389D02*
X38560Y38389D01*
X38560Y38889D01*
X38227Y38723D01*
X38060Y38723D01*
X37894Y38889D01*
X37894Y39222D01*
X38060Y39389D01*
X38394Y39389D01*
X38560Y39222D01*
X23730Y47786D02*
X23396Y47786D01*
X23563Y47786D01*
X23563Y46953D01*
X23396Y46787D01*
X23230Y46787D01*
X23063Y46953D01*
X24063Y46787D02*
X24396Y46787D01*
X24229Y46787D01*
X24229Y47786D01*
X24063Y47620D01*
X52101Y3794D02*
X51768Y3794D01*
X51935Y3794D01*
X51935Y2961D01*
X51768Y2794D01*
X51602Y2794D01*
X51435Y2961D01*
X52435Y2961D02*
X52601Y2794D01*
X52935Y2794D01*
X53101Y2961D01*
X53101Y3627D01*
X52935Y3794D01*
X52601Y3794D01*
X52435Y3627D01*
X52435Y3460D01*
X52601Y3294D01*
X53101Y3294D01*
X4554Y5072D02*
X4221Y5072D01*
X4388Y5072D01*
X4388Y4239D01*
X4221Y4072D01*
X4055Y4072D01*
X3888Y4239D01*
X5554Y4072D02*
X4888Y4072D01*
X5554Y4738D01*
X5554Y4905D01*
X5388Y5072D01*
X5054Y5072D01*
X4888Y4905D01*
X2794Y19864D02*
X2461Y19864D01*
X2628Y19864D01*
X2628Y19031D01*
X2461Y18864D01*
X2295Y18864D01*
X2128Y19031D01*
X3128Y19697D02*
X3294Y19864D01*
X3628Y19864D01*
X3794Y19697D01*
X3794Y19530D01*
X3628Y19364D01*
X3461Y19364D01*
X3628Y19364D01*
X3794Y19197D01*
X3794Y19031D01*
X3628Y18864D01*
X3294Y18864D01*
X3128Y19031D01*
X30498Y7247D02*
X30831Y7247D01*
X30664Y7247D01*
X30664Y8080D01*
X30831Y8247D01*
X30997Y8247D01*
X31164Y8080D01*
X30164Y8247D02*
X29831Y8247D01*
X29998Y8247D01*
X29998Y7247D01*
X30164Y7414D01*
X29331Y8247D02*
X28998Y8247D01*
X29165Y8247D01*
X29165Y7247D01*
X29331Y7414D01*
X22479Y7147D02*
X22812Y7147D01*
X22645Y7147D01*
X22645Y7980D01*
X22812Y8147D01*
X22979Y8147D01*
X23145Y7980D01*
X21646Y8147D02*
X21646Y7147D01*
X22145Y7647D01*
X21479Y7647D01*
X70979Y42764D02*
X70979Y41931D01*
X71146Y41764D01*
X71479Y41764D01*
X71645Y41931D01*
X71645Y42764D01*
X71979Y42597D02*
X72145Y42764D01*
X72479Y42764D01*
X72645Y42597D01*
X72645Y42430D01*
X72479Y42264D01*
X72312Y42264D01*
X72479Y42264D01*
X72645Y42097D01*
X72645Y41931D01*
X72479Y41764D01*
X72145Y41764D01*
X71979Y41931D01*
X76379Y45564D02*
X76046Y45564D01*
X76212Y45564D01*
X76212Y44564D01*
X76379Y44731D01*
X67870Y45564D02*
X67537Y45564D01*
X67703Y45564D01*
X67703Y44564D01*
X67870Y44731D01*
X62470Y42764D02*
X62470Y41931D01*
X62637Y41764D01*
X62970Y41764D01*
X63136Y41931D01*
X63136Y42764D01*
X64136Y42764D02*
X63470Y42764D01*
X63470Y42264D01*
X63803Y42430D01*
X63970Y42430D01*
X64136Y42264D01*
X64136Y41931D01*
X63970Y41764D01*
X63636Y41764D01*
X63470Y41931D01*
X34819Y15650D02*
X35152Y15650D01*
X34986Y15650D01*
X34986Y16650D01*
X34819Y16483D01*
X40219Y18450D02*
X40219Y19283D01*
X40052Y19450D01*
X39719Y19450D01*
X39553Y19283D01*
X39553Y18450D01*
X38719Y19450D02*
X38719Y18450D01*
X39219Y18950D01*
X38553Y18950D01*
X48782Y18450D02*
X48782Y19283D01*
X48615Y19450D01*
X48282Y19450D01*
X48116Y19283D01*
X48116Y18450D01*
X47116Y19450D02*
X47782Y19450D01*
X47116Y18784D01*
X47116Y18617D01*
X47282Y18450D01*
X47616Y18450D01*
X47782Y18617D01*
X43382Y15650D02*
X43715Y15650D01*
X43549Y15650D01*
X43549Y16650D01*
X43382Y16483D01*
X28610Y11981D02*
X29610Y11981D01*
X29610Y12481D01*
X29443Y12647D01*
X28777Y12647D01*
X28610Y12481D01*
X28610Y11981D01*
X29610Y13647D02*
X29610Y12981D01*
X28944Y13647D01*
X28777Y13647D01*
X28610Y13481D01*
X28610Y13147D01*
X28777Y12981D01*
D15*
X41400Y-164500D02*
X41400Y-159420D01*
X-22100Y-104175D02*
X-17020Y-104175D01*
X-22100Y-43850D02*
X-17020Y-43850D01*
X-22100Y16475D02*
X-17020Y16475D01*
X104900Y-164500D02*
X104900Y-159420D01*
X168400Y-164500D02*
X168400Y-159420D01*
X231900Y-164500D02*
X231900Y-159420D01*
X295400Y-164500D02*
X295400Y-159420D01*
X353820Y-104175D02*
X358900Y-104175D01*
X353820Y-43850D02*
X358900Y-43850D01*
X353820Y16475D02*
X358900Y16475D01*
X41400Y71720D02*
X41400Y76800D01*
X104900Y71720D02*
X104900Y76800D01*
X168400Y71720D02*
X168400Y76800D01*
X231900Y71720D02*
X231900Y76800D01*
X295400Y71720D02*
X295400Y76800D01*
D16*
X327582Y-161198D02*
X327497Y-161029D01*
X327243Y-160944D01*
X327074Y-160944D01*
X326820Y-161029D01*
X326650Y-161283D01*
X326566Y-161706D01*
X326566Y-162129D01*
X326650Y-162468D01*
X326820Y-162637D01*
X327074Y-162722D01*
X327158Y-162722D01*
X327412Y-162637D01*
X327582Y-162468D01*
X327666Y-162214D01*
X327666Y-162129D01*
X327582Y-161876D01*
X327412Y-161706D01*
X327158Y-161622D01*
X327074Y-161622D01*
X326820Y-161706D01*
X326650Y-161876D01*
X326566Y-162129D01*
X263955Y-160944D02*
X263108Y-160944D01*
X263023Y-161706D01*
X263108Y-161622D01*
X263362Y-161537D01*
X263616Y-161537D01*
X263870Y-161622D01*
X264039Y-161791D01*
X264124Y-162045D01*
X264124Y-162214D01*
X264039Y-162468D01*
X263870Y-162637D01*
X263616Y-162722D01*
X263362Y-162722D01*
X263108Y-162637D01*
X263023Y-162553D01*
X262939Y-162383D01*
X200311Y-160944D02*
X199464Y-162129D01*
X200734Y-162129D01*
X200311Y-160944D02*
X200311Y-162722D01*
X135964Y-160944D02*
X136896Y-160944D01*
X136388Y-161622D01*
X136642Y-161622D01*
X136811Y-161706D01*
X136896Y-161791D01*
X136980Y-162045D01*
X136980Y-162214D01*
X136896Y-162468D01*
X136726Y-162637D01*
X136472Y-162722D01*
X136218Y-162722D01*
X135964Y-162637D01*
X135880Y-162553D01*
X135795Y-162383D01*
X72650Y-161368D02*
X72650Y-161283D01*
X72735Y-161114D01*
X72820Y-161029D01*
X72989Y-160944D01*
X73328Y-160944D01*
X73497Y-161029D01*
X73582Y-161114D01*
X73666Y-161283D01*
X73666Y-161452D01*
X73582Y-161622D01*
X73412Y-161876D01*
X72566Y-162722D01*
X73751Y-162722D01*
X9176Y-161283D02*
X9345Y-161198D01*
X9599Y-160944D01*
X9599Y-162722D01*
X-20195Y-134732D02*
X-20195Y-136509D01*
X-20195Y-134732D02*
X-19602Y-134732D01*
X-19348Y-134816D01*
X-19179Y-134986D01*
X-19095Y-135155D01*
X-19010Y-135409D01*
X-19010Y-135832D01*
X-19095Y-136086D01*
X-19179Y-136255D01*
X-19348Y-136425D01*
X-19602Y-136509D01*
X-20195Y-136509D01*
X-18925Y-74957D02*
X-19010Y-74788D01*
X-19179Y-74618D01*
X-19348Y-74534D01*
X-19687Y-74534D01*
X-19856Y-74618D01*
X-20026Y-74788D01*
X-20110Y-74957D01*
X-20195Y-75211D01*
X-20195Y-75634D01*
X-20110Y-75888D01*
X-20026Y-76057D01*
X-19856Y-76227D01*
X-19687Y-76311D01*
X-19348Y-76311D01*
X-19179Y-76227D01*
X-19010Y-76057D01*
X-18925Y-75888D01*
X-20195Y-14209D02*
X-20195Y-15986D01*
X-20195Y-14209D02*
X-19433Y-14209D01*
X-19179Y-14293D01*
X-19095Y-14378D01*
X-19010Y-14547D01*
X-19010Y-14716D01*
X-19095Y-14886D01*
X-19179Y-14970D01*
X-19433Y-15055D01*
X-20195Y-15055D02*
X-19433Y-15055D01*
X-19179Y-15140D01*
X-19095Y-15224D01*
X-19010Y-15394D01*
X-19010Y-15648D01*
X-19095Y-15817D01*
X-19179Y-15902D01*
X-19433Y-15986D01*
X-20195Y-15986D01*
X355725Y-134732D02*
X355725Y-136509D01*
X355725Y-134732D02*
X356318Y-134732D01*
X356572Y-134816D01*
X356741Y-134986D01*
X356825Y-135155D01*
X356910Y-135409D01*
X356910Y-135832D01*
X356825Y-136086D01*
X356741Y-136255D01*
X356572Y-136425D01*
X356318Y-136509D01*
X355725Y-136509D01*
X356995Y-74957D02*
X356910Y-74788D01*
X356741Y-74618D01*
X356572Y-74534D01*
X356233Y-74534D01*
X356064Y-74618D01*
X355894Y-74788D01*
X355810Y-74957D01*
X355725Y-75211D01*
X355725Y-75634D01*
X355810Y-75888D01*
X355894Y-76057D01*
X356064Y-76227D01*
X356233Y-76311D01*
X356572Y-76311D01*
X356741Y-76227D01*
X356910Y-76057D01*
X356995Y-75888D01*
X355725Y-14209D02*
X355725Y-15986D01*
X355725Y-14209D02*
X356487Y-14209D01*
X356741Y-14293D01*
X356825Y-14378D01*
X356910Y-14547D01*
X356910Y-14716D01*
X356825Y-14886D01*
X356741Y-14970D01*
X356487Y-15055D01*
X355725Y-15055D02*
X356487Y-15055D01*
X356741Y-15140D01*
X356825Y-15224D01*
X356910Y-15394D01*
X356910Y-15648D01*
X356825Y-15817D01*
X356741Y-15902D01*
X356487Y-15986D01*
X355725Y-15986D01*
X357079Y44466D02*
X356402Y46243D01*
X355725Y44466D01*
X355979Y45058D02*
X356825Y45058D01*
X263955Y75276D02*
X263108Y75276D01*
X263023Y74514D01*
X263108Y74598D01*
X263362Y74683D01*
X263616Y74683D01*
X263870Y74598D01*
X264039Y74429D01*
X264124Y74175D01*
X264124Y74006D01*
X264039Y73752D01*
X263870Y73583D01*
X263616Y73498D01*
X263362Y73498D01*
X263108Y73583D01*
X263023Y73667D01*
X262939Y73837D01*
X200311Y75276D02*
X199464Y74091D01*
X200734Y74091D01*
X200311Y75276D02*
X200311Y73498D01*
X135964Y75276D02*
X136896Y75276D01*
X136388Y74598D01*
X136642Y74598D01*
X136811Y74514D01*
X136896Y74429D01*
X136980Y74175D01*
X136980Y74006D01*
X136896Y73752D01*
X136726Y73583D01*
X136472Y73498D01*
X136218Y73498D01*
X135964Y73583D01*
X135880Y73667D01*
X135795Y73837D01*
X72650Y74852D02*
X72650Y74937D01*
X72735Y75106D01*
X72820Y75191D01*
X72989Y75276D01*
X73328Y75276D01*
X73497Y75191D01*
X73582Y75106D01*
X73666Y74937D01*
X73666Y74768D01*
X73582Y74598D01*
X73412Y74344D01*
X72566Y73498D01*
X73751Y73498D01*
D53*
X76835Y48835D02*
X76835Y54035D01*
X18385Y49075D02*
X18625Y48835D01*
X18385Y49075D02*
X18385Y54035D01*
X76835Y54035D01*
X18385Y51435D02*
X20975Y51435D01*
X20975Y48835D02*
X20975Y51435D01*
X18625Y48835D02*
X76835Y48835D01*
X79360Y26919D02*
X79360Y36194D01*
X55260Y26919D02*
X79360Y26919D01*
X55260Y36194D02*
X79360Y36194D01*
X55260Y26919D02*
X55260Y36194D01*
X63350Y22603D02*
X71250Y22603D01*
X63350Y22603D02*
X63350Y25403D01*
X68550Y22603D02*
X68550Y25403D01*
X71250Y22603D02*
X71250Y25128D01*
X70975Y25403D02*
X71250Y25128D01*
X63350Y25403D02*
X70975Y25403D01*
X34700Y37589D02*
X42600Y37589D01*
X34700Y37589D02*
X34700Y40389D01*
X39900Y37589D02*
X39900Y40389D01*
X42600Y37589D02*
X42600Y40114D01*
X42325Y40389D02*
X42600Y40114D01*
X34700Y40389D02*
X42325Y40389D01*
X13205Y48520D02*
X43815Y48520D01*
X43815Y45720D02*
X43815Y48520D01*
X15905Y45720D02*
X15905Y48520D01*
X13205Y45970D02*
X13205Y48520D01*
X13205Y45970D02*
X13455Y45720D01*
X43815Y45720D01*
X26685Y26919D02*
X26685Y36194D01*
X50785Y36194D01*
X26685Y26919D02*
X50785Y26919D01*
X50785Y36194D01*
X76835Y575D02*
X76835Y5775D01*
X18385Y815D02*
X18625Y575D01*
X18385Y815D02*
X18385Y5775D01*
X76835Y5775D01*
X18385Y3175D02*
X20975Y3175D01*
X20975Y575D02*
X20975Y3175D01*
X18625Y575D02*
X76835Y575D01*
X10588Y272D02*
X10588Y8572D01*
X588Y8572D02*
X10588Y8572D01*
X588Y272D02*
X10588Y272D01*
X588Y272D02*
X588Y8572D01*
X12378Y11864D02*
X12378Y12264D01*
X9878Y11864D02*
X9878Y12264D01*
X12378Y12264D02*
X14828Y12264D01*
X428Y12264D02*
X9878Y12264D01*
X428Y21264D02*
X14828Y21264D01*
X428Y12264D02*
X428Y21264D01*
X14828Y12264D02*
X14828Y21264D01*
X9878Y11864D02*
X12378Y11864D01*
X26924Y6472D02*
X26924Y9017D01*
X26924Y6472D02*
X31989Y6472D01*
X31989Y8882D01*
X31854Y9017D02*
X31989Y8882D01*
X26924Y9017D02*
X31854Y9017D01*
X18285Y6347D02*
X26185Y6347D01*
X18285Y6347D02*
X18285Y9147D01*
X23485Y6347D02*
X23485Y9147D01*
X26185Y6347D02*
X26185Y8872D01*
X25910Y9147D02*
X26185Y8872D01*
X18285Y9147D02*
X25910Y9147D01*
X17114Y14709D02*
X20514Y14709D01*
X17114Y11409D02*
X17114Y14709D01*
X17114Y11409D02*
X20514Y11409D01*
X20514Y14709D01*
X24216Y17296D02*
X25466Y17296D01*
X24216Y19296D02*
X25466Y19296D01*
X24216Y17296D02*
X24216Y19296D01*
X25466Y17296D02*
X25466Y19296D01*
X16563Y17169D02*
X17813Y17169D01*
X16563Y19169D02*
X17813Y19169D01*
X16563Y17169D02*
X16563Y19169D01*
X17813Y17169D02*
X17813Y19169D01*
X19698Y18476D02*
X20282Y18476D01*
X19698Y18121D02*
X19698Y18476D01*
X19698Y18121D02*
X20282Y18121D01*
X21451Y17166D02*
X22035Y17166D01*
X22035Y17521D01*
X21451Y17521D02*
X22035Y17521D01*
X21451Y19066D02*
X22035Y19066D01*
X22035Y19421D01*
X21451Y19421D02*
X22035Y19421D01*
X20282Y16950D02*
X20282Y19642D01*
X20282Y16950D02*
X21451Y16950D01*
X21451Y19642D01*
X20282Y19642D02*
X21451Y19642D01*
X19698Y19071D02*
X20282Y19071D01*
X19698Y19071D02*
X19698Y19426D01*
X20282Y19426D01*
X19698Y17526D02*
X20282Y17526D01*
X19698Y17171D02*
X19698Y17526D01*
X19698Y17171D02*
X20282Y17171D01*
X21451Y18116D02*
X22035Y18116D01*
X22035Y18471D01*
X21451Y18471D02*
X22035Y18471D01*
X70029Y40364D02*
X70029Y43939D01*
X76379Y41408D02*
X76379Y42895D01*
X70029Y40364D02*
X76529Y40364D01*
X70029Y43939D02*
X76529Y43939D01*
X76379Y42895D02*
X76529Y43045D01*
X76529Y43939D01*
X76379Y41408D02*
X76529Y41258D01*
X76529Y40364D02*
X76529Y41258D01*
X68020Y40364D02*
X68020Y41258D01*
X67870Y41408D02*
X68020Y41258D01*
X68020Y43045D02*
X68020Y43939D01*
X67870Y42895D02*
X68020Y43045D01*
X61520Y43939D02*
X68020Y43939D01*
X61520Y40364D02*
X68020Y40364D01*
X67870Y41408D02*
X67870Y42895D01*
X61520Y40364D02*
X61520Y43939D01*
X34669Y19956D02*
X34669Y20850D01*
X34669Y19956D02*
X34819Y19806D01*
X34669Y17275D02*
X34669Y18169D01*
X34819Y18319D01*
X34669Y17275D02*
X41169Y17275D01*
X34669Y20850D02*
X41169Y20850D01*
X34819Y18319D02*
X34819Y19806D01*
X41169Y17275D02*
X41169Y20850D01*
X49732Y17275D02*
X49732Y20850D01*
X43382Y18319D02*
X43382Y19806D01*
X43232Y20850D02*
X49732Y20850D01*
X43232Y17275D02*
X49732Y17275D01*
X43232Y18169D02*
X43382Y18319D01*
X43232Y17275D02*
X43232Y18169D01*
X43232Y19956D02*
X43382Y19806D01*
X43232Y19956D02*
X43232Y20850D01*
X30410Y11506D02*
X30410Y16306D01*
X28010Y11506D02*
X28010Y16306D01*
X30410Y16306D01*
X28010Y11506D02*
X30410Y11506D01*
X32225Y11734D02*
X32225Y13734D01*
X31025Y11734D02*
X32225Y11734D01*
X31025Y13734D02*
X32225Y13734D01*
X31025Y11734D02*
X31025Y13734D01*
X26299Y14081D02*
X27549Y14081D01*
X26299Y12081D02*
X27549Y12081D01*
X27549Y14081D01*
X26299Y12081D02*
X26299Y14081D01*
D54*
X21391Y19346D02*
X20725Y19346D01*
X20591Y19213D01*
X20591Y18946D01*
X20725Y18813D01*
X21391Y18813D01*
X20591Y18546D02*
X20591Y18280D01*
X20591Y18413D01*
X21391Y18413D01*
X21258Y18546D01*
X19241Y19921D02*
X19241Y19654D01*
X19241Y19788D01*
X20041Y19788D01*
X19908Y19921D01*
X31924Y14134D02*
X31225Y14134D01*
X31225Y13784D01*
X31341Y13667D01*
X31808Y13667D01*
X31924Y13784D01*
X31924Y14134D01*
X31225Y13434D02*
X31225Y13201D01*
X31225Y13317D01*
X31924Y13317D01*
X31808Y13434D01*
D55*
X60706Y32385D02*
X60198Y32385D01*
X60452Y32385D01*
X60452Y31115D01*
X60198Y30861D01*
X59944Y30861D01*
X59690Y31115D01*
X61214Y30861D02*
X61721Y30861D01*
X61467Y30861D01*
X61467Y32385D01*
X61214Y32131D01*
X62483Y32131D02*
X62737Y32385D01*
X63245Y32385D01*
X63499Y32131D01*
X63499Y31115D01*
X63245Y30861D01*
X62737Y30861D01*
X62483Y31115D01*
X62483Y32131D01*
X32131Y32385D02*
X31623Y32385D01*
X31877Y32385D01*
X31877Y31115D01*
X31623Y30861D01*
X31369Y30861D01*
X31115Y31115D01*
X32639Y32385D02*
X33654Y32385D01*
X33654Y32131D01*
X32639Y31115D01*
X32639Y30861D01*
D56*
X18759Y14116D02*
X19159Y14116D01*
X19259Y14216D01*
X19259Y14416D01*
X19159Y14516D01*
X18759Y14516D01*
X18659Y14416D01*
X18659Y14216D01*
X18859Y14316D02*
X18659Y14116D01*
X18659Y14216D02*
X18759Y14116D01*
X18659Y13916D02*
X18659Y13716D01*
X18659Y13816D01*
X19259Y13816D01*
X19159Y13916D01*
D57*
X25041Y17496D02*
X24591Y17496D01*
X24591Y17721D01*
X24666Y17796D01*
X24816Y17796D01*
X24891Y17721D01*
X24891Y17496D01*
X24891Y17646D02*
X25041Y17796D01*
X25041Y17946D02*
X25041Y18096D01*
X25041Y18021D01*
X24591Y18021D01*
X24666Y17946D01*
X17388Y17369D02*
X16938Y17369D01*
X16938Y17594D01*
X17013Y17669D01*
X17163Y17669D01*
X17238Y17594D01*
X17238Y17369D01*
X17238Y17519D02*
X17388Y17669D01*
X17388Y18119D02*
X17388Y17819D01*
X17088Y18119D01*
X17013Y18119D01*
X16938Y18044D01*
X16938Y17894D01*
X17013Y17819D01*
X26724Y13881D02*
X27174Y13881D01*
X27174Y13656D01*
X27099Y13581D01*
X26949Y13581D01*
X26874Y13656D01*
X26874Y13881D01*
X26874Y13731D02*
X26724Y13581D01*
X27099Y13431D02*
X27174Y13356D01*
X27174Y13206D01*
X27099Y13131D01*
X27024Y13131D01*
X26949Y13206D01*
X26949Y13281D01*
X26949Y13206D01*
X26874Y13131D01*
X26799Y13131D01*
X26724Y13206D01*
X26724Y13356D01*
X26799Y13431D01*
D58*
X29210Y15993D02*
D03*
D59*
X31625Y12034D02*
D03*
M02*
