G04*
G04 #@! TF.GenerationSoftware,Altium Limited,Altium Designer,22.10.1 (41)*
G04*
G04 Layer_Physical_Order=1*
G04 Layer_Color=255*
%FSLAX43Y43*%
%MOMM*%
G71*
G04*
G04 #@! TF.SameCoordinates,A9E92A4C-3054-4B5A-B43F-CED4EE29FA58*
G04*
G04*
G04 #@! TF.FilePolarity,Positive*
G04*
G01*
G75*
%ADD10C,0.250*%
%ADD15C,0.127*%
%ADD16C,0.178*%
%ADD17R,0.660X0.420*%
%ADD18R,0.650X0.420*%
G04:AMPARAMS|DCode=19|XSize=1.4mm|YSize=0.9mm|CornerRadius=0.225mm|HoleSize=0mm|Usage=FLASHONLY|Rotation=180.000|XOffset=0mm|YOffset=0mm|HoleType=Round|Shape=RoundedRectangle|*
%AMROUNDEDRECTD19*
21,1,1.400,0.450,0,0,180.0*
21,1,0.950,0.900,0,0,180.0*
1,1,0.450,-0.475,0.225*
1,1,0.450,0.475,0.225*
1,1,0.450,0.475,-0.225*
1,1,0.450,-0.475,-0.225*
%
%ADD19ROUNDEDRECTD19*%
%ADD20R,1.150X0.550*%
%ADD21O,0.450X1.450*%
%ADD22R,1.200X0.900*%
%ADD23R,1.200X1.200*%
%ADD24R,0.762X0.305*%
%ADD41C,0.350*%
%ADD42C,0.500*%
%ADD43C,2.000*%
%ADD44C,1.700*%
%ADD45P,1.840X8X22.5*%
%ADD46C,1.676*%
%ADD47R,1.676X1.676*%
%ADD48C,2.200*%
%ADD49O,2.500X5.000*%
%ADD50O,2.500X4.500*%
%ADD51O,4.500X2.500*%
%ADD52C,0.700*%
G36*
X76379Y42037D02*
X76029Y41512D01*
X76025Y41578D01*
X76015Y41638D01*
X75997Y41690D01*
X75973Y41736D01*
X75941Y41775D01*
X75903Y41806D01*
X75857Y41831D01*
X75805Y41848D01*
X75746Y41859D01*
X75679Y41862D01*
X75679Y42212D01*
X75746Y42215D01*
X75805Y42226D01*
X75857Y42243D01*
X75903Y42268D01*
X75941Y42299D01*
X75973Y42338D01*
X75997Y42383D01*
X76015Y42436D01*
X76025Y42495D01*
X76029Y42562D01*
X76379Y42037D01*
X76379Y42037D02*
G37*
G36*
X67873Y42495D02*
X67884Y42436D01*
X67901Y42383D01*
X67926Y42338D01*
X67957Y42299D01*
X67996Y42268D01*
X68041Y42243D01*
X68094Y42226D01*
X68154Y42215D01*
X68220Y42212D01*
X68220Y41862D01*
X68154Y41859D01*
X68094Y41848D01*
X68041Y41831D01*
X67996Y41806D01*
X67957Y41775D01*
X67926Y41736D01*
X67901Y41690D01*
X67884Y41638D01*
X67873Y41578D01*
X67870Y41512D01*
X67520Y41512D01*
X67517Y41578D01*
X67506Y41638D01*
X67489Y41690D01*
X67464Y41736D01*
X67433Y41775D01*
X67394Y41806D01*
X67349Y41831D01*
X67296Y41848D01*
X67237Y41859D01*
X67170Y41862D01*
X67170Y42212D01*
X67237Y42215D01*
X67296Y42226D01*
X67349Y42243D01*
X67394Y42268D01*
X67433Y42299D01*
X67464Y42338D01*
X67489Y42383D01*
X67506Y42436D01*
X67517Y42495D01*
X67520Y42562D01*
X67870Y42562D01*
X67873Y42495D01*
X67873Y42495D02*
G37*
G36*
X43736Y19508D02*
X43746Y19449D01*
X43764Y19396D01*
X43788Y19351D01*
X43819Y19312D01*
X43858Y19281D01*
X43903Y19257D01*
X43956Y19239D01*
X44015Y19229D01*
X44082Y19225D01*
X44082Y18875D01*
X44015Y18872D01*
X43956Y18861D01*
X43903Y18844D01*
X43858Y18819D01*
X43819Y18788D01*
X43788Y18749D01*
X43764Y18704D01*
X43746Y18651D01*
X43736Y18591D01*
X43732Y18525D01*
X43382Y18525D01*
X43379Y18591D01*
X43368Y18651D01*
X43350Y18704D01*
X43326Y18749D01*
X43294Y18788D01*
X43256Y18819D01*
X43210Y18844D01*
X43158Y18861D01*
X43098Y18872D01*
X43032Y18875D01*
X43032Y19225D01*
X43098Y19229D01*
X43158Y19239D01*
X43210Y19257D01*
X43256Y19281D01*
X43294Y19312D01*
X43326Y19351D01*
X43350Y19396D01*
X43368Y19449D01*
X43379Y19508D01*
X43382Y19575D01*
X43732Y19575D01*
X43736Y19508D01*
X43736Y19508D02*
G37*
G36*
X35173Y19508D02*
X35183Y19449D01*
X35201Y19396D01*
X35225Y19351D01*
X35257Y19312D01*
X35295Y19281D01*
X35340Y19257D01*
X35393Y19239D01*
X35452Y19229D01*
X35519Y19225D01*
X35519Y18875D01*
X35452Y18872D01*
X35393Y18861D01*
X35340Y18844D01*
X35295Y18819D01*
X35257Y18788D01*
X35225Y18749D01*
X35201Y18704D01*
X35183Y18651D01*
X35173Y18591D01*
X35169Y18525D01*
X34819Y19050D01*
X35169Y19575D01*
X35173Y19508D01*
X35173Y19508D02*
G37*
G36*
X15572Y19016D02*
X15572Y19016D01*
X15572Y14370D01*
X15875Y14067D01*
X15875Y14056D01*
X14911Y12405D01*
X14712Y12380D01*
X12688Y14404D01*
X12688Y14602D01*
X12688Y14602D01*
X12688Y18998D01*
X13029Y19339D01*
X15248Y19339D01*
X15572Y19016D01*
X15572Y19016D02*
G37*
G36*
X22225Y11874D02*
X20066Y11874D01*
X20066Y13462D01*
X21362Y13462D01*
X21362Y14202D01*
X22225Y14202D01*
X22225Y11874D01*
X22225Y11874D02*
G37*
G36*
X19164Y14244D02*
X19344Y14244D01*
X19344Y11874D01*
X19164Y11874D01*
X19164Y11329D01*
X18594Y11329D01*
X18594Y11874D01*
X17514Y11874D01*
X17514Y14244D01*
X18594Y14244D01*
X18595Y14789D01*
X19164Y14789D01*
X19164Y14244D01*
X19164Y14244D02*
G37*
G36*
X23855Y13556D02*
X24486Y13556D01*
X24486Y13462D01*
X24638Y13462D01*
X24638Y11704D01*
X24638Y10017D01*
X23768Y9147D01*
X18586Y9147D01*
X15181Y5742D01*
X13589Y5742D01*
X12319Y4472D01*
X12319Y2794D01*
X10041Y516D01*
X3367Y516D01*
X1524Y2359D01*
X1524Y3048D01*
X1524Y5715D01*
X2032Y6223D01*
X4318Y6223D01*
X4699Y5842D01*
X4699Y3175D01*
X4953Y2921D01*
X8890Y2921D01*
X9779Y3810D01*
X9779Y5207D01*
X15597Y11025D01*
X18583Y11025D01*
X18594Y11023D01*
X18594Y11023D01*
X19164Y11023D01*
X19175Y11025D01*
X21304Y11025D01*
X21348Y10981D01*
X21497Y10896D01*
X21662Y10851D01*
X21833Y10851D01*
X21998Y10896D01*
X22147Y10981D01*
X22190Y11025D01*
X23057Y11025D01*
X23241Y11209D01*
X23241Y13337D01*
X23241Y13456D01*
X23343Y13558D01*
X23855Y13558D01*
X23855Y13556D01*
X23855Y13556D02*
G37*
G36*
X10280Y19679D02*
X10657Y19339D01*
X10652Y18288D01*
X10634Y13620D01*
X10634Y13535D01*
X10725Y13536D01*
X12411Y13536D01*
X13037Y12910D01*
X13037Y11025D01*
X12369Y10357D01*
X10294Y10357D01*
X9199Y9262D01*
X9199Y6665D01*
X9199Y6665D01*
X9199Y4115D01*
X8544Y3460D01*
X6906Y3460D01*
X6825Y3541D01*
X5969Y4397D01*
X5969Y6665D01*
X5969Y6665D01*
X5969Y19304D01*
X6350Y19685D01*
X10280Y19679D01*
X10280Y19679D02*
G37*
%LPC*%
G36*
X13122Y14399D02*
X13291Y14261D01*
X13551Y14121D01*
X13834Y14036D01*
X13978Y14022D01*
X13978Y14389D01*
X13122Y14399D01*
X13122Y14399D02*
G37*
G36*
X14278Y14385D02*
X14278Y14022D01*
X14422Y14036D01*
X14705Y14121D01*
X14965Y14261D01*
X15105Y14376D01*
X14278Y14385D01*
X14278Y14385D02*
G37*
%LPD*%
D10*
X74295Y24003D02*
X74904Y24612D01*
X74904Y31470D01*
X69850Y24003D02*
X74295Y24003D01*
X67310Y24003D02*
X67310Y31496D01*
X64770Y24003D02*
X67310Y24003D01*
X58293Y36830D02*
X60904Y36830D01*
X47625Y30226D02*
X49407Y28444D01*
X49407Y22000D02*
X49407Y28444D01*
X46355Y38989D02*
X47625Y37719D01*
X47625Y32766D02*
X47625Y37719D01*
X48757Y22000D02*
X48757Y26554D01*
X48107Y22000D02*
X48107Y24664D01*
X47429Y26049D02*
X47865Y26049D01*
X47879Y26035D01*
X45085Y30226D02*
X48757Y26554D01*
X43815Y29663D02*
X47429Y26049D01*
X44182Y23368D02*
X44207Y23343D01*
X47457Y22000D02*
X47457Y24607D01*
X46807Y22000D02*
X46807Y24550D01*
X46157Y22000D02*
X46157Y24493D01*
X44657Y25993D02*
X46157Y24493D01*
X44207Y22000D02*
X44207Y23343D01*
X53930Y3130D02*
X53930Y8779D01*
X54430Y8760D02*
X56470Y6720D01*
X51390Y3130D02*
X51390Y10526D01*
X56470Y3130D02*
X56470Y6720D01*
X52705Y1905D02*
X53930Y3130D01*
X55245Y1905D02*
X56470Y3130D01*
X50165Y1905D02*
X51390Y3130D01*
X52644Y4384D02*
X52705Y4445D01*
X49407Y15134D02*
X49407Y16100D01*
X48757Y14659D02*
X48757Y16100D01*
X49407Y15134D02*
X49982Y14559D01*
X48107Y14602D02*
X48107Y16100D01*
X48107Y14602D02*
X53930Y8779D01*
X47457Y14459D02*
X51390Y10526D01*
X48757Y14659D02*
X54430Y8986D01*
X54430Y8760D02*
X54430Y8986D01*
X44857Y14856D02*
X44857Y16100D01*
X47457Y14459D02*
X47457Y16100D01*
X46157Y5105D02*
X46310Y4952D01*
X45085Y6223D02*
X45507Y6645D01*
X46807Y6995D02*
X46807Y16100D01*
X46157Y5105D02*
X46157Y16100D01*
X45085Y4445D02*
X45085Y6223D01*
X45507Y6645D02*
X45507Y16100D01*
X39735Y5828D02*
X40005Y5558D01*
X41230Y3072D02*
X41230Y4952D01*
X40063Y1905D02*
X41230Y3072D01*
X40005Y1905D02*
X40063Y1905D01*
X41218Y4964D02*
X41230Y4952D01*
X40005Y4445D02*
X40005Y5558D01*
X38735Y3175D02*
X38735Y6756D01*
X48850Y3011D02*
X48850Y4952D01*
X47744Y1905D02*
X48850Y3011D01*
X46310Y3130D02*
X46310Y4952D01*
X45085Y1905D02*
X46310Y3130D01*
X47625Y1905D02*
X47744Y1905D01*
X46807Y6995D02*
X48850Y4952D01*
X41021Y14559D02*
X41021Y14681D01*
X39544Y11082D02*
X39544Y16100D01*
X40844Y14858D02*
X40844Y16100D01*
X38244Y15271D02*
X38394Y15121D01*
X40844Y14858D02*
X41021Y14681D01*
X38244Y15271D02*
X38244Y16100D01*
X40194Y11185D02*
X40194Y16100D01*
X37594Y10622D02*
X37594Y16100D01*
X38894Y11025D02*
X38894Y16100D01*
X38394Y10529D02*
X38394Y15121D01*
X43815Y14559D02*
X44207Y14951D01*
X44207Y16100D01*
X44682Y14681D02*
X44857Y14856D01*
X44682Y14559D02*
X44682Y14681D01*
X39735Y5828D02*
X39735Y8481D01*
X40460Y6756D02*
X40460Y8463D01*
X41218Y4964D02*
X41218Y8701D01*
X41718Y8412D02*
X42649Y7481D01*
X43096Y8283D02*
X43184Y8283D01*
X37594Y10622D02*
X39735Y8481D01*
X39544Y11082D02*
X41718Y8908D01*
X38894Y11025D02*
X41218Y8701D01*
X40194Y11185D02*
X43096Y8283D01*
X38394Y10529D02*
X40460Y8463D01*
X41718Y8412D02*
X41718Y8908D01*
X73774Y30340D02*
X73774Y31164D01*
X73660Y30226D02*
X73774Y30340D01*
X76200Y30226D02*
X76399Y30425D01*
X71120Y30226D02*
X72390Y31496D01*
X77653Y30425D02*
X78105Y30877D01*
X76399Y30425D02*
X77653Y30425D01*
X68580Y30226D02*
X69839Y31485D01*
X72390Y31496D02*
X72390Y37267D01*
X74254Y36996D02*
X76415Y36996D01*
X73604Y32822D02*
X73660Y32766D01*
X74873Y32263D02*
X74873Y35236D01*
X73774Y31164D02*
X74873Y32263D01*
X78105Y30877D02*
X78105Y35306D01*
X76415Y36996D02*
X78105Y35306D01*
X72954Y37155D02*
X74873Y35236D01*
X74904Y31470D02*
X76200Y32766D01*
X66040Y32766D02*
X67310Y31496D01*
X64770Y31496D02*
X66040Y30226D01*
X66952Y33790D02*
X67467Y33790D01*
X66040Y32878D02*
X66952Y33790D01*
X66040Y32766D02*
X66040Y32878D01*
X64770Y31496D02*
X64770Y33790D01*
X65397Y34417D01*
X67310Y34417D01*
X75554Y37853D02*
X75554Y39214D01*
X72304Y37353D02*
X72304Y39214D01*
X73604Y37646D02*
X73604Y39214D01*
X71004Y37326D02*
X71004Y39214D01*
X72954Y37155D02*
X72954Y39214D01*
X73604Y37646D02*
X74254Y36996D01*
X72304Y37353D02*
X72390Y37267D01*
X71654Y36602D02*
X71654Y39214D01*
X69839Y34787D02*
X71654Y36602D01*
X67467Y33790D02*
X71004Y37326D01*
X67310Y34417D02*
X70354Y37461D01*
X70354Y39214D01*
X69839Y31485D02*
X69839Y34787D01*
X63145Y37353D02*
X63145Y39214D01*
X62992Y35687D02*
X63795Y36490D01*
X61845Y37771D02*
X61845Y39214D01*
X62495Y37570D02*
X62495Y39214D01*
X60904Y36830D02*
X61845Y37771D01*
X62173Y36381D02*
X63145Y37353D01*
X63795Y36490D02*
X63795Y39214D01*
X66395Y39214D02*
X66437Y39172D01*
X65745Y37204D02*
X66944Y36005D01*
X64445Y36005D02*
X64445Y39214D01*
X66944Y36005D02*
X66978Y36005D01*
X65745Y37204D02*
X65745Y39214D01*
X65095Y36547D02*
X65095Y39214D01*
X65095Y36547D02*
X66437Y35205D01*
X59690Y34765D02*
X62495Y37570D01*
X63500Y32766D02*
X63500Y35060D01*
X64445Y36005D01*
X63373Y30226D02*
X63500Y30226D01*
X59690Y31496D02*
X60960Y30226D01*
X62173Y31426D02*
X62173Y36381D01*
X62173Y31426D02*
X63373Y30226D01*
X59690Y31496D02*
X59690Y34765D01*
X67045Y38296D02*
X67045Y39214D01*
X66437Y37537D02*
X66437Y39172D01*
X67045Y38296D02*
X67570Y37771D01*
X66437Y37537D02*
X66978Y36996D01*
X14605Y47117D02*
X17399Y49911D01*
X29845Y29083D02*
X34795Y24133D01*
X57785Y50165D02*
X58690Y49260D01*
X59498Y49260D01*
X41275Y48387D02*
X42545Y47117D01*
X41275Y48387D02*
X41275Y53340D01*
X34925Y53097D02*
X35287Y53460D01*
X40630Y53985D02*
X41275Y53340D01*
X37022Y48433D02*
X38689Y48433D01*
X35697Y53985D02*
X40630Y53985D01*
X35287Y53575D02*
X35697Y53985D01*
X35287Y53460D02*
X35287Y53575D01*
X34925Y50165D02*
X35755Y49335D01*
X36120Y49335D01*
X37022Y48433D01*
X34838Y48520D02*
X36062Y48520D01*
X37465Y47117D01*
X34925Y47117D02*
X34925Y47233D01*
X38689Y48433D02*
X40005Y47117D01*
X37465Y32766D02*
X37465Y36266D01*
X34925Y30226D02*
X39460Y25691D01*
X32493Y28995D02*
X36480Y25008D01*
X38660Y37461D02*
X38660Y38989D01*
X37465Y36266D02*
X38660Y37461D01*
X36120Y38989D02*
X38660Y38989D01*
X33712Y29384D02*
X37990Y25106D01*
X32385Y52705D02*
X33610Y51480D01*
X33610Y49748D02*
X34838Y48520D01*
X29845Y52705D02*
X31115Y51435D01*
X33610Y49748D02*
X33610Y51480D01*
X31115Y49703D02*
X31115Y51435D01*
X32385Y52705D02*
X32385Y52705D01*
X32385Y49773D02*
X32385Y50165D01*
X29845Y47117D02*
X29845Y50165D01*
X32385Y49773D02*
X34925Y47233D01*
X32385Y47117D02*
X32385Y48433D01*
X31115Y49703D02*
X32385Y48433D01*
X34925Y52705D02*
X34925Y53097D01*
X38792Y31439D02*
X43237Y31439D01*
X37465Y32766D02*
X38792Y31439D01*
X33712Y31553D02*
X34925Y32766D01*
X33712Y29384D02*
X33712Y31553D01*
X35348Y24866D02*
X35369Y24866D01*
X29845Y32766D02*
X31062Y31549D01*
X31062Y29151D02*
X31062Y31549D01*
X29845Y29083D02*
X29845Y30226D01*
X32493Y28995D02*
X32493Y30118D01*
X31062Y29151D02*
X35348Y24866D01*
X32385Y30226D02*
X32493Y30118D01*
X44249Y25993D02*
X44657Y25993D01*
X44207Y26035D02*
X44249Y25993D01*
X41218Y29013D02*
X43051Y29013D01*
X37465Y30226D02*
X39178Y28513D01*
X43815Y29663D02*
X43815Y30861D01*
X40005Y30226D02*
X41218Y29013D01*
X39178Y28513D02*
X42844Y28513D01*
X43237Y31439D02*
X43815Y30861D01*
X36944Y6464D02*
X36944Y16100D01*
X33655Y3175D02*
X33655Y5742D01*
X35644Y7731D02*
X35644Y16100D01*
X36294Y7295D02*
X36294Y16100D01*
X35755Y6756D02*
X36294Y7295D01*
X34925Y4445D02*
X36944Y6464D01*
X33655Y3175D02*
X34925Y1905D01*
X22225Y1905D02*
X22225Y4445D01*
X20314Y12734D02*
X20314Y13384D01*
X26924Y14031D02*
X31377Y14031D01*
X24765Y1905D02*
X24765Y4445D01*
X37465Y1905D02*
X38735Y3175D01*
X33147Y16100D02*
X34994Y16100D01*
X29210Y15581D02*
X32628Y15581D01*
X31625Y11684D02*
X32953Y11684D01*
X32628Y15581D02*
X33147Y16100D01*
X31377Y14031D02*
X31625Y13784D01*
X30734Y6229D02*
X30734Y7747D01*
X33655Y5742D02*
X35644Y7731D01*
X22245Y4465D02*
X22245Y7747D01*
X30280Y5775D02*
X30734Y6229D01*
X22225Y4445D02*
X22245Y4465D01*
X26095Y5775D02*
X30280Y5775D01*
X24765Y4445D02*
X26095Y5775D01*
X22977Y53985D02*
X23495Y53467D01*
X23495Y51435D02*
X23495Y53467D01*
X17399Y49911D02*
X17399Y53086D01*
X18298Y53985D02*
X22977Y53985D01*
X17399Y53086D02*
X18298Y53985D01*
X27669Y17009D02*
X27669Y20046D01*
X25126Y17346D02*
X25835Y17346D01*
X25466Y15917D02*
X26185Y16636D01*
X23622Y14202D02*
X23622Y17090D01*
X26677Y21038D02*
X27669Y20046D01*
X23622Y14202D02*
X23768Y14056D01*
X27296Y16636D02*
X27669Y17009D01*
X23768Y14056D02*
X24486Y14056D01*
X26185Y16636D02*
X27296Y16636D01*
X25835Y17346D02*
X26285Y17796D01*
X20975Y15836D02*
X20975Y17978D01*
X19466Y19246D02*
X20809Y19246D01*
X21293Y18296D02*
X22266Y18296D01*
X20975Y17978D02*
X21293Y18296D01*
X26990Y48520D02*
X27305Y48835D01*
X27305Y52705D02*
X28575Y51435D01*
X28575Y48387D02*
X28575Y51435D01*
X27305Y48835D02*
X27305Y50165D01*
X20374Y48635D02*
X21000Y49261D01*
X27305Y47117D02*
X28575Y48387D01*
X25273Y48387D02*
X25990Y49104D01*
X19685Y47117D02*
X21455Y48887D01*
X23487Y48887D02*
X24765Y50165D01*
X25990Y49104D02*
X25990Y51480D01*
X21455Y48887D02*
X23487Y48887D01*
X24765Y52705D02*
X25990Y51480D01*
X21000Y51480D02*
X22225Y52705D01*
X22225Y50165D02*
X23495Y51435D01*
X21000Y49261D02*
X21000Y51480D01*
X20314Y14034D02*
X20314Y15175D01*
X20975Y15836D01*
X22266Y19246D02*
X25126Y19246D01*
X22266Y17346D02*
X23366Y17346D01*
X23622Y17090D01*
X18057Y21038D02*
X26677Y21038D01*
X17188Y20170D02*
X18057Y21038D01*
X17188Y19119D02*
X17188Y20170D01*
X18269Y18296D02*
X19466Y18296D01*
X17315Y17346D02*
X19466Y17346D01*
X17188Y17219D02*
X17315Y17346D01*
X18917Y48635D02*
X20374Y48635D01*
X23495Y48387D02*
X25273Y48387D01*
X26168Y48520D02*
X26990Y48520D01*
X17399Y47117D02*
X18917Y48635D01*
X24765Y47117D02*
X26168Y48520D01*
X22225Y47117D02*
X23495Y48387D01*
X17145Y47117D02*
X17399Y47117D01*
X41200Y38989D02*
X46355Y38989D01*
X56715Y35252D02*
X58293Y36830D01*
X58420Y32766D02*
X58420Y35687D01*
X56715Y30606D02*
X57095Y30226D01*
X56715Y30606D02*
X56715Y35252D01*
X57095Y30226D02*
X58420Y30226D01*
X34795Y24133D02*
X35652Y24133D01*
X36480Y24012D02*
X36480Y25008D01*
X37205Y23994D02*
X37205Y24866D01*
X43051Y29013D02*
X47457Y24607D01*
X40844Y24133D02*
X41169Y24458D01*
X38735Y23934D02*
X38735Y24458D01*
X38735Y23934D02*
X38894Y23775D01*
X42844Y28513D02*
X46807Y24550D01*
X39460Y23862D02*
X39544Y23778D01*
X37990Y23934D02*
X37990Y25106D01*
X42545Y30226D02*
X48107Y24664D01*
X40194Y22000D02*
X40194Y24458D01*
X39460Y23862D02*
X39460Y25691D01*
X40844Y22000D02*
X40844Y24133D01*
X39544Y22000D02*
X39544Y23778D01*
X38894Y22000D02*
X38894Y23775D01*
X38244Y22000D02*
X38244Y23680D01*
X35638Y22006D02*
X35638Y23001D01*
X35652Y24133D02*
X36294Y23491D01*
X37990Y23934D02*
X38244Y23680D01*
X37205Y23994D02*
X37594Y23605D01*
X36480Y24012D02*
X36944Y23548D01*
X35363Y23277D02*
X35363Y23362D01*
X35363Y23277D02*
X35638Y23001D01*
X37594Y22000D02*
X37594Y23605D01*
X36944Y22000D02*
X36944Y23548D01*
X36294Y22000D02*
X36294Y23491D01*
X65405Y50165D02*
X67740Y47830D01*
X66675Y49703D02*
X68048Y48330D01*
X66675Y49703D02*
X66675Y51435D01*
X65405Y52705D02*
X66675Y51435D01*
X62865Y52705D02*
X64135Y51435D01*
X64135Y49270D02*
X64135Y51435D01*
X73025Y49979D02*
X73025Y50165D01*
X67740Y47830D02*
X70635Y47830D01*
X71004Y47461D01*
X71053Y48835D02*
X72304Y47584D01*
X70485Y50165D02*
X72954Y47696D01*
X70851Y48330D02*
X71654Y47527D01*
X68048Y48330D02*
X70851Y48330D01*
X69275Y48835D02*
X71053Y48835D01*
X73025Y49979D02*
X73604Y49401D01*
X67945Y50165D02*
X69275Y48835D01*
X67695Y46985D02*
X67695Y46990D01*
X66675Y46914D02*
X66675Y46990D01*
X66395Y46634D02*
X66675Y46914D01*
X65745Y47665D02*
X66040Y47960D01*
X69965Y46703D02*
X70354Y46314D01*
X61845Y45114D02*
X61845Y46223D01*
X62865Y48332D02*
X62865Y50165D01*
X62495Y45114D02*
X62495Y46711D01*
X60325Y50165D02*
X63145Y47345D01*
X61357Y46711D02*
X61845Y46223D01*
X75554Y45114D02*
X75554Y45958D01*
X65095Y45114D02*
X65095Y48310D01*
X59498Y49260D02*
X59818Y48940D01*
X59498Y49260D02*
X59498Y49260D01*
X60266Y48940D02*
X62495Y46711D01*
X59818Y48940D02*
X60266Y48940D01*
X63795Y45114D02*
X63795Y47400D01*
X64135Y49270D02*
X65095Y48310D01*
X64445Y45114D02*
X64445Y47709D01*
X64270Y47884D02*
X64445Y47709D01*
X63645Y47550D02*
X63645Y47552D01*
X62865Y48332D02*
X63645Y47552D01*
X63145Y45114D02*
X63145Y47345D01*
X63645Y47550D02*
X63795Y47400D01*
X64270Y47884D02*
X64270Y48006D01*
X75819Y46223D02*
X75819Y46703D01*
X74912Y46087D02*
X74979Y46154D01*
X75554Y45958D02*
X75819Y46223D01*
X74254Y48854D02*
X75565Y50165D01*
X74979Y46154D02*
X74979Y46711D01*
X74254Y45114D02*
X74254Y48854D01*
X74912Y45122D02*
X74912Y46087D01*
X73604Y45114D02*
X73604Y49401D01*
X72954Y45114D02*
X72954Y47696D01*
X72304Y45114D02*
X72304Y47584D01*
X71654Y45114D02*
X71654Y47527D01*
X71004Y45114D02*
X71004Y47461D01*
X65745Y45114D02*
X65745Y47665D01*
X66040Y47960D02*
X66040Y48006D01*
X67045Y45114D02*
X67045Y46335D01*
X66395Y45114D02*
X66395Y46634D01*
X67045Y46335D02*
X67695Y46985D01*
X70354Y45114D02*
X70354Y46314D01*
X25466Y13655D02*
X25466Y15917D01*
X25217Y13406D02*
X25466Y13655D01*
X24486Y13406D02*
X25217Y13406D01*
X24486Y13301D02*
X24486Y13406D01*
X20314Y12734D02*
X21720Y12734D01*
X21720Y13384D02*
X21742Y13406D01*
X20314Y13384D02*
X21720Y13384D01*
X21720Y12734D02*
X21742Y12756D01*
X20314Y12084D02*
X20314Y12734D01*
X20314Y12084D02*
X21720Y12084D01*
X21747Y11501D02*
X21747Y11978D01*
X21742Y13406D02*
X21742Y14056D01*
D15*
X41400Y-164500D02*
X41400Y-159420D01*
X-22100Y-104175D02*
X-17020Y-104175D01*
X-22100Y-43850D02*
X-17020Y-43850D01*
X-22100Y16475D02*
X-17020Y16475D01*
X104900Y-164500D02*
X104900Y-159420D01*
X168400Y-164500D02*
X168400Y-159420D01*
X231900Y-164500D02*
X231900Y-159420D01*
X295400Y-164500D02*
X295400Y-159420D01*
X353820Y-104175D02*
X358900Y-104175D01*
X353820Y-43850D02*
X358900Y-43850D01*
X353820Y16475D02*
X358900Y16475D01*
X41400Y71720D02*
X41400Y76800D01*
X104900Y71720D02*
X104900Y76800D01*
X168400Y71720D02*
X168400Y76800D01*
X231900Y71720D02*
X231900Y76800D01*
X295400Y71720D02*
X295400Y76800D01*
D16*
X327582Y-161198D02*
X327497Y-161029D01*
X327243Y-160944D01*
X327074Y-160944D01*
X326820Y-161029D01*
X326650Y-161283D01*
X326566Y-161706D01*
X326566Y-162129D01*
X326650Y-162468D01*
X326820Y-162637D01*
X327074Y-162722D01*
X327158Y-162722D01*
X327412Y-162637D01*
X327582Y-162468D01*
X327666Y-162214D01*
X327666Y-162129D01*
X327582Y-161876D01*
X327412Y-161706D01*
X327158Y-161622D01*
X327074Y-161622D01*
X326820Y-161706D01*
X326650Y-161876D01*
X326566Y-162129D01*
X263955Y-160944D02*
X263108Y-160944D01*
X263023Y-161706D01*
X263108Y-161622D01*
X263362Y-161537D01*
X263616Y-161537D01*
X263870Y-161622D01*
X264039Y-161791D01*
X264124Y-162045D01*
X264124Y-162214D01*
X264039Y-162468D01*
X263870Y-162637D01*
X263616Y-162722D01*
X263362Y-162722D01*
X263108Y-162637D01*
X263023Y-162553D01*
X262939Y-162383D01*
X200311Y-160944D02*
X199464Y-162129D01*
X200734Y-162129D01*
X200311Y-160944D02*
X200311Y-162722D01*
X135964Y-160944D02*
X136896Y-160944D01*
X136388Y-161622D01*
X136642Y-161622D01*
X136811Y-161706D01*
X136896Y-161791D01*
X136980Y-162045D01*
X136980Y-162214D01*
X136896Y-162468D01*
X136726Y-162637D01*
X136472Y-162722D01*
X136218Y-162722D01*
X135964Y-162637D01*
X135880Y-162553D01*
X135795Y-162383D01*
X72650Y-161368D02*
X72650Y-161283D01*
X72735Y-161114D01*
X72820Y-161029D01*
X72989Y-160944D01*
X73328Y-160944D01*
X73497Y-161029D01*
X73582Y-161114D01*
X73666Y-161283D01*
X73666Y-161452D01*
X73582Y-161622D01*
X73412Y-161876D01*
X72566Y-162722D01*
X73751Y-162722D01*
X9176Y-161283D02*
X9345Y-161198D01*
X9599Y-160944D01*
X9599Y-162722D01*
X-20195Y-134732D02*
X-20195Y-136509D01*
X-20195Y-134732D02*
X-19602Y-134732D01*
X-19348Y-134816D01*
X-19179Y-134986D01*
X-19095Y-135155D01*
X-19010Y-135409D01*
X-19010Y-135832D01*
X-19095Y-136086D01*
X-19179Y-136255D01*
X-19348Y-136425D01*
X-19602Y-136509D01*
X-20195Y-136509D01*
X-18925Y-74957D02*
X-19010Y-74788D01*
X-19179Y-74618D01*
X-19348Y-74534D01*
X-19687Y-74534D01*
X-19856Y-74618D01*
X-20026Y-74788D01*
X-20110Y-74957D01*
X-20195Y-75211D01*
X-20195Y-75634D01*
X-20110Y-75888D01*
X-20026Y-76057D01*
X-19856Y-76227D01*
X-19687Y-76311D01*
X-19348Y-76311D01*
X-19179Y-76227D01*
X-19010Y-76057D01*
X-18925Y-75888D01*
X-20195Y-14209D02*
X-20195Y-15986D01*
X-20195Y-14209D02*
X-19433Y-14209D01*
X-19179Y-14293D01*
X-19095Y-14378D01*
X-19010Y-14547D01*
X-19010Y-14716D01*
X-19095Y-14886D01*
X-19179Y-14970D01*
X-19433Y-15055D01*
X-20195Y-15055D02*
X-19433Y-15055D01*
X-19179Y-15140D01*
X-19095Y-15224D01*
X-19010Y-15394D01*
X-19010Y-15648D01*
X-19095Y-15817D01*
X-19179Y-15902D01*
X-19433Y-15986D01*
X-20195Y-15986D01*
X355725Y-134732D02*
X355725Y-136509D01*
X355725Y-134732D02*
X356318Y-134732D01*
X356572Y-134816D01*
X356741Y-134986D01*
X356825Y-135155D01*
X356910Y-135409D01*
X356910Y-135832D01*
X356825Y-136086D01*
X356741Y-136255D01*
X356572Y-136425D01*
X356318Y-136509D01*
X355725Y-136509D01*
X356995Y-74957D02*
X356910Y-74788D01*
X356741Y-74618D01*
X356572Y-74534D01*
X356233Y-74534D01*
X356064Y-74618D01*
X355894Y-74788D01*
X355810Y-74957D01*
X355725Y-75211D01*
X355725Y-75634D01*
X355810Y-75888D01*
X355894Y-76057D01*
X356064Y-76227D01*
X356233Y-76311D01*
X356572Y-76311D01*
X356741Y-76227D01*
X356910Y-76057D01*
X356995Y-75888D01*
X355725Y-14209D02*
X355725Y-15986D01*
X355725Y-14209D02*
X356487Y-14209D01*
X356741Y-14293D01*
X356825Y-14378D01*
X356910Y-14547D01*
X356910Y-14716D01*
X356825Y-14886D01*
X356741Y-14970D01*
X356487Y-15055D01*
X355725Y-15055D02*
X356487Y-15055D01*
X356741Y-15140D01*
X356825Y-15224D01*
X356910Y-15394D01*
X356910Y-15648D01*
X356825Y-15817D01*
X356741Y-15902D01*
X356487Y-15986D01*
X355725Y-15986D01*
X357079Y44466D02*
X356402Y46243D01*
X355725Y44466D01*
X355979Y45058D02*
X356825Y45058D01*
X263955Y75276D02*
X263108Y75276D01*
X263023Y74514D01*
X263108Y74598D01*
X263362Y74683D01*
X263616Y74683D01*
X263870Y74598D01*
X264039Y74429D01*
X264124Y74175D01*
X264124Y74006D01*
X264039Y73752D01*
X263870Y73583D01*
X263616Y73498D01*
X263362Y73498D01*
X263108Y73583D01*
X263023Y73667D01*
X262939Y73837D01*
X200311Y75276D02*
X199464Y74091D01*
X200734Y74091D01*
X200311Y75276D02*
X200311Y73498D01*
X135964Y75276D02*
X136896Y75276D01*
X136388Y74598D01*
X136642Y74598D01*
X136811Y74514D01*
X136896Y74429D01*
X136980Y74175D01*
X136980Y74006D01*
X136896Y73752D01*
X136726Y73583D01*
X136472Y73498D01*
X136218Y73498D01*
X135964Y73583D01*
X135880Y73667D01*
X135795Y73837D01*
X72650Y74852D02*
X72650Y74937D01*
X72735Y75106D01*
X72820Y75191D01*
X72989Y75276D01*
X73328Y75276D01*
X73497Y75191D01*
X73582Y75106D01*
X73666Y74937D01*
X73666Y74768D01*
X73582Y74598D01*
X73412Y74344D01*
X72566Y73498D01*
X73751Y73498D01*
D17*
X20314Y12084D02*
D03*
X20314Y12734D02*
D03*
X20314Y13384D02*
D03*
X20314Y14034D02*
D03*
D18*
X17369Y14034D02*
D03*
X17369Y13384D02*
D03*
X17369Y12734D02*
D03*
X17369Y12084D02*
D03*
D19*
X24841Y19246D02*
D03*
X24841Y17346D02*
D03*
X17188Y19119D02*
D03*
X17188Y17219D02*
D03*
X26924Y12131D02*
D03*
X26924Y14031D02*
D03*
D20*
X19466Y19246D02*
D03*
X19466Y18296D02*
D03*
X19466Y17346D02*
D03*
X22266Y17346D02*
D03*
X22266Y18296D02*
D03*
X22266Y19246D02*
D03*
D21*
X76204Y45114D02*
D03*
X75554Y45114D02*
D03*
X74904Y45114D02*
D03*
X74254Y45114D02*
D03*
X73604Y45114D02*
D03*
X72954Y45114D02*
D03*
X72304Y45114D02*
D03*
X71654Y45114D02*
D03*
X71004Y45114D02*
D03*
X70354Y45114D02*
D03*
X76204Y39214D02*
D03*
X75554Y39214D02*
D03*
X74904Y39214D02*
D03*
X74254Y39214D02*
D03*
X73604Y39214D02*
D03*
X72954Y39214D02*
D03*
X72304Y39214D02*
D03*
X71654Y39214D02*
D03*
X71004Y39214D02*
D03*
X70354Y39214D02*
D03*
X61845Y39214D02*
D03*
X62495Y39214D02*
D03*
X63145Y39214D02*
D03*
X63795Y39214D02*
D03*
X64445Y39214D02*
D03*
X65095Y39214D02*
D03*
X65745Y39214D02*
D03*
X66395Y39214D02*
D03*
X67045Y39214D02*
D03*
X67695Y39214D02*
D03*
X61845Y45114D02*
D03*
X62495Y45114D02*
D03*
X63145Y45114D02*
D03*
X63795Y45114D02*
D03*
X64445Y45114D02*
D03*
X65095Y45114D02*
D03*
X65745Y45114D02*
D03*
X66395Y45114D02*
D03*
X67045Y45114D02*
D03*
X67695Y45114D02*
D03*
X40844Y22000D02*
D03*
X40194Y22000D02*
D03*
X39544Y22000D02*
D03*
X38894Y22000D02*
D03*
X38244Y22000D02*
D03*
X37594Y22000D02*
D03*
X36944Y22000D02*
D03*
X36294Y22000D02*
D03*
X35644Y22000D02*
D03*
X34994Y22000D02*
D03*
X40844Y16100D02*
D03*
X40194Y16100D02*
D03*
X39544Y16100D02*
D03*
X38894Y16100D02*
D03*
X38244Y16100D02*
D03*
X37594Y16100D02*
D03*
X36944Y16100D02*
D03*
X36294Y16100D02*
D03*
X35644Y16100D02*
D03*
X34994Y16100D02*
D03*
X43557Y16100D02*
D03*
X44207Y16100D02*
D03*
X44857Y16100D02*
D03*
X45507Y16100D02*
D03*
X46157Y16100D02*
D03*
X46807Y16100D02*
D03*
X47457Y16100D02*
D03*
X48107Y16100D02*
D03*
X48757Y16100D02*
D03*
X49407Y16100D02*
D03*
X43557Y22000D02*
D03*
X44207Y22000D02*
D03*
X44857Y22000D02*
D03*
X45507Y22000D02*
D03*
X46157Y22000D02*
D03*
X46807Y22000D02*
D03*
X47457Y22000D02*
D03*
X48107Y22000D02*
D03*
X48757Y22000D02*
D03*
X49407Y22000D02*
D03*
D22*
X29210Y12181D02*
D03*
X29210Y15581D02*
D03*
D23*
X31625Y11684D02*
D03*
X31625Y13784D02*
D03*
D24*
X24486Y12106D02*
D03*
X24486Y12756D02*
D03*
X24486Y13406D02*
D03*
X24486Y14056D02*
D03*
X21742Y14056D02*
D03*
X21742Y13406D02*
D03*
X21742Y12756D02*
D03*
X21742Y12106D02*
D03*
D41*
X56126Y42037D02*
X67695Y42037D01*
X43557Y19050D02*
X51816Y19050D01*
X43557Y16100D02*
X43557Y19050D01*
X53213Y20447D02*
X53213Y39124D01*
X51816Y19050D02*
X53213Y20447D01*
X34127Y9406D02*
X34994Y10273D01*
X43557Y19050D02*
X43557Y22000D01*
X34994Y19050D02*
X43557Y19050D01*
X34994Y16100D02*
X34994Y19050D01*
X34994Y22000D01*
X34994Y10273D02*
X34994Y16100D01*
X28615Y9406D02*
X34127Y9406D01*
X53213Y39124D02*
X56126Y42037D01*
X76204Y42037D02*
X76204Y45114D01*
X76204Y39214D02*
X76204Y42037D01*
X67695Y42037D02*
X76204Y42037D01*
X67695Y39214D02*
X67695Y42037D01*
X67695Y45114D01*
X24785Y7747D02*
X28194Y7747D01*
X28194Y7747D02*
X28194Y8985D01*
X28615Y9406D01*
D42*
X29160Y12131D02*
X29210Y12181D01*
X26924Y12131D02*
X29160Y12131D01*
X26899Y12106D02*
X26924Y12131D01*
X26439Y12106D02*
X26899Y12106D01*
X24486Y12106D02*
X26439Y12106D01*
X24486Y12756D02*
X24486Y13301D01*
X24490Y12110D02*
X24490Y12752D01*
X9906Y762D02*
X11684Y2540D01*
X3088Y1484D02*
X3088Y4572D01*
X3088Y1484D02*
X3810Y762D01*
X11684Y2540D02*
X11684Y4064D01*
X13589Y5969D01*
X3810Y762D02*
X9906Y762D01*
X18786Y9642D02*
X23691Y9642D01*
X15113Y5969D02*
X18786Y9642D01*
X13589Y5969D02*
X15113Y5969D01*
X24490Y10441D02*
X24490Y12008D01*
X23691Y9642D02*
X24490Y10441D01*
D43*
X14128Y14362D02*
X14128Y16764D01*
X15431Y13059D02*
X17888Y13059D01*
X14128Y14362D02*
X15431Y13059D01*
D44*
X75565Y52705D02*
D03*
X75565Y50165D02*
D03*
X73025Y52705D02*
D03*
X73025Y50165D02*
D03*
X70485Y52705D02*
D03*
X70485Y50165D02*
D03*
X67945Y52705D02*
D03*
X67945Y50165D02*
D03*
X65405Y52705D02*
D03*
X65405Y50165D02*
D03*
X62865Y52705D02*
D03*
X62865Y50165D02*
D03*
X60325Y52705D02*
D03*
X60325Y50165D02*
D03*
X57785Y52705D02*
D03*
X57785Y50165D02*
D03*
X55245Y52705D02*
D03*
X55245Y50165D02*
D03*
X52705Y52705D02*
D03*
X52705Y50165D02*
D03*
X50165Y52705D02*
D03*
X50165Y50165D02*
D03*
X47625Y52705D02*
D03*
X47625Y50165D02*
D03*
X45085Y52705D02*
D03*
X45085Y50165D02*
D03*
X42545Y52705D02*
D03*
X42545Y50165D02*
D03*
X40005Y52705D02*
D03*
X40005Y50165D02*
D03*
X37465Y52705D02*
D03*
X37465Y50165D02*
D03*
X34925Y52705D02*
D03*
X34925Y50165D02*
D03*
X32385Y52705D02*
D03*
X32385Y50165D02*
D03*
X29845Y52705D02*
D03*
X29845Y50165D02*
D03*
X27305Y52705D02*
D03*
X27305Y50165D02*
D03*
X22225Y52705D02*
D03*
X22225Y50165D02*
D03*
X19685Y52705D02*
D03*
X24765Y50165D02*
D03*
X24765Y52705D02*
D03*
X64770Y24003D02*
D03*
X67310Y24003D02*
D03*
X36120Y38989D02*
D03*
X38660Y38989D02*
D03*
X42545Y47117D02*
D03*
X40005Y47117D02*
D03*
X34925Y47117D02*
D03*
X29845Y47117D02*
D03*
X19685Y47117D02*
D03*
X32385Y47117D02*
D03*
X22225Y47117D02*
D03*
X37465Y47117D02*
D03*
X17145Y47117D02*
D03*
X24765Y47117D02*
D03*
X27305Y47117D02*
D03*
X75565Y4445D02*
D03*
X75565Y1905D02*
D03*
X73025Y4445D02*
D03*
X73025Y1905D02*
D03*
X70485Y4445D02*
D03*
X70485Y1905D02*
D03*
X67945Y4445D02*
D03*
X67945Y1905D02*
D03*
X65405Y4445D02*
D03*
X65405Y1905D02*
D03*
X62865Y4445D02*
D03*
X62865Y1905D02*
D03*
X60325Y4445D02*
D03*
X60325Y1905D02*
D03*
X57785Y4445D02*
D03*
X57785Y1905D02*
D03*
X55245Y4445D02*
D03*
X55245Y1905D02*
D03*
X52705Y4445D02*
D03*
X52705Y1905D02*
D03*
X50165Y4445D02*
D03*
X50165Y1905D02*
D03*
X47625Y4445D02*
D03*
X47625Y1905D02*
D03*
X45085Y4445D02*
D03*
X45085Y1905D02*
D03*
X42545Y4445D02*
D03*
X42545Y1905D02*
D03*
X40005Y4445D02*
D03*
X40005Y1905D02*
D03*
X37465Y4445D02*
D03*
X37465Y1905D02*
D03*
X34925Y4445D02*
D03*
X34925Y1905D02*
D03*
X32385Y4445D02*
D03*
X32385Y1905D02*
D03*
X29845Y4445D02*
D03*
X29845Y1905D02*
D03*
X27305Y4445D02*
D03*
X27305Y1905D02*
D03*
X22225Y4445D02*
D03*
X22225Y1905D02*
D03*
X19685Y4445D02*
D03*
X24765Y1905D02*
D03*
X24765Y4445D02*
D03*
X28194Y7747D02*
D03*
X19705Y7747D02*
D03*
X22245Y7747D02*
D03*
D45*
X19685Y50165D02*
D03*
X69850Y24003D02*
D03*
X41200Y38989D02*
D03*
X14605Y47117D02*
D03*
X19685Y1905D02*
D03*
X30734Y7747D02*
D03*
X24785Y7747D02*
D03*
D46*
X58420Y32766D02*
D03*
X60960Y30226D02*
D03*
X60960Y32766D02*
D03*
X76200Y32766D02*
D03*
X76200Y30226D02*
D03*
X73660Y30226D02*
D03*
X73660Y32766D02*
D03*
X66040Y30226D02*
D03*
X66040Y32766D02*
D03*
X63500Y30226D02*
D03*
X63500Y32766D02*
D03*
X71120Y30226D02*
D03*
X71120Y32766D02*
D03*
X68580Y30226D02*
D03*
X68580Y32766D02*
D03*
X40005Y32766D02*
D03*
X40005Y30226D02*
D03*
X42545Y32766D02*
D03*
X42545Y30226D02*
D03*
X34925Y32766D02*
D03*
X34925Y30226D02*
D03*
X37465Y32766D02*
D03*
X37465Y30226D02*
D03*
X45085Y32766D02*
D03*
X45085Y30226D02*
D03*
X47625Y30226D02*
D03*
X47625Y32766D02*
D03*
X32385Y32766D02*
D03*
X32385Y30226D02*
D03*
X29845Y32766D02*
D03*
D47*
X58420Y30226D02*
D03*
X29845Y30226D02*
D03*
D48*
X8088Y4572D02*
D03*
X3088Y4572D02*
D03*
D49*
X14128Y16764D02*
D03*
D50*
X8128Y16764D02*
D03*
D51*
X11128Y12064D02*
D03*
D52*
X75554Y37853D02*
D03*
X74979Y46711D02*
D03*
X75819Y46703D02*
D03*
X67695Y46990D02*
D03*
X66675Y46990D02*
D03*
X69965Y46703D02*
D03*
X66978Y36005D02*
D03*
X66978Y36996D02*
D03*
X67570Y37771D02*
D03*
X58420Y35687D02*
D03*
X61357Y46711D02*
D03*
X62992Y35687D02*
D03*
X66040Y48006D02*
D03*
X64270Y48006D02*
D03*
X47879Y26035D02*
D03*
X66437Y35205D02*
D03*
X35369Y23368D02*
D03*
X35369Y24866D02*
D03*
X37205Y24866D02*
D03*
X40194Y24458D02*
D03*
X41169Y24458D02*
D03*
X38735Y24458D02*
D03*
X44207Y26035D02*
D03*
X44182Y23368D02*
D03*
X8735Y9642D02*
D03*
X8735Y7874D02*
D03*
X8735Y6223D02*
D03*
X8650Y11770D02*
D03*
X8636Y13160D02*
D03*
X32953Y11684D02*
D03*
X21747Y11501D02*
D03*
X35755Y6756D02*
D03*
X6350Y11704D02*
D03*
X6350Y14371D02*
D03*
X6350Y9582D02*
D03*
X6350Y7747D02*
D03*
X6350Y6229D02*
D03*
X6350Y13059D02*
D03*
X43184Y8283D02*
D03*
X43815Y14559D02*
D03*
X38735Y6756D02*
D03*
X40460Y6756D02*
D03*
X44682Y14559D02*
D03*
X41021Y14559D02*
D03*
X42649Y7481D02*
D03*
X49982Y14559D02*
D03*
X10128Y15836D02*
D03*
X18269Y18296D02*
D03*
X10128Y17346D02*
D03*
X10128Y19017D02*
D03*
X6350Y19016D02*
D03*
X6350Y17346D02*
D03*
X6350Y15764D02*
D03*
X10128Y14448D02*
D03*
X26285Y17796D02*
D03*
X20809Y19246D02*
D03*
M02*
