G04*
G04 #@! TF.GenerationSoftware,Altium Limited,Altium Designer,22.10.1 (41)*
G04*
G04 Layer_Color=2752767*
%FSLAX43Y43*%
%MOMM*%
G71*
G04*
G04 #@! TF.SameCoordinates,A9E92A4C-3054-4B5A-B43F-CED4EE29FA58*
G04*
G04*
G04 #@! TF.FilePolarity,Positive*
G04*
G01*
G75*
%ADD15C,0.127*%
%ADD16C,0.178*%
%ADD60C,0.051*%
%ADD61C,0.068*%
D15*
X41400Y-164500D02*
X41400Y-159420D01*
X-22100Y-104175D02*
X-17020Y-104175D01*
X-22100Y-43850D02*
X-17020Y-43850D01*
X-22100Y16475D02*
X-17020Y16475D01*
X104900Y-164500D02*
X104900Y-159420D01*
X168400Y-164500D02*
X168400Y-159420D01*
X231900Y-164500D02*
X231900Y-159420D01*
X295400Y-164500D02*
X295400Y-159420D01*
X353820Y-104175D02*
X358900Y-104175D01*
X353820Y-43850D02*
X358900Y-43850D01*
X353820Y16475D02*
X358900Y16475D01*
X41400Y71720D02*
X41400Y76800D01*
X104900Y71720D02*
X104900Y76800D01*
X168400Y71720D02*
X168400Y76800D01*
X231900Y71720D02*
X231900Y76800D01*
X295400Y71720D02*
X295400Y76800D01*
D16*
X327582Y-161198D02*
X327497Y-161029D01*
X327243Y-160944D01*
X327074Y-160944D01*
X326820Y-161029D01*
X326650Y-161283D01*
X326566Y-161706D01*
X326566Y-162129D01*
X326650Y-162468D01*
X326820Y-162637D01*
X327074Y-162722D01*
X327158Y-162722D01*
X327412Y-162637D01*
X327582Y-162468D01*
X327666Y-162214D01*
X327666Y-162129D01*
X327582Y-161876D01*
X327412Y-161706D01*
X327158Y-161622D01*
X327074Y-161622D01*
X326820Y-161706D01*
X326650Y-161876D01*
X326566Y-162129D01*
X263955Y-160944D02*
X263108Y-160944D01*
X263023Y-161706D01*
X263108Y-161622D01*
X263362Y-161537D01*
X263616Y-161537D01*
X263870Y-161622D01*
X264039Y-161791D01*
X264124Y-162045D01*
X264124Y-162214D01*
X264039Y-162468D01*
X263870Y-162637D01*
X263616Y-162722D01*
X263362Y-162722D01*
X263108Y-162637D01*
X263023Y-162553D01*
X262939Y-162383D01*
X200311Y-160944D02*
X199464Y-162129D01*
X200734Y-162129D01*
X200311Y-160944D02*
X200311Y-162722D01*
X135964Y-160944D02*
X136896Y-160944D01*
X136388Y-161622D01*
X136642Y-161622D01*
X136811Y-161706D01*
X136896Y-161791D01*
X136980Y-162045D01*
X136980Y-162214D01*
X136896Y-162468D01*
X136726Y-162637D01*
X136472Y-162722D01*
X136218Y-162722D01*
X135964Y-162637D01*
X135880Y-162553D01*
X135795Y-162383D01*
X72650Y-161368D02*
X72650Y-161283D01*
X72735Y-161114D01*
X72820Y-161029D01*
X72989Y-160944D01*
X73328Y-160944D01*
X73497Y-161029D01*
X73582Y-161114D01*
X73666Y-161283D01*
X73666Y-161452D01*
X73582Y-161622D01*
X73412Y-161876D01*
X72566Y-162722D01*
X73751Y-162722D01*
X9176Y-161283D02*
X9345Y-161198D01*
X9599Y-160944D01*
X9599Y-162722D01*
X-20195Y-134732D02*
X-20195Y-136509D01*
X-20195Y-134732D02*
X-19602Y-134732D01*
X-19348Y-134816D01*
X-19179Y-134986D01*
X-19095Y-135155D01*
X-19010Y-135409D01*
X-19010Y-135832D01*
X-19095Y-136086D01*
X-19179Y-136255D01*
X-19348Y-136425D01*
X-19602Y-136509D01*
X-20195Y-136509D01*
X-18925Y-74957D02*
X-19010Y-74788D01*
X-19179Y-74618D01*
X-19348Y-74534D01*
X-19687Y-74534D01*
X-19856Y-74618D01*
X-20026Y-74788D01*
X-20110Y-74957D01*
X-20195Y-75211D01*
X-20195Y-75634D01*
X-20110Y-75888D01*
X-20026Y-76057D01*
X-19856Y-76227D01*
X-19687Y-76311D01*
X-19348Y-76311D01*
X-19179Y-76227D01*
X-19010Y-76057D01*
X-18925Y-75888D01*
X-20195Y-14209D02*
X-20195Y-15986D01*
X-20195Y-14209D02*
X-19433Y-14209D01*
X-19179Y-14293D01*
X-19095Y-14378D01*
X-19010Y-14547D01*
X-19010Y-14716D01*
X-19095Y-14886D01*
X-19179Y-14970D01*
X-19433Y-15055D01*
X-20195Y-15055D02*
X-19433Y-15055D01*
X-19179Y-15140D01*
X-19095Y-15224D01*
X-19010Y-15394D01*
X-19010Y-15648D01*
X-19095Y-15817D01*
X-19179Y-15902D01*
X-19433Y-15986D01*
X-20195Y-15986D01*
X355725Y-134732D02*
X355725Y-136509D01*
X355725Y-134732D02*
X356318Y-134732D01*
X356572Y-134816D01*
X356741Y-134986D01*
X356825Y-135155D01*
X356910Y-135409D01*
X356910Y-135832D01*
X356825Y-136086D01*
X356741Y-136255D01*
X356572Y-136425D01*
X356318Y-136509D01*
X355725Y-136509D01*
X356995Y-74957D02*
X356910Y-74788D01*
X356741Y-74618D01*
X356572Y-74534D01*
X356233Y-74534D01*
X356064Y-74618D01*
X355894Y-74788D01*
X355810Y-74957D01*
X355725Y-75211D01*
X355725Y-75634D01*
X355810Y-75888D01*
X355894Y-76057D01*
X356064Y-76227D01*
X356233Y-76311D01*
X356572Y-76311D01*
X356741Y-76227D01*
X356910Y-76057D01*
X356995Y-75888D01*
X355725Y-14209D02*
X355725Y-15986D01*
X355725Y-14209D02*
X356487Y-14209D01*
X356741Y-14293D01*
X356825Y-14378D01*
X356910Y-14547D01*
X356910Y-14716D01*
X356825Y-14886D01*
X356741Y-14970D01*
X356487Y-15055D01*
X355725Y-15055D02*
X356487Y-15055D01*
X356741Y-15140D01*
X356825Y-15224D01*
X356910Y-15394D01*
X356910Y-15648D01*
X356825Y-15817D01*
X356741Y-15902D01*
X356487Y-15986D01*
X355725Y-15986D01*
X357079Y44466D02*
X356402Y46243D01*
X355725Y44466D01*
X355979Y45058D02*
X356825Y45058D01*
X263955Y75276D02*
X263108Y75276D01*
X263023Y74514D01*
X263108Y74598D01*
X263362Y74683D01*
X263616Y74683D01*
X263870Y74598D01*
X264039Y74429D01*
X264124Y74175D01*
X264124Y74006D01*
X264039Y73752D01*
X263870Y73583D01*
X263616Y73498D01*
X263362Y73498D01*
X263108Y73583D01*
X263023Y73667D01*
X262939Y73837D01*
X200311Y75276D02*
X199464Y74091D01*
X200734Y74091D01*
X200311Y75276D02*
X200311Y73498D01*
X135964Y75276D02*
X136896Y75276D01*
X136388Y74598D01*
X136642Y74598D01*
X136811Y74514D01*
X136896Y74429D01*
X136980Y74175D01*
X136980Y74006D01*
X136896Y73752D01*
X136726Y73583D01*
X136472Y73498D01*
X136218Y73498D01*
X135964Y73583D01*
X135880Y73667D01*
X135795Y73837D01*
X72650Y74852D02*
X72650Y74937D01*
X72735Y75106D01*
X72820Y75191D01*
X72989Y75276D01*
X73328Y75276D01*
X73497Y75191D01*
X73582Y75106D01*
X73666Y74937D01*
X73666Y74768D01*
X73582Y74598D01*
X73412Y74344D01*
X72566Y73498D01*
X73751Y73498D01*
D60*
X75565Y52502D02*
X75362Y52908D01*
X75768Y52908D01*
X75565Y52502D01*
X75565Y49962D02*
X75362Y50368D01*
X75768Y50368D01*
X75565Y49962D01*
X73025Y52502D02*
X72822Y52908D01*
X73228Y52908D01*
X73025Y52502D01*
X73025Y49962D02*
X72822Y50368D01*
X73228Y50368D01*
X73025Y49962D01*
X70485Y52502D02*
X70282Y52908D01*
X70688Y52908D01*
X70485Y52502D01*
X70485Y49962D02*
X70282Y50368D01*
X70688Y50368D01*
X70485Y49962D01*
X67945Y52502D02*
X67742Y52908D01*
X68148Y52908D01*
X67945Y52502D01*
X67945Y49962D02*
X67742Y50368D01*
X68148Y50368D01*
X67945Y49962D01*
X65405Y52502D02*
X65202Y52908D01*
X65608Y52908D01*
X65405Y52502D01*
X65405Y49962D02*
X65202Y50368D01*
X65608Y50368D01*
X65405Y49962D01*
X62865Y52502D02*
X62662Y52908D01*
X63068Y52908D01*
X62865Y52502D01*
X62865Y49962D02*
X62662Y50368D01*
X63068Y50368D01*
X62865Y49962D01*
X60325Y52502D02*
X60122Y52908D01*
X60528Y52908D01*
X60325Y52502D01*
X60325Y49962D02*
X60122Y50368D01*
X60528Y50368D01*
X60325Y49962D01*
X57785Y52502D02*
X57582Y52908D01*
X57988Y52908D01*
X57785Y52502D01*
X57785Y49962D02*
X57582Y50368D01*
X57988Y50368D01*
X57785Y49962D01*
X55245Y52502D02*
X55042Y52908D01*
X55448Y52908D01*
X55245Y52502D01*
X55245Y49962D02*
X55042Y50368D01*
X55448Y50368D01*
X55245Y49962D01*
X52705Y52502D02*
X52502Y52908D01*
X52908Y52908D01*
X52705Y52502D01*
X52705Y49962D02*
X52502Y50368D01*
X52908Y50368D01*
X52705Y49962D01*
X50165Y52502D02*
X49962Y52908D01*
X50368Y52908D01*
X50165Y52502D01*
X50165Y49962D02*
X49962Y50368D01*
X50368Y50368D01*
X50165Y49962D01*
X47625Y52502D02*
X47422Y52908D01*
X47828Y52908D01*
X47625Y52502D01*
X47625Y49962D02*
X47422Y50368D01*
X47828Y50368D01*
X47625Y49962D01*
X45085Y52502D02*
X44882Y52908D01*
X45288Y52908D01*
X45085Y52502D01*
X45085Y49962D02*
X44882Y50368D01*
X45288Y50368D01*
X45085Y49962D01*
X42545Y52502D02*
X42342Y52908D01*
X42748Y52908D01*
X42545Y52502D01*
X42545Y49962D02*
X42342Y50368D01*
X42748Y50368D01*
X42545Y49962D01*
X40005Y52502D02*
X39802Y52908D01*
X40208Y52908D01*
X40005Y52502D01*
X40005Y49962D02*
X39802Y50368D01*
X40208Y50368D01*
X40005Y49962D01*
X37465Y52502D02*
X37262Y52908D01*
X37668Y52908D01*
X37465Y52502D01*
X37465Y49962D02*
X37262Y50368D01*
X37668Y50368D01*
X37465Y49962D01*
X34925Y52502D02*
X34722Y52908D01*
X35128Y52908D01*
X34925Y52502D01*
X34925Y49962D02*
X34722Y50368D01*
X35128Y50368D01*
X34925Y49962D01*
X32385Y52502D02*
X32182Y52908D01*
X32588Y52908D01*
X32385Y52502D01*
X32385Y49962D02*
X32182Y50368D01*
X32588Y50368D01*
X32385Y49962D01*
X29845Y52502D02*
X29642Y52908D01*
X30048Y52908D01*
X29845Y52502D01*
X29845Y49962D02*
X29642Y50368D01*
X30048Y50368D01*
X29845Y49962D01*
X27305Y52502D02*
X27102Y52908D01*
X27508Y52908D01*
X27305Y52502D01*
X27305Y49962D02*
X27102Y50368D01*
X27508Y50368D01*
X27305Y49962D01*
X22225Y52502D02*
X22022Y52908D01*
X22428Y52908D01*
X22225Y52502D01*
X22225Y49962D02*
X22022Y50368D01*
X22428Y50368D01*
X22225Y49962D01*
X19685Y52502D02*
X19482Y52908D01*
X19888Y52908D01*
X19685Y52502D01*
X19685Y49962D02*
X19482Y50368D01*
X19888Y50368D01*
X19685Y49962D01*
X24765Y49962D02*
X24562Y50368D01*
X24968Y50368D01*
X24765Y49962D01*
X24765Y52502D02*
X24562Y52908D01*
X24968Y52908D01*
X24765Y52502D01*
X58420Y32563D02*
X58522Y32664D01*
X58623Y32664D01*
X58522Y32766D01*
X58623Y32868D01*
X58522Y32868D01*
X58420Y32969D01*
X58318Y32868D01*
X58217Y32868D01*
X58318Y32766D01*
X58217Y32664D01*
X58318Y32664D01*
X58420Y32563D01*
X58420Y30023D02*
X58522Y30124D01*
X58623Y30124D01*
X58522Y30226D01*
X58623Y30328D01*
X58522Y30328D01*
X58420Y30429D01*
X58318Y30328D01*
X58217Y30328D01*
X58318Y30226D01*
X58217Y30124D01*
X58318Y30124D01*
X58420Y30023D01*
X60960Y30023D02*
X61062Y30124D01*
X61163Y30124D01*
X61062Y30226D01*
X61163Y30328D01*
X61062Y30328D01*
X60960Y30429D01*
X60858Y30328D01*
X60757Y30328D01*
X60858Y30226D01*
X60757Y30124D01*
X60858Y30124D01*
X60960Y30023D01*
X60960Y32563D02*
X61062Y32664D01*
X61163Y32664D01*
X61062Y32766D01*
X61163Y32868D01*
X61062Y32868D01*
X60960Y32969D01*
X60858Y32868D01*
X60757Y32868D01*
X60858Y32766D01*
X60757Y32664D01*
X60858Y32664D01*
X60960Y32563D01*
X76200Y32563D02*
X76302Y32664D01*
X76403Y32664D01*
X76302Y32766D01*
X76403Y32868D01*
X76302Y32868D01*
X76200Y32969D01*
X76098Y32868D01*
X75997Y32868D01*
X76098Y32766D01*
X75997Y32664D01*
X76098Y32664D01*
X76200Y32563D01*
X76200Y30023D02*
X76302Y30124D01*
X76403Y30124D01*
X76302Y30226D01*
X76403Y30328D01*
X76302Y30328D01*
X76200Y30429D01*
X76098Y30328D01*
X75997Y30328D01*
X76098Y30226D01*
X75997Y30124D01*
X76098Y30124D01*
X76200Y30023D01*
X73660Y30023D02*
X73762Y30124D01*
X73863Y30124D01*
X73762Y30226D01*
X73863Y30328D01*
X73762Y30328D01*
X73660Y30429D01*
X73558Y30328D01*
X73457Y30328D01*
X73558Y30226D01*
X73457Y30124D01*
X73558Y30124D01*
X73660Y30023D01*
X73660Y32563D02*
X73762Y32664D01*
X73863Y32664D01*
X73762Y32766D01*
X73863Y32868D01*
X73762Y32868D01*
X73660Y32969D01*
X73558Y32868D01*
X73457Y32868D01*
X73558Y32766D01*
X73457Y32664D01*
X73558Y32664D01*
X73660Y32563D01*
X66040Y30023D02*
X66142Y30124D01*
X66243Y30124D01*
X66142Y30226D01*
X66243Y30328D01*
X66142Y30328D01*
X66040Y30429D01*
X65938Y30328D01*
X65837Y30328D01*
X65938Y30226D01*
X65837Y30124D01*
X65938Y30124D01*
X66040Y30023D01*
X66040Y32563D02*
X66142Y32664D01*
X66243Y32664D01*
X66142Y32766D01*
X66243Y32868D01*
X66142Y32868D01*
X66040Y32969D01*
X65938Y32868D01*
X65837Y32868D01*
X65938Y32766D01*
X65837Y32664D01*
X65938Y32664D01*
X66040Y32563D01*
X63500Y30023D02*
X63602Y30124D01*
X63703Y30124D01*
X63602Y30226D01*
X63703Y30328D01*
X63602Y30328D01*
X63500Y30429D01*
X63398Y30328D01*
X63297Y30328D01*
X63398Y30226D01*
X63297Y30124D01*
X63398Y30124D01*
X63500Y30023D01*
X63500Y32563D02*
X63602Y32664D01*
X63703Y32664D01*
X63602Y32766D01*
X63703Y32868D01*
X63602Y32868D01*
X63500Y32969D01*
X63398Y32868D01*
X63297Y32868D01*
X63398Y32766D01*
X63297Y32664D01*
X63398Y32664D01*
X63500Y32563D01*
X71120Y30023D02*
X71222Y30124D01*
X71323Y30124D01*
X71222Y30226D01*
X71323Y30328D01*
X71222Y30328D01*
X71120Y30429D01*
X71018Y30328D01*
X70917Y30328D01*
X71018Y30226D01*
X70917Y30124D01*
X71018Y30124D01*
X71120Y30023D01*
X71120Y32563D02*
X71222Y32664D01*
X71323Y32664D01*
X71222Y32766D01*
X71323Y32868D01*
X71222Y32868D01*
X71120Y32969D01*
X71018Y32868D01*
X70917Y32868D01*
X71018Y32766D01*
X70917Y32664D01*
X71018Y32664D01*
X71120Y32563D01*
X68580Y30023D02*
X68682Y30124D01*
X68783Y30124D01*
X68682Y30226D01*
X68783Y30328D01*
X68682Y30328D01*
X68580Y30429D01*
X68478Y30328D01*
X68377Y30328D01*
X68478Y30226D01*
X68377Y30124D01*
X68478Y30124D01*
X68580Y30023D01*
X68580Y32563D02*
X68682Y32664D01*
X68783Y32664D01*
X68682Y32766D01*
X68783Y32868D01*
X68682Y32868D01*
X68580Y32969D01*
X68478Y32868D01*
X68377Y32868D01*
X68478Y32766D01*
X68377Y32664D01*
X68478Y32664D01*
X68580Y32563D01*
X64770Y23800D02*
X64567Y24206D01*
X64973Y24206D01*
X64770Y23800D01*
X67310Y23800D02*
X67107Y24206D01*
X67513Y24206D01*
X67310Y23800D01*
X69850Y23800D02*
X69647Y24206D01*
X70053Y24206D01*
X69850Y23800D01*
X36120Y38786D02*
X35917Y39192D01*
X36323Y39192D01*
X36120Y38786D01*
X38660Y38786D02*
X38457Y39192D01*
X38863Y39192D01*
X38660Y38786D01*
X41200Y38786D02*
X40997Y39192D01*
X41403Y39192D01*
X41200Y38786D01*
X42545Y46914D02*
X42342Y47320D01*
X42748Y47320D01*
X42545Y46914D01*
X40005Y46914D02*
X39802Y47320D01*
X40208Y47320D01*
X40005Y46914D01*
X34925Y46914D02*
X34722Y47320D01*
X35128Y47320D01*
X34925Y46914D01*
X29845Y46914D02*
X29642Y47320D01*
X30048Y47320D01*
X29845Y46914D01*
X19685Y46914D02*
X19482Y47320D01*
X19888Y47320D01*
X19685Y46914D01*
X32385Y46914D02*
X32182Y47320D01*
X32588Y47320D01*
X32385Y46914D01*
X22225Y46914D02*
X22022Y47320D01*
X22428Y47320D01*
X22225Y46914D01*
X37465Y46914D02*
X37262Y47320D01*
X37668Y47320D01*
X37465Y46914D01*
X17145Y46914D02*
X16942Y47320D01*
X17348Y47320D01*
X17145Y46914D01*
X14605Y46914D02*
X14402Y47320D01*
X14808Y47320D01*
X14605Y46914D01*
X24765Y46914D02*
X24562Y47320D01*
X24968Y47320D01*
X24765Y46914D01*
X27305Y46914D02*
X27102Y47320D01*
X27508Y47320D01*
X27305Y46914D01*
X40005Y32563D02*
X40107Y32664D01*
X40208Y32664D01*
X40107Y32766D01*
X40208Y32868D01*
X40107Y32868D01*
X40005Y32969D01*
X39903Y32868D01*
X39802Y32868D01*
X39903Y32766D01*
X39802Y32664D01*
X39903Y32664D01*
X40005Y32563D01*
X40005Y30023D02*
X40107Y30124D01*
X40208Y30124D01*
X40107Y30226D01*
X40208Y30328D01*
X40107Y30328D01*
X40005Y30429D01*
X39903Y30328D01*
X39802Y30328D01*
X39903Y30226D01*
X39802Y30124D01*
X39903Y30124D01*
X40005Y30023D01*
X42545Y32563D02*
X42647Y32664D01*
X42748Y32664D01*
X42647Y32766D01*
X42748Y32868D01*
X42647Y32868D01*
X42545Y32969D01*
X42443Y32868D01*
X42342Y32868D01*
X42443Y32766D01*
X42342Y32664D01*
X42443Y32664D01*
X42545Y32563D01*
X42545Y30023D02*
X42647Y30124D01*
X42748Y30124D01*
X42647Y30226D01*
X42748Y30328D01*
X42647Y30328D01*
X42545Y30429D01*
X42443Y30328D01*
X42342Y30328D01*
X42443Y30226D01*
X42342Y30124D01*
X42443Y30124D01*
X42545Y30023D01*
X34925Y32563D02*
X35027Y32664D01*
X35128Y32664D01*
X35027Y32766D01*
X35128Y32868D01*
X35027Y32868D01*
X34925Y32969D01*
X34823Y32868D01*
X34722Y32868D01*
X34823Y32766D01*
X34722Y32664D01*
X34823Y32664D01*
X34925Y32563D01*
X34925Y30023D02*
X35027Y30124D01*
X35128Y30124D01*
X35027Y30226D01*
X35128Y30328D01*
X35027Y30328D01*
X34925Y30429D01*
X34823Y30328D01*
X34722Y30328D01*
X34823Y30226D01*
X34722Y30124D01*
X34823Y30124D01*
X34925Y30023D01*
X37465Y32563D02*
X37567Y32664D01*
X37668Y32664D01*
X37567Y32766D01*
X37668Y32868D01*
X37567Y32868D01*
X37465Y32969D01*
X37363Y32868D01*
X37262Y32868D01*
X37363Y32766D01*
X37262Y32664D01*
X37363Y32664D01*
X37465Y32563D01*
X37465Y30023D02*
X37567Y30124D01*
X37668Y30124D01*
X37567Y30226D01*
X37668Y30328D01*
X37567Y30328D01*
X37465Y30429D01*
X37363Y30328D01*
X37262Y30328D01*
X37363Y30226D01*
X37262Y30124D01*
X37363Y30124D01*
X37465Y30023D01*
X45085Y32563D02*
X45187Y32664D01*
X45288Y32664D01*
X45187Y32766D01*
X45288Y32868D01*
X45187Y32868D01*
X45085Y32969D01*
X44983Y32868D01*
X44882Y32868D01*
X44983Y32766D01*
X44882Y32664D01*
X44983Y32664D01*
X45085Y32563D01*
X45085Y30023D02*
X45187Y30124D01*
X45288Y30124D01*
X45187Y30226D01*
X45288Y30328D01*
X45187Y30328D01*
X45085Y30429D01*
X44983Y30328D01*
X44882Y30328D01*
X44983Y30226D01*
X44882Y30124D01*
X44983Y30124D01*
X45085Y30023D01*
X47625Y30023D02*
X47727Y30124D01*
X47828Y30124D01*
X47727Y30226D01*
X47828Y30328D01*
X47727Y30328D01*
X47625Y30429D01*
X47523Y30328D01*
X47422Y30328D01*
X47523Y30226D01*
X47422Y30124D01*
X47523Y30124D01*
X47625Y30023D01*
X47625Y32563D02*
X47727Y32664D01*
X47828Y32664D01*
X47727Y32766D01*
X47828Y32868D01*
X47727Y32868D01*
X47625Y32969D01*
X47523Y32868D01*
X47422Y32868D01*
X47523Y32766D01*
X47422Y32664D01*
X47523Y32664D01*
X47625Y32563D01*
X32385Y32563D02*
X32487Y32664D01*
X32588Y32664D01*
X32487Y32766D01*
X32588Y32868D01*
X32487Y32868D01*
X32385Y32969D01*
X32283Y32868D01*
X32182Y32868D01*
X32283Y32766D01*
X32182Y32664D01*
X32283Y32664D01*
X32385Y32563D01*
X32385Y30023D02*
X32487Y30124D01*
X32588Y30124D01*
X32487Y30226D01*
X32588Y30328D01*
X32487Y30328D01*
X32385Y30429D01*
X32283Y30328D01*
X32182Y30328D01*
X32283Y30226D01*
X32182Y30124D01*
X32283Y30124D01*
X32385Y30023D01*
X29845Y30023D02*
X29947Y30124D01*
X30048Y30124D01*
X29947Y30226D01*
X30048Y30328D01*
X29947Y30328D01*
X29845Y30429D01*
X29743Y30328D01*
X29642Y30328D01*
X29743Y30226D01*
X29642Y30124D01*
X29743Y30124D01*
X29845Y30023D01*
X29845Y32563D02*
X29947Y32664D01*
X30048Y32664D01*
X29947Y32766D01*
X30048Y32868D01*
X29947Y32868D01*
X29845Y32969D01*
X29743Y32868D01*
X29642Y32868D01*
X29743Y32766D01*
X29642Y32664D01*
X29743Y32664D01*
X29845Y32563D01*
X75565Y4242D02*
X75362Y4648D01*
X75768Y4648D01*
X75565Y4242D01*
X75565Y1702D02*
X75362Y2108D01*
X75768Y2108D01*
X75565Y1702D01*
X73025Y4242D02*
X72822Y4648D01*
X73228Y4648D01*
X73025Y4242D01*
X73025Y1702D02*
X72822Y2108D01*
X73228Y2108D01*
X73025Y1702D01*
X70485Y4242D02*
X70282Y4648D01*
X70688Y4648D01*
X70485Y4242D01*
X70485Y1702D02*
X70282Y2108D01*
X70688Y2108D01*
X70485Y1702D01*
X67945Y4242D02*
X67742Y4648D01*
X68148Y4648D01*
X67945Y4242D01*
X67945Y1702D02*
X67742Y2108D01*
X68148Y2108D01*
X67945Y1702D01*
X65405Y4242D02*
X65202Y4648D01*
X65608Y4648D01*
X65405Y4242D01*
X65405Y1702D02*
X65202Y2108D01*
X65608Y2108D01*
X65405Y1702D01*
X62865Y4242D02*
X62662Y4648D01*
X63068Y4648D01*
X62865Y4242D01*
X62865Y1702D02*
X62662Y2108D01*
X63068Y2108D01*
X62865Y1702D01*
X60325Y4242D02*
X60122Y4648D01*
X60528Y4648D01*
X60325Y4242D01*
X60325Y1702D02*
X60122Y2108D01*
X60528Y2108D01*
X60325Y1702D01*
X57785Y4242D02*
X57582Y4648D01*
X57988Y4648D01*
X57785Y4242D01*
X57785Y1702D02*
X57582Y2108D01*
X57988Y2108D01*
X57785Y1702D01*
X55245Y4242D02*
X55042Y4648D01*
X55448Y4648D01*
X55245Y4242D01*
X55245Y1702D02*
X55042Y2108D01*
X55448Y2108D01*
X55245Y1702D01*
X52705Y4242D02*
X52502Y4648D01*
X52908Y4648D01*
X52705Y4242D01*
X52705Y1702D02*
X52502Y2108D01*
X52908Y2108D01*
X52705Y1702D01*
X50165Y4242D02*
X49962Y4648D01*
X50368Y4648D01*
X50165Y4242D01*
X50165Y1702D02*
X49962Y2108D01*
X50368Y2108D01*
X50165Y1702D01*
X47625Y4242D02*
X47422Y4648D01*
X47828Y4648D01*
X47625Y4242D01*
X47625Y1702D02*
X47422Y2108D01*
X47828Y2108D01*
X47625Y1702D01*
X45085Y4242D02*
X44882Y4648D01*
X45288Y4648D01*
X45085Y4242D01*
X45085Y1702D02*
X44882Y2108D01*
X45288Y2108D01*
X45085Y1702D01*
X42545Y4242D02*
X42342Y4648D01*
X42748Y4648D01*
X42545Y4242D01*
X42545Y1702D02*
X42342Y2108D01*
X42748Y2108D01*
X42545Y1702D01*
X40005Y4242D02*
X39802Y4648D01*
X40208Y4648D01*
X40005Y4242D01*
X40005Y1702D02*
X39802Y2108D01*
X40208Y2108D01*
X40005Y1702D01*
X37465Y4242D02*
X37262Y4648D01*
X37668Y4648D01*
X37465Y4242D01*
X37465Y1702D02*
X37262Y2108D01*
X37668Y2108D01*
X37465Y1702D01*
X34925Y4242D02*
X34722Y4648D01*
X35128Y4648D01*
X34925Y4242D01*
X34925Y1702D02*
X34722Y2108D01*
X35128Y2108D01*
X34925Y1702D01*
X32385Y4242D02*
X32182Y4648D01*
X32588Y4648D01*
X32385Y4242D01*
X32385Y1702D02*
X32182Y2108D01*
X32588Y2108D01*
X32385Y1702D01*
X29845Y4242D02*
X29642Y4648D01*
X30048Y4648D01*
X29845Y4242D01*
X29845Y1702D02*
X29642Y2108D01*
X30048Y2108D01*
X29845Y1702D01*
X27305Y4242D02*
X27102Y4648D01*
X27508Y4648D01*
X27305Y4242D01*
X27305Y1702D02*
X27102Y2108D01*
X27508Y2108D01*
X27305Y1702D01*
X22225Y4242D02*
X22022Y4648D01*
X22428Y4648D01*
X22225Y4242D01*
X22225Y1702D02*
X22022Y2108D01*
X22428Y2108D01*
X22225Y1702D01*
X19685Y4242D02*
X19482Y4648D01*
X19888Y4648D01*
X19685Y4242D01*
X19685Y1702D02*
X19482Y2108D01*
X19888Y2108D01*
X19685Y1702D01*
X24765Y1702D02*
X24562Y2108D01*
X24968Y2108D01*
X24765Y1702D01*
X24765Y4242D02*
X24562Y4648D01*
X24968Y4648D01*
X24765Y4242D01*
X7885Y4369D02*
X7885Y4775D01*
X8291Y4775D01*
X8291Y4369D01*
X7885Y4369D01*
X2885Y4369D02*
X2885Y4775D01*
X3291Y4775D01*
X3291Y4369D01*
X2885Y4369D01*
X13925Y16561D02*
X14026Y16764D01*
X13925Y16967D01*
X14128Y16866D01*
X14331Y16967D01*
X14230Y16764D01*
X14331Y16561D01*
X14128Y16662D01*
X13925Y16561D01*
X8026Y16662D02*
X8026Y16561D01*
X8230Y16561D01*
X8230Y16662D01*
X8331Y16662D01*
X8331Y16866D01*
X8230Y16866D01*
X8230Y16967D01*
X8026Y16967D01*
X8026Y16866D01*
X7925Y16866D01*
X7925Y16662D01*
X8026Y16662D01*
X11026Y11962D02*
X11026Y11861D01*
X11230Y11861D01*
X11230Y11962D01*
X11331Y11962D01*
X11331Y12166D01*
X11230Y12166D01*
X11230Y12267D01*
X11026Y12267D01*
X11026Y12166D01*
X10925Y12166D01*
X10925Y11962D01*
X11026Y11962D01*
X30734Y7544D02*
X30531Y7950D01*
X30937Y7950D01*
X30734Y7544D01*
X28194Y7544D02*
X27991Y7950D01*
X28397Y7950D01*
X28194Y7544D01*
X19705Y7544D02*
X19502Y7950D01*
X19908Y7950D01*
X19705Y7544D01*
X22245Y7544D02*
X22042Y7950D01*
X22448Y7950D01*
X22245Y7544D01*
X24785Y7544D02*
X24582Y7950D01*
X24988Y7950D01*
X24785Y7544D01*
X75351Y37650D02*
X75452Y37650D01*
X75554Y37751D01*
X75656Y37650D01*
X75757Y37650D01*
X75757Y37751D01*
X75656Y37853D01*
X75757Y37955D01*
X75757Y38056D01*
X75656Y38056D01*
X75554Y37955D01*
X75452Y38056D01*
X75351Y38056D01*
X75351Y37955D01*
X75452Y37853D01*
X75351Y37751D01*
X75351Y37650D01*
X74776Y46508D02*
X74877Y46508D01*
X74979Y46609D01*
X75081Y46508D01*
X75182Y46508D01*
X75182Y46609D01*
X75081Y46711D01*
X75182Y46813D01*
X75182Y46914D01*
X75081Y46914D01*
X74979Y46813D01*
X74877Y46914D01*
X74776Y46914D01*
X74776Y46813D01*
X74877Y46711D01*
X74776Y46609D01*
X74776Y46508D01*
X75616Y46500D02*
X75717Y46500D01*
X75819Y46601D01*
X75921Y46500D01*
X76022Y46500D01*
X76022Y46601D01*
X75921Y46703D01*
X76022Y46804D01*
X76022Y46906D01*
X75921Y46906D01*
X75819Y46804D01*
X75717Y46906D01*
X75616Y46906D01*
X75616Y46804D01*
X75717Y46703D01*
X75616Y46601D01*
X75616Y46500D01*
X67492Y46787D02*
X67593Y46787D01*
X67695Y46888D01*
X67797Y46787D01*
X67898Y46787D01*
X67898Y46888D01*
X67797Y46990D01*
X67898Y47092D01*
X67898Y47193D01*
X67797Y47193D01*
X67695Y47092D01*
X67593Y47193D01*
X67492Y47193D01*
X67492Y47092D01*
X67593Y46990D01*
X67492Y46888D01*
X67492Y46787D01*
X66472Y46787D02*
X66573Y46787D01*
X66675Y46888D01*
X66777Y46787D01*
X66878Y46787D01*
X66878Y46888D01*
X66777Y46990D01*
X66878Y47092D01*
X66878Y47193D01*
X66777Y47193D01*
X66675Y47092D01*
X66573Y47193D01*
X66472Y47193D01*
X66472Y47092D01*
X66573Y46990D01*
X66472Y46888D01*
X66472Y46787D01*
X69762Y46500D02*
X69864Y46500D01*
X69965Y46601D01*
X70067Y46500D01*
X70169Y46500D01*
X70169Y46601D01*
X70067Y46703D01*
X70169Y46804D01*
X70169Y46906D01*
X70067Y46906D01*
X69965Y46804D01*
X69864Y46906D01*
X69762Y46906D01*
X69762Y46804D01*
X69864Y46703D01*
X69762Y46601D01*
X69762Y46500D01*
X66775Y35802D02*
X66877Y35802D01*
X66978Y35903D01*
X67080Y35802D01*
X67181Y35802D01*
X67181Y35903D01*
X67080Y36005D01*
X67181Y36107D01*
X67181Y36208D01*
X67080Y36208D01*
X66978Y36107D01*
X66877Y36208D01*
X66775Y36208D01*
X66775Y36107D01*
X66877Y36005D01*
X66775Y35903D01*
X66775Y35802D01*
X66775Y36793D02*
X66877Y36793D01*
X66978Y36894D01*
X67080Y36793D01*
X67181Y36793D01*
X67181Y36894D01*
X67080Y36996D01*
X67181Y37098D01*
X67181Y37199D01*
X67080Y37199D01*
X66978Y37098D01*
X66877Y37199D01*
X66775Y37199D01*
X66775Y37098D01*
X66877Y36996D01*
X66775Y36894D01*
X66775Y36793D01*
X67367Y37568D02*
X67468Y37568D01*
X67570Y37669D01*
X67672Y37568D01*
X67773Y37568D01*
X67773Y37669D01*
X67672Y37771D01*
X67773Y37873D01*
X67773Y37974D01*
X67672Y37974D01*
X67570Y37873D01*
X67468Y37974D01*
X67367Y37974D01*
X67367Y37873D01*
X67468Y37771D01*
X67367Y37669D01*
X67367Y37568D01*
X58217Y35484D02*
X58318Y35484D01*
X58420Y35585D01*
X58522Y35484D01*
X58623Y35484D01*
X58623Y35585D01*
X58522Y35687D01*
X58623Y35789D01*
X58623Y35890D01*
X58522Y35890D01*
X58420Y35789D01*
X58318Y35890D01*
X58217Y35890D01*
X58217Y35789D01*
X58318Y35687D01*
X58217Y35585D01*
X58217Y35484D01*
X61153Y46508D02*
X61255Y46508D01*
X61357Y46609D01*
X61458Y46508D01*
X61560Y46508D01*
X61560Y46609D01*
X61458Y46711D01*
X61560Y46813D01*
X61560Y46914D01*
X61458Y46914D01*
X61357Y46813D01*
X61255Y46914D01*
X61153Y46914D01*
X61153Y46813D01*
X61255Y46711D01*
X61153Y46609D01*
X61153Y46508D01*
X62789Y35484D02*
X62890Y35484D01*
X62992Y35585D01*
X63094Y35484D01*
X63195Y35484D01*
X63195Y35585D01*
X63094Y35687D01*
X63195Y35789D01*
X63195Y35890D01*
X63094Y35890D01*
X62992Y35789D01*
X62890Y35890D01*
X62789Y35890D01*
X62789Y35789D01*
X62890Y35687D01*
X62789Y35585D01*
X62789Y35484D01*
X65837Y47803D02*
X65938Y47803D01*
X66040Y47904D01*
X66142Y47803D01*
X66243Y47803D01*
X66243Y47904D01*
X66142Y48006D01*
X66243Y48108D01*
X66243Y48209D01*
X66142Y48209D01*
X66040Y48108D01*
X65938Y48209D01*
X65837Y48209D01*
X65837Y48108D01*
X65938Y48006D01*
X65837Y47904D01*
X65837Y47803D01*
X64067Y47803D02*
X64168Y47803D01*
X64270Y47904D01*
X64372Y47803D01*
X64473Y47803D01*
X64473Y47904D01*
X64372Y48006D01*
X64473Y48108D01*
X64473Y48209D01*
X64372Y48209D01*
X64270Y48108D01*
X64168Y48209D01*
X64067Y48209D01*
X64067Y48108D01*
X64168Y48006D01*
X64067Y47904D01*
X64067Y47803D01*
X47676Y25832D02*
X47777Y25832D01*
X47879Y25933D01*
X47981Y25832D01*
X48082Y25832D01*
X48082Y25933D01*
X47981Y26035D01*
X48082Y26137D01*
X48082Y26238D01*
X47981Y26238D01*
X47879Y26137D01*
X47777Y26238D01*
X47676Y26238D01*
X47676Y26137D01*
X47777Y26035D01*
X47676Y25933D01*
X47676Y25832D01*
X66234Y35002D02*
X66335Y35002D01*
X66437Y35103D01*
X66539Y35002D01*
X66640Y35002D01*
X66640Y35103D01*
X66539Y35205D01*
X66640Y35307D01*
X66640Y35408D01*
X66539Y35408D01*
X66437Y35307D01*
X66335Y35408D01*
X66234Y35408D01*
X66234Y35307D01*
X66335Y35205D01*
X66234Y35103D01*
X66234Y35002D01*
X35165Y23165D02*
X35267Y23165D01*
X35369Y23266D01*
X35470Y23165D01*
X35572Y23165D01*
X35572Y23266D01*
X35470Y23368D01*
X35572Y23470D01*
X35572Y23571D01*
X35470Y23571D01*
X35369Y23470D01*
X35267Y23571D01*
X35165Y23571D01*
X35165Y23470D01*
X35267Y23368D01*
X35165Y23266D01*
X35165Y23165D01*
X35165Y24663D02*
X35267Y24663D01*
X35369Y24764D01*
X35470Y24663D01*
X35572Y24663D01*
X35572Y24764D01*
X35470Y24866D01*
X35572Y24967D01*
X35572Y25069D01*
X35470Y25069D01*
X35369Y24967D01*
X35267Y25069D01*
X35165Y25069D01*
X35165Y24967D01*
X35267Y24866D01*
X35165Y24764D01*
X35165Y24663D01*
X37002Y24663D02*
X37103Y24663D01*
X37205Y24764D01*
X37307Y24663D01*
X37408Y24663D01*
X37408Y24764D01*
X37307Y24866D01*
X37408Y24967D01*
X37408Y25069D01*
X37307Y25069D01*
X37205Y24967D01*
X37103Y25069D01*
X37002Y25069D01*
X37002Y24967D01*
X37103Y24866D01*
X37002Y24764D01*
X37002Y24663D01*
X39991Y24255D02*
X40092Y24255D01*
X40194Y24357D01*
X40296Y24255D01*
X40397Y24255D01*
X40397Y24357D01*
X40296Y24458D01*
X40397Y24560D01*
X40397Y24661D01*
X40296Y24661D01*
X40194Y24560D01*
X40092Y24661D01*
X39991Y24661D01*
X39991Y24560D01*
X40092Y24458D01*
X39991Y24357D01*
X39991Y24255D01*
X40966Y24255D02*
X41067Y24255D01*
X41169Y24357D01*
X41271Y24255D01*
X41372Y24255D01*
X41372Y24357D01*
X41271Y24458D01*
X41372Y24560D01*
X41372Y24661D01*
X41271Y24661D01*
X41169Y24560D01*
X41067Y24661D01*
X40966Y24661D01*
X40966Y24560D01*
X41067Y24458D01*
X40966Y24357D01*
X40966Y24255D01*
X38532Y24255D02*
X38633Y24255D01*
X38735Y24357D01*
X38837Y24255D01*
X38938Y24255D01*
X38938Y24357D01*
X38837Y24458D01*
X38938Y24560D01*
X38938Y24661D01*
X38837Y24661D01*
X38735Y24560D01*
X38633Y24661D01*
X38532Y24661D01*
X38532Y24560D01*
X38633Y24458D01*
X38532Y24357D01*
X38532Y24255D01*
X44004Y25832D02*
X44105Y25832D01*
X44207Y25933D01*
X44309Y25832D01*
X44410Y25832D01*
X44410Y25933D01*
X44309Y26035D01*
X44410Y26137D01*
X44410Y26238D01*
X44309Y26238D01*
X44207Y26137D01*
X44105Y26238D01*
X44004Y26238D01*
X44004Y26137D01*
X44105Y26035D01*
X44004Y25933D01*
X44004Y25832D01*
X43979Y23165D02*
X44080Y23165D01*
X44182Y23266D01*
X44284Y23165D01*
X44385Y23165D01*
X44385Y23266D01*
X44284Y23368D01*
X44385Y23470D01*
X44385Y23571D01*
X44284Y23571D01*
X44182Y23470D01*
X44080Y23571D01*
X43979Y23571D01*
X43979Y23470D01*
X44080Y23368D01*
X43979Y23266D01*
X43979Y23165D01*
X8532Y9439D02*
X8634Y9439D01*
X8735Y9540D01*
X8837Y9439D01*
X8939Y9439D01*
X8939Y9540D01*
X8837Y9642D01*
X8939Y9743D01*
X8939Y9845D01*
X8837Y9845D01*
X8735Y9743D01*
X8634Y9845D01*
X8532Y9845D01*
X8532Y9743D01*
X8634Y9642D01*
X8532Y9540D01*
X8532Y9439D01*
X8532Y7671D02*
X8634Y7671D01*
X8735Y7772D01*
X8837Y7671D01*
X8939Y7671D01*
X8939Y7772D01*
X8837Y7874D01*
X8939Y7976D01*
X8939Y8077D01*
X8837Y8077D01*
X8735Y7976D01*
X8634Y8077D01*
X8532Y8077D01*
X8532Y7976D01*
X8634Y7874D01*
X8532Y7772D01*
X8532Y7671D01*
X8532Y6020D02*
X8634Y6020D01*
X8735Y6121D01*
X8837Y6020D01*
X8939Y6020D01*
X8939Y6121D01*
X8837Y6223D01*
X8939Y6325D01*
X8939Y6426D01*
X8837Y6426D01*
X8735Y6325D01*
X8634Y6426D01*
X8532Y6426D01*
X8532Y6325D01*
X8634Y6223D01*
X8532Y6121D01*
X8532Y6020D01*
X8447Y11567D02*
X8548Y11567D01*
X8650Y11668D01*
X8751Y11567D01*
X8853Y11567D01*
X8853Y11668D01*
X8751Y11770D01*
X8853Y11872D01*
X8853Y11973D01*
X8751Y11973D01*
X8650Y11872D01*
X8548Y11973D01*
X8447Y11973D01*
X8447Y11872D01*
X8548Y11770D01*
X8447Y11668D01*
X8447Y11567D01*
X8432Y12957D02*
X8534Y12957D01*
X8636Y13058D01*
X8737Y12957D01*
X8839Y12957D01*
X8839Y13058D01*
X8737Y13160D01*
X8839Y13262D01*
X8839Y13363D01*
X8737Y13363D01*
X8636Y13262D01*
X8534Y13363D01*
X8432Y13363D01*
X8432Y13262D01*
X8534Y13160D01*
X8432Y13058D01*
X8432Y12957D01*
X32750Y11480D02*
X32851Y11480D01*
X32953Y11582D01*
X33055Y11480D01*
X33156Y11480D01*
X33156Y11582D01*
X33055Y11684D01*
X33156Y11785D01*
X33156Y11887D01*
X33055Y11887D01*
X32953Y11785D01*
X32851Y11887D01*
X32750Y11887D01*
X32750Y11785D01*
X32851Y11684D01*
X32750Y11582D01*
X32750Y11480D01*
X21544Y11298D02*
X21646Y11298D01*
X21747Y11400D01*
X21849Y11298D01*
X21951Y11298D01*
X21951Y11400D01*
X21849Y11501D01*
X21951Y11603D01*
X21951Y11704D01*
X21849Y11704D01*
X21747Y11603D01*
X21646Y11704D01*
X21544Y11704D01*
X21544Y11603D01*
X21646Y11501D01*
X21544Y11400D01*
X21544Y11298D01*
X35552Y6553D02*
X35653Y6553D01*
X35755Y6654D01*
X35857Y6553D01*
X35958Y6553D01*
X35958Y6654D01*
X35857Y6756D01*
X35958Y6858D01*
X35958Y6959D01*
X35857Y6959D01*
X35755Y6858D01*
X35653Y6959D01*
X35552Y6959D01*
X35552Y6858D01*
X35653Y6756D01*
X35552Y6654D01*
X35552Y6553D01*
X6147Y11500D02*
X6248Y11500D01*
X6350Y11602D01*
X6452Y11500D01*
X6553Y11500D01*
X6553Y11602D01*
X6452Y11704D01*
X6553Y11805D01*
X6553Y11907D01*
X6452Y11907D01*
X6350Y11805D01*
X6248Y11907D01*
X6147Y11907D01*
X6147Y11805D01*
X6248Y11704D01*
X6147Y11602D01*
X6147Y11500D01*
X6147Y14168D02*
X6248Y14168D01*
X6350Y14270D01*
X6452Y14168D01*
X6553Y14168D01*
X6553Y14270D01*
X6452Y14371D01*
X6553Y14473D01*
X6553Y14575D01*
X6452Y14575D01*
X6350Y14473D01*
X6248Y14575D01*
X6147Y14575D01*
X6147Y14473D01*
X6248Y14371D01*
X6147Y14270D01*
X6147Y14168D01*
X6147Y9379D02*
X6248Y9379D01*
X6350Y9480D01*
X6452Y9379D01*
X6553Y9379D01*
X6553Y9480D01*
X6452Y9582D01*
X6553Y9683D01*
X6553Y9785D01*
X6452Y9785D01*
X6350Y9683D01*
X6248Y9785D01*
X6147Y9785D01*
X6147Y9683D01*
X6248Y9582D01*
X6147Y9480D01*
X6147Y9379D01*
X6147Y7544D02*
X6248Y7544D01*
X6350Y7645D01*
X6452Y7544D01*
X6553Y7544D01*
X6553Y7645D01*
X6452Y7747D01*
X6553Y7849D01*
X6553Y7950D01*
X6452Y7950D01*
X6350Y7849D01*
X6248Y7950D01*
X6147Y7950D01*
X6147Y7849D01*
X6248Y7747D01*
X6147Y7645D01*
X6147Y7544D01*
X6147Y6026D02*
X6248Y6026D01*
X6350Y6127D01*
X6452Y6026D01*
X6553Y6026D01*
X6553Y6127D01*
X6452Y6229D01*
X6553Y6331D01*
X6553Y6432D01*
X6452Y6432D01*
X6350Y6331D01*
X6248Y6432D01*
X6147Y6432D01*
X6147Y6331D01*
X6248Y6229D01*
X6147Y6127D01*
X6147Y6026D01*
X6147Y12855D02*
X6248Y12855D01*
X6350Y12957D01*
X6452Y12855D01*
X6553Y12855D01*
X6553Y12957D01*
X6452Y13059D01*
X6553Y13160D01*
X6553Y13262D01*
X6452Y13262D01*
X6350Y13160D01*
X6248Y13262D01*
X6147Y13262D01*
X6147Y13160D01*
X6248Y13059D01*
X6147Y12957D01*
X6147Y12855D01*
X42981Y8079D02*
X43083Y8079D01*
X43184Y8181D01*
X43286Y8079D01*
X43388Y8079D01*
X43388Y8181D01*
X43286Y8283D01*
X43388Y8384D01*
X43388Y8486D01*
X43286Y8486D01*
X43184Y8384D01*
X43083Y8486D01*
X42981Y8486D01*
X42981Y8384D01*
X43083Y8283D01*
X42981Y8181D01*
X42981Y8079D01*
X43612Y14356D02*
X43713Y14356D01*
X43815Y14457D01*
X43917Y14356D01*
X44018Y14356D01*
X44018Y14457D01*
X43917Y14559D01*
X44018Y14660D01*
X44018Y14762D01*
X43917Y14762D01*
X43815Y14660D01*
X43713Y14762D01*
X43612Y14762D01*
X43612Y14660D01*
X43713Y14559D01*
X43612Y14457D01*
X43612Y14356D01*
X38532Y6553D02*
X38633Y6553D01*
X38735Y6654D01*
X38837Y6553D01*
X38938Y6553D01*
X38938Y6654D01*
X38837Y6756D01*
X38938Y6858D01*
X38938Y6959D01*
X38837Y6959D01*
X38735Y6858D01*
X38633Y6959D01*
X38532Y6959D01*
X38532Y6858D01*
X38633Y6756D01*
X38532Y6654D01*
X38532Y6553D01*
X40257Y6553D02*
X40358Y6553D01*
X40460Y6654D01*
X40562Y6553D01*
X40663Y6553D01*
X40663Y6654D01*
X40562Y6756D01*
X40663Y6858D01*
X40663Y6959D01*
X40562Y6959D01*
X40460Y6858D01*
X40358Y6959D01*
X40257Y6959D01*
X40257Y6858D01*
X40358Y6756D01*
X40257Y6654D01*
X40257Y6553D01*
X44479Y14356D02*
X44580Y14356D01*
X44682Y14457D01*
X44784Y14356D01*
X44885Y14356D01*
X44885Y14457D01*
X44784Y14559D01*
X44885Y14660D01*
X44885Y14762D01*
X44784Y14762D01*
X44682Y14660D01*
X44580Y14762D01*
X44479Y14762D01*
X44479Y14660D01*
X44580Y14559D01*
X44479Y14457D01*
X44479Y14356D01*
X40818Y14356D02*
X40919Y14356D01*
X41021Y14457D01*
X41123Y14356D01*
X41224Y14356D01*
X41224Y14457D01*
X41123Y14559D01*
X41224Y14660D01*
X41224Y14762D01*
X41123Y14762D01*
X41021Y14660D01*
X40919Y14762D01*
X40818Y14762D01*
X40818Y14660D01*
X40919Y14559D01*
X40818Y14457D01*
X40818Y14356D01*
X42446Y7278D02*
X42547Y7278D01*
X42649Y7379D01*
X42751Y7278D01*
X42852Y7278D01*
X42852Y7379D01*
X42751Y7481D01*
X42852Y7583D01*
X42852Y7684D01*
X42751Y7684D01*
X42649Y7583D01*
X42547Y7684D01*
X42446Y7684D01*
X42446Y7583D01*
X42547Y7481D01*
X42446Y7379D01*
X42446Y7278D01*
X49779Y14356D02*
X49880Y14356D01*
X49982Y14457D01*
X50084Y14356D01*
X50185Y14356D01*
X50185Y14457D01*
X50084Y14559D01*
X50185Y14660D01*
X50185Y14762D01*
X50084Y14762D01*
X49982Y14660D01*
X49880Y14762D01*
X49779Y14762D01*
X49779Y14660D01*
X49880Y14559D01*
X49779Y14457D01*
X49779Y14356D01*
X9925Y15632D02*
X10026Y15632D01*
X10128Y15734D01*
X10230Y15632D01*
X10331Y15632D01*
X10331Y15734D01*
X10230Y15836D01*
X10331Y15937D01*
X10331Y16039D01*
X10230Y16039D01*
X10128Y15937D01*
X10026Y16039D01*
X9925Y16039D01*
X9925Y15937D01*
X10026Y15836D01*
X9925Y15734D01*
X9925Y15632D01*
X18066Y18093D02*
X18168Y18093D01*
X18269Y18194D01*
X18371Y18093D01*
X18472Y18093D01*
X18472Y18194D01*
X18371Y18296D01*
X18472Y18398D01*
X18472Y18499D01*
X18371Y18499D01*
X18269Y18398D01*
X18168Y18499D01*
X18066Y18499D01*
X18066Y18398D01*
X18168Y18296D01*
X18066Y18194D01*
X18066Y18093D01*
X9925Y17143D02*
X10026Y17143D01*
X10128Y17244D01*
X10230Y17143D01*
X10331Y17143D01*
X10331Y17244D01*
X10230Y17346D01*
X10331Y17448D01*
X10331Y17549D01*
X10230Y17549D01*
X10128Y17448D01*
X10026Y17549D01*
X9925Y17549D01*
X9925Y17448D01*
X10026Y17346D01*
X9925Y17244D01*
X9925Y17143D01*
X9925Y18814D02*
X10026Y18814D01*
X10128Y18916D01*
X10230Y18814D01*
X10331Y18814D01*
X10331Y18916D01*
X10230Y19017D01*
X10331Y19119D01*
X10331Y19220D01*
X10230Y19220D01*
X10128Y19119D01*
X10026Y19220D01*
X9925Y19220D01*
X9925Y19119D01*
X10026Y19017D01*
X9925Y18916D01*
X9925Y18814D01*
X6147Y18813D02*
X6248Y18813D01*
X6350Y18914D01*
X6452Y18813D01*
X6553Y18813D01*
X6553Y18914D01*
X6452Y19016D01*
X6553Y19117D01*
X6553Y19219D01*
X6452Y19219D01*
X6350Y19117D01*
X6248Y19219D01*
X6147Y19219D01*
X6147Y19117D01*
X6248Y19016D01*
X6147Y18914D01*
X6147Y18813D01*
X6147Y17143D02*
X6248Y17143D01*
X6350Y17244D01*
X6452Y17143D01*
X6553Y17143D01*
X6553Y17244D01*
X6452Y17346D01*
X6553Y17448D01*
X6553Y17549D01*
X6452Y17549D01*
X6350Y17448D01*
X6248Y17549D01*
X6147Y17549D01*
X6147Y17448D01*
X6248Y17346D01*
X6147Y17244D01*
X6147Y17143D01*
X6147Y15561D02*
X6248Y15561D01*
X6350Y15662D01*
X6452Y15561D01*
X6553Y15561D01*
X6553Y15662D01*
X6452Y15764D01*
X6553Y15866D01*
X6553Y15967D01*
X6452Y15967D01*
X6350Y15866D01*
X6248Y15967D01*
X6147Y15967D01*
X6147Y15866D01*
X6248Y15764D01*
X6147Y15662D01*
X6147Y15561D01*
X9925Y14245D02*
X10026Y14245D01*
X10128Y14347D01*
X10230Y14245D01*
X10331Y14245D01*
X10331Y14347D01*
X10230Y14448D01*
X10331Y14550D01*
X10331Y14651D01*
X10230Y14651D01*
X10128Y14550D01*
X10026Y14651D01*
X9925Y14651D01*
X9925Y14550D01*
X10026Y14448D01*
X9925Y14347D01*
X9925Y14245D01*
X26082Y17593D02*
X26183Y17593D01*
X26285Y17694D01*
X26387Y17593D01*
X26488Y17593D01*
X26488Y17694D01*
X26387Y17796D01*
X26488Y17898D01*
X26488Y17999D01*
X26387Y17999D01*
X26285Y17898D01*
X26183Y17999D01*
X26082Y17999D01*
X26082Y17898D01*
X26183Y17796D01*
X26082Y17694D01*
X26082Y17593D01*
X20606Y19043D02*
X20707Y19043D01*
X20809Y19144D01*
X20911Y19043D01*
X21012Y19043D01*
X21012Y19144D01*
X20911Y19246D01*
X21012Y19348D01*
X21012Y19449D01*
X20911Y19449D01*
X20809Y19348D01*
X20707Y19449D01*
X20606Y19449D01*
X20606Y19348D01*
X20707Y19246D01*
X20606Y19144D01*
X20606Y19043D01*
D61*
X14808Y3175D02*
G03*
X14808Y3175I-203J0D01*
G01*
X14808Y51435D02*
G03*
X14808Y51435I-203J0D01*
G01*
X80848Y6350D02*
G03*
X80848Y6350I-203J0D01*
G01*
X80848Y48260D02*
G03*
X80848Y48260I-203J0D01*
G01*
M02*
