G04*
G04 #@! TF.GenerationSoftware,Altium Limited,Altium Designer,22.10.1 (41)*
G04*
G04 Layer_Color=65535*
%FSLAX43Y43*%
%MOMM*%
G71*
G04*
G04 #@! TF.SameCoordinates,A9E92A4C-3054-4B5A-B43F-CED4EE29FA58*
G04*
G04*
G04 #@! TF.FilePolarity,Positive*
G04*
G01*
G75*
%ADD10C,0.250*%
%ADD11C,0.152*%
%ADD12C,0.200*%
%ADD13R,0.225X0.925*%
%ADD14R,0.225X0.925*%
%ADD15C,0.127*%
%ADD16C,0.178*%
G36*
X63455Y17947D02*
X63472Y17945D01*
X63492Y17939D01*
X63514Y17928D01*
X63533Y17917D01*
X63553Y17900D01*
X63555Y17897D01*
X63561Y17892D01*
X63567Y17881D01*
X63578Y17870D01*
X63586Y17853D01*
X63591Y17834D01*
X63597Y17811D01*
X63600Y17786D01*
X63600Y17784D01*
X63600Y17775D01*
X63597Y17761D01*
X63594Y17747D01*
X63589Y17728D01*
X63578Y17709D01*
X63567Y17689D01*
X63550Y17670D01*
X63547Y17667D01*
X63542Y17661D01*
X63530Y17653D01*
X63517Y17645D01*
X63500Y17636D01*
X63478Y17628D01*
X63455Y17623D01*
X63430Y17620D01*
X63419Y17620D01*
X63405Y17623D01*
X63389Y17625D01*
X63372Y17631D01*
X63350Y17639D01*
X63331Y17650D01*
X63311Y17667D01*
X63308Y17670D01*
X63303Y17675D01*
X63294Y17686D01*
X63286Y17700D01*
X63278Y17717D01*
X63269Y17739D01*
X63264Y17761D01*
X63261Y17786D01*
X63261Y17789D01*
X63261Y17797D01*
X63264Y17811D01*
X63267Y17828D01*
X63272Y17845D01*
X63283Y17864D01*
X63294Y17884D01*
X63311Y17903D01*
X63314Y17906D01*
X63319Y17911D01*
X63331Y17917D01*
X63344Y17928D01*
X63361Y17936D01*
X63383Y17942D01*
X63405Y17947D01*
X63430Y17950D01*
X63442Y17950D01*
X63455Y17947D01*
X63455Y17947D02*
G37*
G36*
X70610Y17112D02*
X70665Y17109D01*
X70715Y17103D01*
X70737Y17101D01*
X70757Y17095D01*
X70771Y17092D01*
X70782Y17087D01*
X70785Y17084D01*
X70793Y17076D01*
X70801Y17062D01*
X70812Y17037D01*
X70818Y17023D01*
X70826Y17003D01*
X70829Y16981D01*
X70835Y16956D01*
X70837Y16926D01*
X70840Y16895D01*
X70843Y16859D01*
X70843Y16817D01*
X70241Y16820D01*
X70227Y16820D01*
X70210Y16817D01*
X70191Y16812D01*
X70171Y16804D01*
X70152Y16790D01*
X70135Y16773D01*
X70121Y16751D01*
X70121Y16748D01*
X70118Y16743D01*
X70116Y16731D01*
X70110Y16718D01*
X70107Y16698D01*
X70102Y16670D01*
X70099Y16640D01*
X70099Y16604D01*
X70099Y16482D01*
X70099Y16479D01*
X70099Y16476D01*
X70099Y16459D01*
X70102Y16437D01*
X70102Y16409D01*
X70104Y16382D01*
X70110Y16351D01*
X70118Y16326D01*
X70127Y16304D01*
X70129Y16301D01*
X70132Y16296D01*
X70141Y16290D01*
X70152Y16282D01*
X70166Y16271D01*
X70185Y16265D01*
X70207Y16259D01*
X70235Y16257D01*
X70857Y16257D01*
X70857Y16254D01*
X70857Y16248D01*
X70857Y16240D01*
X70857Y16229D01*
X70854Y16201D01*
X70854Y16168D01*
X70849Y16132D01*
X70843Y16096D01*
X70835Y16065D01*
X70824Y16040D01*
X70821Y16037D01*
X70815Y16029D01*
X70801Y16018D01*
X70782Y16004D01*
X70754Y15990D01*
X70718Y15979D01*
X70674Y15971D01*
X70618Y15968D01*
X70177Y15968D01*
X70166Y15971D01*
X70129Y15973D01*
X70091Y15982D01*
X70046Y15996D01*
X70002Y16012D01*
X69960Y16040D01*
X69943Y16057D01*
X69927Y16076D01*
X69924Y16082D01*
X69916Y16093D01*
X69905Y16115D01*
X69894Y16148D01*
X69880Y16190D01*
X69869Y16240D01*
X69860Y16301D01*
X69857Y16373D01*
X69857Y16709D01*
X69857Y16712D01*
X69857Y16718D01*
X69857Y16729D01*
X69857Y16743D01*
X69860Y16759D01*
X69860Y16779D01*
X69866Y16823D01*
X69874Y16873D01*
X69888Y16920D01*
X69905Y16967D01*
X69927Y17006D01*
X69930Y17012D01*
X69941Y17023D01*
X69960Y17040D01*
X69988Y17062D01*
X70027Y17081D01*
X70071Y17098D01*
X70129Y17109D01*
X70160Y17115D01*
X70557Y17115D01*
X70610Y17112D01*
X70610Y17112D02*
G37*
G36*
X71956Y15982D02*
X71720Y15982D01*
X71720Y16407D01*
X71226Y16407D01*
X71226Y15982D01*
X70993Y15982D01*
X70993Y17103D01*
X71226Y17103D01*
X71226Y16704D01*
X71720Y16704D01*
X71720Y17103D01*
X71956Y17103D01*
X71956Y15982D01*
X71956Y15982D02*
G37*
G36*
X65607Y17462D02*
X65621Y17459D01*
X65638Y17450D01*
X65654Y17442D01*
X65671Y17428D01*
X65688Y17412D01*
X65690Y17409D01*
X65696Y17403D01*
X65701Y17392D01*
X65710Y17378D01*
X65721Y17362D01*
X65729Y17339D01*
X65735Y17317D01*
X65740Y17292D01*
X65879Y15982D01*
X65607Y15982D01*
X65529Y16923D01*
X65527Y16923D01*
X65238Y16173D01*
X65235Y16168D01*
X65229Y16154D01*
X65216Y16132D01*
X65199Y16110D01*
X65174Y16085D01*
X65146Y16062D01*
X65110Y16048D01*
X65091Y16046D01*
X65068Y16043D01*
X65063Y16043D01*
X65049Y16046D01*
X65027Y16051D01*
X65002Y16060D01*
X64974Y16076D01*
X64944Y16098D01*
X64919Y16132D01*
X64907Y16151D01*
X64896Y16173D01*
X64613Y16912D01*
X64610Y16912D01*
X64530Y15982D01*
X64252Y15982D01*
X64394Y17306D01*
X64394Y17309D01*
X64397Y17317D01*
X64399Y17328D01*
X64402Y17342D01*
X64408Y17359D01*
X64416Y17375D01*
X64430Y17395D01*
X64444Y17414D01*
X64447Y17417D01*
X64452Y17423D01*
X64460Y17431D01*
X64474Y17439D01*
X64505Y17456D01*
X64524Y17462D01*
X64547Y17464D01*
X64552Y17464D01*
X64569Y17462D01*
X64594Y17456D01*
X64624Y17445D01*
X64658Y17428D01*
X64691Y17403D01*
X64708Y17387D01*
X64721Y17367D01*
X64735Y17342D01*
X64746Y17317D01*
X65068Y16515D01*
X65071Y16515D01*
X65388Y17317D01*
X65388Y17320D01*
X65390Y17323D01*
X65399Y17339D01*
X65413Y17364D01*
X65435Y17392D01*
X65463Y17417D01*
X65496Y17442D01*
X65538Y17459D01*
X65563Y17462D01*
X65588Y17464D01*
X65599Y17464D01*
X65607Y17462D01*
X65607Y17462D02*
G37*
G36*
X62351Y18106D02*
X62378Y18103D01*
X62409Y18100D01*
X62448Y18097D01*
X62487Y18092D01*
X62531Y18083D01*
X62581Y18072D01*
X62631Y18061D01*
X62684Y18047D01*
X62742Y18031D01*
X62800Y18011D01*
X62859Y17989D01*
X62920Y17964D01*
X63839Y16518D01*
X63839Y16512D01*
X63836Y16498D01*
X63833Y16476D01*
X63830Y16451D01*
X63822Y16395D01*
X63816Y16368D01*
X63811Y16346D01*
X63811Y16343D01*
X63808Y16337D01*
X63805Y16323D01*
X63800Y16307D01*
X63791Y16282D01*
X63783Y16251D01*
X63772Y16215D01*
X63758Y16173D01*
X62956Y17434D01*
X62953Y17439D01*
X62945Y17450D01*
X62931Y17467D01*
X62911Y17484D01*
X62892Y17503D01*
X62867Y17520D01*
X62839Y17531D01*
X62809Y17534D01*
X62806Y17534D01*
X62797Y17531D01*
X62784Y17528D01*
X62767Y17520D01*
X62748Y17509D01*
X62725Y17492D01*
X62700Y17470D01*
X62675Y17439D01*
X62412Y17065D01*
X63350Y15579D01*
X63344Y15574D01*
X63328Y15563D01*
X63303Y15540D01*
X63267Y15515D01*
X63222Y15482D01*
X63167Y15449D01*
X63106Y15410D01*
X63036Y15374D01*
X62959Y15335D01*
X62875Y15296D01*
X62784Y15263D01*
X62686Y15229D01*
X62584Y15204D01*
X62478Y15182D01*
X62367Y15171D01*
X62251Y15166D01*
X62223Y15166D01*
X62206Y15168D01*
X62187Y15168D01*
X62167Y15171D01*
X62142Y15174D01*
X62087Y15179D01*
X62020Y15191D01*
X61948Y15204D01*
X61867Y15224D01*
X61781Y15249D01*
X61693Y15282D01*
X61601Y15321D01*
X61507Y15365D01*
X61412Y15421D01*
X61318Y15485D01*
X61223Y15557D01*
X61179Y15596D01*
X61135Y15640D01*
X61540Y16204D01*
X61543Y16207D01*
X61545Y16212D01*
X61548Y16221D01*
X61554Y16234D01*
X61565Y16265D01*
X61568Y16284D01*
X61568Y16304D01*
X61568Y16307D01*
X61568Y16309D01*
X61565Y16318D01*
X61562Y16329D01*
X61554Y16343D01*
X61545Y16359D01*
X61534Y16382D01*
X61520Y16407D01*
X61221Y16876D01*
X60779Y16257D01*
X60779Y16259D01*
X60776Y16265D01*
X60774Y16276D01*
X60771Y16290D01*
X60768Y16307D01*
X60763Y16329D01*
X60757Y16351D01*
X60754Y16379D01*
X60743Y16440D01*
X60735Y16507D01*
X60729Y16581D01*
X60726Y16662D01*
X60726Y16665D01*
X60726Y16668D01*
X60726Y16676D01*
X60726Y16687D01*
X60729Y16701D01*
X60729Y16718D01*
X60732Y16759D01*
X60740Y16809D01*
X60749Y16867D01*
X60763Y16934D01*
X60779Y17006D01*
X60804Y17081D01*
X60832Y17162D01*
X60865Y17245D01*
X60907Y17331D01*
X60957Y17414D01*
X61015Y17498D01*
X61082Y17581D01*
X61157Y17661D01*
X61162Y17667D01*
X61179Y17681D01*
X61204Y17703D01*
X61240Y17731D01*
X61284Y17764D01*
X61340Y17803D01*
X61401Y17845D01*
X61473Y17886D01*
X61551Y17928D01*
X61640Y17967D01*
X61731Y18006D01*
X61834Y18039D01*
X61942Y18067D01*
X62056Y18089D01*
X62176Y18103D01*
X62301Y18108D01*
X62328Y18108D01*
X62351Y18106D01*
X62351Y18106D02*
G37*
G36*
X73308Y17098D02*
X73339Y17092D01*
X73375Y17081D01*
X73408Y17065D01*
X73442Y17040D01*
X73469Y17009D01*
X73472Y17003D01*
X73480Y16992D01*
X73489Y16970D01*
X73503Y16940D01*
X73514Y16898D01*
X73522Y16848D01*
X73530Y16790D01*
X73533Y16720D01*
X73533Y16623D01*
X73533Y16620D01*
X73533Y16606D01*
X73533Y16590D01*
X73530Y16568D01*
X73528Y16540D01*
X73522Y16509D01*
X73505Y16445D01*
X73494Y16412D01*
X73480Y16379D01*
X73464Y16348D01*
X73442Y16321D01*
X73417Y16298D01*
X73389Y16282D01*
X73355Y16268D01*
X73317Y16265D01*
X72767Y16265D01*
X72767Y15982D01*
X72534Y15982D01*
X72534Y17103D01*
X73283Y17103D01*
X73308Y17098D01*
X73308Y17098D02*
G37*
G36*
X72381Y15982D02*
X72120Y15982D01*
X72120Y17103D01*
X72381Y17103D01*
X72381Y15982D01*
X72381Y15982D02*
G37*
G36*
X68353Y17101D02*
X68378Y17095D01*
X68405Y17084D01*
X68433Y17070D01*
X68461Y17051D01*
X68483Y17026D01*
X68486Y17023D01*
X68492Y17012D01*
X68503Y16992D01*
X68514Y16965D01*
X68522Y16931D01*
X68533Y16887D01*
X68539Y16834D01*
X68541Y16770D01*
X68541Y16701D01*
X68541Y16695D01*
X68541Y16681D01*
X68541Y16659D01*
X68539Y16634D01*
X68533Y16576D01*
X68528Y16548D01*
X68519Y16523D01*
X68519Y16520D01*
X68514Y16512D01*
X68505Y16498D01*
X68494Y16484D01*
X68480Y16468D01*
X68461Y16451D01*
X68439Y16434D01*
X68411Y16423D01*
X68411Y16420D01*
X68414Y16420D01*
X68417Y16418D01*
X68430Y16412D01*
X68453Y16398D01*
X68475Y16376D01*
X68486Y16362D01*
X68497Y16346D01*
X68508Y16323D01*
X68519Y16301D01*
X68528Y16273D01*
X68533Y16246D01*
X68539Y16212D01*
X68539Y16173D01*
X68539Y15982D01*
X68306Y15982D01*
X68306Y16118D01*
X68306Y16121D01*
X68306Y16132D01*
X68306Y16143D01*
X68303Y16159D01*
X68300Y16196D01*
X68297Y16212D01*
X68292Y16223D01*
X68292Y16226D01*
X68289Y16232D01*
X68283Y16240D01*
X68275Y16248D01*
X68264Y16257D01*
X68247Y16265D01*
X68231Y16271D01*
X68208Y16273D01*
X67797Y16273D01*
X67797Y15982D01*
X67561Y15982D01*
X67561Y17103D01*
X68333Y17103D01*
X68353Y17101D01*
X68353Y17101D02*
G37*
G36*
X66282Y15982D02*
X66026Y15982D01*
X66026Y17103D01*
X66282Y17103D01*
X66282Y15982D01*
X66282Y15982D02*
G37*
G36*
X69427Y17112D02*
X69460Y17109D01*
X69502Y17101D01*
X69546Y17090D01*
X69591Y17070D01*
X69630Y17042D01*
X69663Y17006D01*
X69666Y17001D01*
X69674Y16990D01*
X69685Y16967D01*
X69699Y16934D01*
X69710Y16892D01*
X69721Y16842D01*
X69730Y16781D01*
X69732Y16709D01*
X69732Y16376D01*
X69732Y16373D01*
X69732Y16365D01*
X69732Y16354D01*
X69732Y16340D01*
X69730Y16321D01*
X69727Y16298D01*
X69721Y16251D01*
X69710Y16196D01*
X69696Y16143D01*
X69674Y16093D01*
X69660Y16071D01*
X69644Y16051D01*
X69641Y16048D01*
X69630Y16040D01*
X69610Y16026D01*
X69583Y16012D01*
X69549Y15996D01*
X69508Y15985D01*
X69455Y15973D01*
X69397Y15971D01*
X69000Y15971D01*
X68988Y15973D01*
X68952Y15976D01*
X68913Y15985D01*
X68869Y15998D01*
X68825Y16015D01*
X68783Y16043D01*
X68766Y16060D01*
X68750Y16079D01*
X68747Y16085D01*
X68739Y16096D01*
X68728Y16118D01*
X68716Y16151D01*
X68705Y16193D01*
X68694Y16243D01*
X68686Y16304D01*
X68683Y16376D01*
X68683Y16709D01*
X68683Y16712D01*
X68683Y16720D01*
X68683Y16734D01*
X68686Y16754D01*
X68686Y16776D01*
X68689Y16801D01*
X68700Y16859D01*
X68714Y16917D01*
X68736Y16978D01*
X68752Y17003D01*
X68769Y17028D01*
X68789Y17051D01*
X68811Y17067D01*
X68814Y17070D01*
X68825Y17076D01*
X68841Y17081D01*
X68864Y17092D01*
X68891Y17101D01*
X68927Y17106D01*
X68969Y17112D01*
X69019Y17115D01*
X69416Y17115D01*
X69427Y17112D01*
X69427Y17112D02*
G37*
G36*
X67270Y17115D02*
X67292Y17106D01*
X67317Y17098D01*
X67345Y17081D01*
X67370Y17062D01*
X67389Y17037D01*
X67400Y17003D01*
X67400Y17001D01*
X67403Y16992D01*
X67403Y16978D01*
X67406Y16959D01*
X67409Y16934D01*
X67409Y16904D01*
X67412Y16865D01*
X67412Y16820D01*
X66795Y16820D01*
X66779Y16817D01*
X66759Y16812D01*
X66737Y16804D01*
X66718Y16792D01*
X66701Y16776D01*
X66687Y16754D01*
X66687Y16751D01*
X66684Y16745D01*
X66681Y16734D01*
X66679Y16720D01*
X66673Y16698D01*
X66670Y16673D01*
X66668Y16643D01*
X66668Y16604D01*
X66668Y16482D01*
X66668Y16479D01*
X66668Y16476D01*
X66668Y16468D01*
X66668Y16457D01*
X66670Y16429D01*
X66673Y16398D01*
X66679Y16365D01*
X66687Y16332D01*
X66698Y16304D01*
X66704Y16293D01*
X66712Y16284D01*
X66715Y16284D01*
X66718Y16282D01*
X66726Y16276D01*
X66734Y16273D01*
X66762Y16262D01*
X66801Y16259D01*
X67423Y16259D01*
X67423Y16257D01*
X67423Y16251D01*
X67423Y16243D01*
X67423Y16232D01*
X67420Y16204D01*
X67420Y16168D01*
X67414Y16129D01*
X67409Y16096D01*
X67400Y16062D01*
X67395Y16051D01*
X67389Y16040D01*
X67387Y16037D01*
X67381Y16029D01*
X67367Y16018D01*
X67348Y16007D01*
X67320Y15993D01*
X67284Y15982D01*
X67242Y15973D01*
X67187Y15971D01*
X66737Y15971D01*
X66709Y15973D01*
X66673Y15979D01*
X66634Y15987D01*
X66598Y15998D01*
X66559Y16012D01*
X66529Y16035D01*
X66523Y16040D01*
X66512Y16054D01*
X66495Y16076D01*
X66487Y16093D01*
X66479Y16112D01*
X66468Y16135D01*
X66459Y16159D01*
X66451Y16187D01*
X66443Y16218D01*
X66434Y16251D01*
X66432Y16290D01*
X66426Y16332D01*
X66426Y16376D01*
X66426Y16709D01*
X66426Y16712D01*
X66426Y16720D01*
X66426Y16731D01*
X66426Y16745D01*
X66429Y16765D01*
X66432Y16787D01*
X66437Y16834D01*
X66445Y16887D01*
X66459Y16940D01*
X66479Y16987D01*
X66493Y17009D01*
X66507Y17026D01*
X66509Y17028D01*
X66523Y17040D01*
X66543Y17053D01*
X66568Y17070D01*
X66604Y17087D01*
X66648Y17101D01*
X66701Y17112D01*
X66762Y17115D01*
X67226Y17115D01*
X67237Y17117D01*
X67256Y17117D01*
X67270Y17115D01*
X67270Y17115D02*
G37*
G36*
X9679Y46221D02*
X9227Y45755D01*
X9272Y45755D01*
X9272Y45503D01*
X9094Y45503D01*
X9061Y45114D01*
X9013Y44573D01*
X9609Y43955D01*
X9564Y43910D01*
X9009Y44488D01*
X9002Y44451D01*
X9027Y44440D01*
X9057Y44421D01*
X9083Y44396D01*
X9102Y44370D01*
X9120Y44340D01*
X9131Y44310D01*
X9135Y44281D01*
X9139Y44244D01*
X9135Y44210D01*
X9124Y44173D01*
X9105Y44129D01*
X9079Y44092D01*
X9053Y44066D01*
X9020Y44047D01*
X8983Y44029D01*
X8950Y44021D01*
X8902Y44018D01*
X8857Y44025D01*
X8809Y44040D01*
X8768Y44066D01*
X8735Y44099D01*
X8716Y44129D01*
X8702Y44162D01*
X8265Y44162D01*
X8265Y44010D01*
X8120Y44010D01*
X8120Y44162D01*
X8102Y44162D01*
X8065Y44562D01*
X7428Y43907D01*
X7383Y43951D01*
X8057Y44647D01*
X8028Y44958D01*
X7987Y45384D01*
X7968Y45562D01*
X7339Y46221D01*
X7383Y46266D01*
X7961Y45666D01*
X7946Y45810D01*
X7846Y45810D01*
X7846Y45925D01*
X7935Y45925D01*
X7935Y45951D01*
X7939Y45966D01*
X7950Y45977D01*
X7965Y45992D01*
X7983Y46010D01*
X8009Y46025D01*
X8035Y46044D01*
X8061Y46055D01*
X8079Y46062D01*
X8079Y46132D01*
X8231Y46132D01*
X8231Y46103D01*
X8279Y46114D01*
X8328Y46118D01*
X8376Y46125D01*
X8402Y46125D01*
X8402Y46173D01*
X8761Y46173D01*
X8761Y46118D01*
X8805Y46110D01*
X8861Y46103D01*
X8913Y46092D01*
X8965Y46073D01*
X9013Y46058D01*
X9046Y46040D01*
X9076Y46021D01*
X9090Y46006D01*
X9102Y46018D01*
X9120Y46029D01*
X9142Y46040D01*
X9168Y46044D01*
X9194Y46036D01*
X9216Y46025D01*
X9235Y46010D01*
X9253Y45984D01*
X9261Y45969D01*
X9261Y45947D01*
X9261Y45929D01*
X9257Y45914D01*
X9250Y45895D01*
X9239Y45884D01*
X9227Y45873D01*
X9216Y45866D01*
X9205Y45858D01*
X9205Y45825D01*
X9631Y46266D01*
X9679Y46221D01*
X9679Y46221D02*
G37*
G36*
X9509Y43392D02*
X9509Y43385D01*
X9509Y43377D01*
X9509Y43362D01*
X9509Y43340D01*
X9509Y43314D01*
X9509Y43310D01*
X9509Y43299D01*
X9509Y43285D01*
X9509Y43262D01*
X9509Y43236D01*
X9509Y43207D01*
X9509Y43140D01*
X9509Y43136D01*
X9509Y43125D01*
X9509Y43107D01*
X9509Y43085D01*
X9509Y43059D01*
X9509Y43029D01*
X9509Y42966D01*
X9509Y42962D01*
X9509Y42955D01*
X9509Y42929D01*
X9509Y42899D01*
X9509Y42892D01*
X9509Y42888D01*
X7472Y42888D01*
X7472Y42899D01*
X7472Y42907D01*
X7472Y42922D01*
X7472Y42940D01*
X7472Y42966D01*
X7472Y42970D01*
X7472Y42981D01*
X7472Y42996D01*
X7472Y43018D01*
X7472Y43044D01*
X7472Y43073D01*
X7472Y43140D01*
X7472Y43144D01*
X7472Y43155D01*
X7472Y43173D01*
X7472Y43199D01*
X7472Y43255D01*
X7472Y43314D01*
X7472Y43318D01*
X7472Y43325D01*
X7472Y43340D01*
X7472Y43355D01*
X7472Y43370D01*
X7472Y43385D01*
X7472Y43392D01*
X7472Y43396D01*
X9509Y43396D01*
X9509Y43392D01*
X9509Y43392D02*
G37*
G36*
X4502Y44958D02*
X4502Y44644D01*
X4494Y44644D01*
X4483Y44647D01*
X4468Y44647D01*
X4435Y44651D01*
X4368Y44651D01*
X4350Y44647D01*
X4327Y44647D01*
X4302Y44644D01*
X4242Y44633D01*
X4172Y44614D01*
X4094Y44584D01*
X4016Y44544D01*
X3976Y44521D01*
X3939Y44492D01*
X3935Y44492D01*
X3931Y44484D01*
X3905Y44462D01*
X3872Y44429D01*
X3831Y44381D01*
X3791Y44321D01*
X3750Y44251D01*
X3713Y44170D01*
X3687Y44081D01*
X4294Y44081D01*
X4294Y43770D01*
X3687Y43770D01*
X3687Y43766D01*
X3691Y43759D01*
X3694Y43744D01*
X3698Y43729D01*
X3705Y43707D01*
X3716Y43681D01*
X3739Y43625D01*
X3772Y43559D01*
X3816Y43492D01*
X3872Y43422D01*
X3939Y43359D01*
X3942Y43359D01*
X3946Y43351D01*
X3957Y43344D01*
X3976Y43333D01*
X3994Y43322D01*
X4016Y43307D01*
X4072Y43281D01*
X4139Y43251D01*
X4216Y43225D01*
X4302Y43207D01*
X4346Y43203D01*
X4394Y43199D01*
X4465Y43199D01*
X4498Y43203D01*
X4502Y42892D01*
X4468Y42892D01*
X4435Y42888D01*
X4376Y42888D01*
X4353Y42892D01*
X4324Y42892D01*
X4287Y42899D01*
X4242Y42903D01*
X4194Y42914D01*
X4142Y42925D01*
X4087Y42944D01*
X4028Y42962D01*
X3965Y42988D01*
X3905Y43018D01*
X3842Y43051D01*
X3779Y43092D01*
X3720Y43140D01*
X3661Y43192D01*
X3657Y43196D01*
X3650Y43207D01*
X3631Y43222D01*
X3613Y43248D01*
X3591Y43277D01*
X3565Y43310D01*
X3539Y43351D01*
X3509Y43399D01*
X3479Y43447D01*
X3454Y43503D01*
X3428Y43566D01*
X3405Y43629D01*
X3387Y43699D01*
X3372Y43770D01*
X3361Y43847D01*
X3357Y43925D01*
X3357Y43929D01*
X3357Y43944D01*
X3361Y43966D01*
X3361Y43996D01*
X3368Y44033D01*
X3372Y44077D01*
X3383Y44125D01*
X3394Y44177D01*
X3413Y44233D01*
X3431Y44292D01*
X3457Y44355D01*
X3487Y44418D01*
X3520Y44477D01*
X3561Y44540D01*
X3609Y44599D01*
X3661Y44658D01*
X3665Y44662D01*
X3676Y44673D01*
X3691Y44688D01*
X3716Y44707D01*
X3746Y44729D01*
X3779Y44755D01*
X3820Y44781D01*
X3868Y44810D01*
X3916Y44840D01*
X3972Y44866D01*
X4035Y44892D01*
X4098Y44914D01*
X4168Y44933D01*
X4239Y44951D01*
X4316Y44958D01*
X4394Y44962D01*
X4461Y44962D01*
X4502Y44958D01*
X4502Y44958D02*
G37*
G36*
X2735Y44958D02*
X2735Y44644D01*
X2728Y44644D01*
X2702Y44647D01*
X2668Y44651D01*
X2602Y44651D01*
X2580Y44647D01*
X2554Y44644D01*
X2524Y44640D01*
X2454Y44625D01*
X2376Y44599D01*
X2331Y44581D01*
X2287Y44562D01*
X2243Y44536D01*
X2202Y44507D01*
X2157Y44473D01*
X2117Y44436D01*
X2113Y44433D01*
X2109Y44425D01*
X2098Y44414D01*
X2083Y44399D01*
X2068Y44377D01*
X2050Y44355D01*
X2031Y44325D01*
X2013Y44292D01*
X1972Y44218D01*
X1939Y44133D01*
X1924Y44084D01*
X1913Y44033D01*
X1909Y43981D01*
X1906Y43925D01*
X1906Y43922D01*
X1906Y43910D01*
X1906Y43896D01*
X1909Y43873D01*
X1913Y43847D01*
X1917Y43818D01*
X1931Y43747D01*
X1957Y43670D01*
X1976Y43625D01*
X1994Y43581D01*
X2020Y43536D01*
X2046Y43496D01*
X2080Y43451D01*
X2117Y43410D01*
X2120Y43407D01*
X2128Y43403D01*
X2139Y43392D01*
X2154Y43377D01*
X2176Y43362D01*
X2202Y43344D01*
X2228Y43325D01*
X2261Y43307D01*
X2335Y43266D01*
X2424Y43233D01*
X2472Y43218D01*
X2524Y43207D01*
X2576Y43203D01*
X2631Y43199D01*
X2668Y43199D01*
X2702Y43203D01*
X2735Y43207D01*
X2735Y42892D01*
X2702Y42892D01*
X2668Y42888D01*
X2613Y42888D01*
X2591Y42892D01*
X2561Y42892D01*
X2524Y42899D01*
X2480Y42903D01*
X2431Y42914D01*
X2380Y42925D01*
X2324Y42944D01*
X2265Y42962D01*
X2202Y42988D01*
X2143Y43018D01*
X2080Y43051D01*
X2017Y43092D01*
X1957Y43140D01*
X1898Y43192D01*
X1894Y43196D01*
X1887Y43207D01*
X1868Y43222D01*
X1850Y43248D01*
X1828Y43277D01*
X1802Y43310D01*
X1776Y43351D01*
X1746Y43399D01*
X1717Y43447D01*
X1691Y43503D01*
X1665Y43566D01*
X1643Y43629D01*
X1624Y43699D01*
X1609Y43770D01*
X1598Y43847D01*
X1594Y43925D01*
X1594Y43929D01*
X1594Y43944D01*
X1598Y43966D01*
X1598Y43996D01*
X1606Y44033D01*
X1609Y44077D01*
X1620Y44125D01*
X1631Y44177D01*
X1650Y44233D01*
X1669Y44292D01*
X1694Y44355D01*
X1724Y44418D01*
X1757Y44477D01*
X1798Y44540D01*
X1846Y44599D01*
X1898Y44658D01*
X1902Y44662D01*
X1913Y44673D01*
X1928Y44688D01*
X1954Y44707D01*
X1983Y44729D01*
X2017Y44755D01*
X2057Y44781D01*
X2106Y44810D01*
X2154Y44840D01*
X2209Y44866D01*
X2272Y44892D01*
X2335Y44914D01*
X2405Y44933D01*
X2476Y44951D01*
X2554Y44958D01*
X2631Y44962D01*
X2702Y44962D01*
X2735Y44958D01*
X2735Y44958D02*
G37*
G36*
X4268Y51159D02*
X5427Y50237D01*
X4890Y50237D01*
X4009Y50937D01*
X4009Y50237D01*
X3590Y50237D01*
X3590Y52074D01*
X4009Y52074D01*
X4009Y51381D01*
X4890Y52074D01*
X5431Y52074D01*
X4268Y51159D01*
X4268Y51159D02*
G37*
G36*
X3260Y50874D02*
X3260Y50870D01*
X3260Y50863D01*
X3260Y50848D01*
X3257Y50829D01*
X3253Y50807D01*
X3249Y50781D01*
X3238Y50718D01*
X3216Y50648D01*
X3183Y50574D01*
X3161Y50533D01*
X3135Y50496D01*
X3105Y50459D01*
X3072Y50422D01*
X3068Y50418D01*
X3064Y50415D01*
X3053Y50403D01*
X3038Y50392D01*
X3020Y50377D01*
X2998Y50363D01*
X2946Y50329D01*
X2879Y50296D01*
X2801Y50266D01*
X2712Y50244D01*
X2664Y50240D01*
X2616Y50237D01*
X2038Y50237D01*
X2020Y50240D01*
X1998Y50244D01*
X1972Y50248D01*
X1909Y50259D01*
X1838Y50281D01*
X1764Y50315D01*
X1724Y50337D01*
X1687Y50363D01*
X1650Y50389D01*
X1613Y50422D01*
X1609Y50426D01*
X1605Y50429D01*
X1594Y50440D01*
X1583Y50455D01*
X1568Y50474D01*
X1553Y50496D01*
X1520Y50548D01*
X1487Y50615D01*
X1457Y50692D01*
X1435Y50777D01*
X1431Y50826D01*
X1427Y50874D01*
X1427Y52074D01*
X1842Y52074D01*
X1842Y50877D01*
X1842Y50874D01*
X1842Y50863D01*
X1846Y50844D01*
X1850Y50822D01*
X1857Y50800D01*
X1872Y50770D01*
X1887Y50744D01*
X1909Y50718D01*
X1912Y50715D01*
X1920Y50707D01*
X1935Y50700D01*
X1957Y50689D01*
X1979Y50674D01*
X2009Y50666D01*
X2038Y50659D01*
X2072Y50655D01*
X2624Y50655D01*
X2642Y50659D01*
X2664Y50663D01*
X2690Y50670D01*
X2720Y50681D01*
X2746Y50696D01*
X2772Y50718D01*
X2775Y50722D01*
X2783Y50729D01*
X2794Y50744D01*
X2809Y50763D01*
X2820Y50785D01*
X2831Y50814D01*
X2838Y50844D01*
X2842Y50877D01*
X2842Y52074D01*
X3260Y52074D01*
X3260Y50874D01*
X3260Y50874D02*
G37*
G36*
X4831Y49903D02*
X4853Y49903D01*
X4879Y49896D01*
X4942Y49885D01*
X5012Y49863D01*
X5086Y49829D01*
X5127Y49807D01*
X5164Y49785D01*
X5201Y49755D01*
X5238Y49722D01*
X5242Y49718D01*
X5245Y49715D01*
X5257Y49703D01*
X5268Y49689D01*
X5283Y49670D01*
X5297Y49648D01*
X5334Y49596D01*
X5368Y49533D01*
X5397Y49455D01*
X5420Y49370D01*
X5423Y49322D01*
X5427Y49274D01*
X5427Y48074D01*
X5008Y48074D01*
X5008Y48489D01*
X4009Y48489D01*
X4009Y48074D01*
X3590Y48074D01*
X3590Y49274D01*
X3590Y49278D01*
X3590Y49285D01*
X3590Y49300D01*
X3594Y49318D01*
X3598Y49341D01*
X3601Y49366D01*
X3612Y49429D01*
X3635Y49500D01*
X3672Y49574D01*
X3690Y49611D01*
X3716Y49648D01*
X3746Y49685D01*
X3779Y49722D01*
X3783Y49726D01*
X3786Y49729D01*
X3797Y49741D01*
X3812Y49752D01*
X3831Y49766D01*
X3853Y49781D01*
X3909Y49815D01*
X3975Y49848D01*
X4053Y49878D01*
X4142Y49900D01*
X4190Y49903D01*
X4238Y49907D01*
X4812Y49907D01*
X4831Y49903D01*
X4831Y49903D02*
G37*
G36*
X3260Y49489D02*
X2050Y49489D01*
X2031Y49485D01*
X2012Y49481D01*
X1987Y49470D01*
X1961Y49459D01*
X1935Y49441D01*
X1909Y49418D01*
X1905Y49415D01*
X1898Y49407D01*
X1887Y49392D01*
X1875Y49374D01*
X1864Y49348D01*
X1853Y49322D01*
X1846Y49289D01*
X1842Y49255D01*
X1842Y48718D01*
X1842Y48715D01*
X1842Y48704D01*
X1846Y48685D01*
X1850Y48663D01*
X1857Y48637D01*
X1872Y48611D01*
X1887Y48581D01*
X1909Y48555D01*
X1912Y48552D01*
X1920Y48544D01*
X1935Y48533D01*
X1953Y48522D01*
X1975Y48511D01*
X2001Y48500D01*
X2031Y48493D01*
X2064Y48489D01*
X3260Y48489D01*
X3260Y48074D01*
X2031Y48074D01*
X1998Y48078D01*
X1957Y48085D01*
X1909Y48096D01*
X1853Y48111D01*
X1798Y48130D01*
X1742Y48159D01*
X1735Y48163D01*
X1720Y48174D01*
X1690Y48196D01*
X1661Y48222D01*
X1624Y48255D01*
X1583Y48296D01*
X1546Y48344D01*
X1513Y48396D01*
X1509Y48404D01*
X1498Y48422D01*
X1487Y48452D01*
X1472Y48493D01*
X1453Y48541D01*
X1442Y48596D01*
X1431Y48655D01*
X1427Y48718D01*
X1427Y49255D01*
X1427Y49259D01*
X1427Y49266D01*
X1427Y49281D01*
X1431Y49300D01*
X1435Y49322D01*
X1438Y49352D01*
X1450Y49415D01*
X1472Y49485D01*
X1505Y49563D01*
X1527Y49600D01*
X1553Y49641D01*
X1579Y49678D01*
X1613Y49715D01*
X1616Y49718D01*
X1620Y49722D01*
X1631Y49733D01*
X1646Y49744D01*
X1664Y49759D01*
X1687Y49774D01*
X1738Y49811D01*
X1805Y49848D01*
X1879Y49878D01*
X1964Y49900D01*
X2012Y49903D01*
X2061Y49907D01*
X3260Y49907D01*
X3260Y49489D01*
X3260Y49489D02*
G37*
G36*
X8576Y52068D02*
X8624Y52064D01*
X8683Y52061D01*
X8750Y52050D01*
X8827Y52038D01*
X8913Y52020D01*
X9005Y51998D01*
X9102Y51972D01*
X9202Y51938D01*
X9302Y51898D01*
X9405Y51850D01*
X9513Y51798D01*
X9616Y51735D01*
X9716Y51661D01*
X9724Y51657D01*
X9738Y51642D01*
X9768Y51620D01*
X9801Y51587D01*
X9846Y51546D01*
X9894Y51498D01*
X9950Y51442D01*
X10005Y51376D01*
X10064Y51305D01*
X10124Y51224D01*
X10187Y51139D01*
X10242Y51046D01*
X10298Y50946D01*
X10350Y50839D01*
X10394Y50727D01*
X10431Y50609D01*
X10157Y50872D01*
X9768Y50502D01*
X9768Y50505D01*
X9761Y50520D01*
X9753Y50542D01*
X9742Y50568D01*
X9724Y50602D01*
X9705Y50642D01*
X9683Y50687D01*
X9653Y50735D01*
X9624Y50787D01*
X9587Y50839D01*
X9546Y50894D01*
X9501Y50946D01*
X9453Y51001D01*
X9401Y51053D01*
X9342Y51105D01*
X9279Y51153D01*
X9276Y51157D01*
X9264Y51164D01*
X9246Y51176D01*
X9220Y51194D01*
X9187Y51213D01*
X9150Y51231D01*
X9105Y51253D01*
X9053Y51279D01*
X8998Y51301D01*
X8939Y51324D01*
X8876Y51342D01*
X8809Y51364D01*
X8739Y51379D01*
X8665Y51390D01*
X8587Y51398D01*
X8509Y51401D01*
X8483Y51401D01*
X8453Y51398D01*
X8416Y51394D01*
X8368Y51390D01*
X8313Y51379D01*
X8250Y51368D01*
X8183Y51353D01*
X8109Y51331D01*
X8035Y51305D01*
X7957Y51276D01*
X7876Y51239D01*
X7798Y51194D01*
X7716Y51142D01*
X7639Y51083D01*
X7565Y51013D01*
X7561Y51009D01*
X7550Y50994D01*
X7528Y50972D01*
X7505Y50942D01*
X7476Y50905D01*
X7442Y50861D01*
X7409Y50809D01*
X7372Y50750D01*
X7335Y50687D01*
X7302Y50613D01*
X7268Y50535D01*
X7239Y50453D01*
X7217Y50365D01*
X7198Y50272D01*
X7183Y50176D01*
X7180Y50072D01*
X7520Y50072D01*
X6861Y49435D01*
X6198Y50072D01*
X6513Y50072D01*
X6513Y50079D01*
X6513Y50098D01*
X6517Y50124D01*
X6517Y50165D01*
X6520Y50213D01*
X6528Y50268D01*
X6535Y50331D01*
X6546Y50402D01*
X6561Y50476D01*
X6580Y50557D01*
X6598Y50639D01*
X6624Y50724D01*
X6657Y50813D01*
X6691Y50902D01*
X6731Y50990D01*
X6780Y51076D01*
X6783Y51079D01*
X6791Y51098D01*
X6805Y51120D01*
X6828Y51153D01*
X6857Y51190D01*
X6887Y51235D01*
X6928Y51283D01*
X6972Y51339D01*
X7020Y51394D01*
X7076Y51453D01*
X7135Y51516D01*
X7198Y51576D01*
X7268Y51635D01*
X7342Y51694D01*
X7420Y51750D01*
X7505Y51801D01*
X7509Y51805D01*
X7528Y51813D01*
X7550Y51827D01*
X7587Y51842D01*
X7628Y51864D01*
X7679Y51887D01*
X7739Y51913D01*
X7802Y51938D01*
X7876Y51961D01*
X7953Y51987D01*
X8035Y52009D01*
X8124Y52031D01*
X8213Y52046D01*
X8309Y52061D01*
X8409Y52068D01*
X8509Y52072D01*
X8539Y52072D01*
X8576Y52068D01*
X8576Y52068D02*
G37*
G36*
X8402Y50616D02*
X7931Y50616D01*
X7931Y50346D01*
X7935Y50350D01*
X7946Y50365D01*
X7965Y50383D01*
X7991Y50402D01*
X8024Y50424D01*
X8065Y50439D01*
X8109Y50453D01*
X8161Y50457D01*
X8187Y50457D01*
X8213Y50453D01*
X8246Y50446D01*
X8283Y50435D01*
X8324Y50416D01*
X8361Y50394D01*
X8394Y50365D01*
X8398Y50361D01*
X8405Y50346D01*
X8420Y50320D01*
X8435Y50287D01*
X8450Y50235D01*
X8465Y50176D01*
X8468Y50139D01*
X8472Y50098D01*
X8476Y50053D01*
X8476Y50005D01*
X8476Y49776D01*
X8476Y49768D01*
X8476Y49750D01*
X8476Y49716D01*
X8476Y49679D01*
X8468Y49598D01*
X8465Y49561D01*
X8461Y49528D01*
X8461Y49524D01*
X8457Y49513D01*
X8453Y49498D01*
X8446Y49479D01*
X8428Y49431D01*
X8394Y49379D01*
X8390Y49376D01*
X8383Y49368D01*
X8372Y49357D01*
X8357Y49342D01*
X8335Y49324D01*
X8313Y49309D01*
X8283Y49291D01*
X8250Y49276D01*
X8246Y49276D01*
X8235Y49268D01*
X8216Y49265D01*
X8191Y49257D01*
X8157Y49250D01*
X8120Y49246D01*
X8079Y49239D01*
X8009Y49239D01*
X7983Y49242D01*
X7946Y49246D01*
X7905Y49254D01*
X7865Y49261D01*
X7820Y49276D01*
X7776Y49294D01*
X7772Y49298D01*
X7757Y49305D01*
X7739Y49316D01*
X7713Y49335D01*
X7687Y49357D01*
X7661Y49387D01*
X7639Y49416D01*
X7616Y49454D01*
X7616Y49457D01*
X7609Y49476D01*
X7602Y49498D01*
X7594Y49535D01*
X7587Y49583D01*
X7579Y49639D01*
X7576Y49709D01*
X7572Y49787D01*
X7572Y49872D01*
X7950Y49872D01*
X7950Y49772D01*
X7950Y49765D01*
X7950Y49746D01*
X7950Y49720D01*
X7950Y49687D01*
X7953Y49613D01*
X7953Y49579D01*
X7957Y49550D01*
X7957Y49546D01*
X7961Y49539D01*
X7968Y49520D01*
X7979Y49505D01*
X7991Y49498D01*
X8005Y49491D01*
X8028Y49487D01*
X8031Y49487D01*
X8046Y49491D01*
X8057Y49494D01*
X8072Y49505D01*
X8076Y49509D01*
X8083Y49516D01*
X8091Y49528D01*
X8094Y49542D01*
X8094Y49550D01*
X8094Y49557D01*
X8098Y49576D01*
X8098Y49598D01*
X8098Y49635D01*
X8098Y49679D01*
X8098Y49735D01*
X8098Y50057D01*
X8098Y50061D01*
X8098Y50072D01*
X8098Y50087D01*
X8094Y50105D01*
X8091Y50142D01*
X8087Y50161D01*
X8079Y50176D01*
X8076Y50179D01*
X8065Y50194D01*
X8046Y50205D01*
X8016Y50209D01*
X8013Y50209D01*
X8002Y50205D01*
X7991Y50202D01*
X7976Y50190D01*
X7972Y50187D01*
X7968Y50179D01*
X7961Y50168D01*
X7953Y50153D01*
X7953Y50150D01*
X7953Y50135D01*
X7950Y50124D01*
X7950Y50109D01*
X7950Y50090D01*
X7950Y50068D01*
X7572Y50068D01*
X7591Y50872D01*
X8402Y50872D01*
X8402Y50616D01*
X8402Y50616D02*
G37*
G36*
X9039Y50902D02*
X9068Y50902D01*
X9105Y50894D01*
X9142Y50887D01*
X9179Y50876D01*
X9216Y50861D01*
X9220Y50857D01*
X9231Y50853D01*
X9250Y50842D01*
X9272Y50831D01*
X9316Y50794D01*
X9342Y50772D01*
X9361Y50746D01*
X9364Y50742D01*
X9368Y50735D01*
X9376Y50720D01*
X9387Y50702D01*
X9398Y50679D01*
X9409Y50653D01*
X9427Y50594D01*
X9427Y50590D01*
X9431Y50579D01*
X9435Y50557D01*
X9439Y50531D01*
X9439Y50494D01*
X9442Y50450D01*
X9446Y50394D01*
X9446Y50331D01*
X9446Y49798D01*
X9446Y49794D01*
X9446Y49791D01*
X9446Y49768D01*
X9446Y49735D01*
X9442Y49698D01*
X9442Y49653D01*
X9439Y49609D01*
X9431Y49568D01*
X9424Y49531D01*
X9424Y49528D01*
X9420Y49516D01*
X9416Y49502D01*
X9409Y49483D01*
X9383Y49431D01*
X9368Y49405D01*
X9346Y49376D01*
X9342Y49372D01*
X9335Y49365D01*
X9324Y49350D01*
X9309Y49335D01*
X9287Y49316D01*
X9264Y49298D01*
X9235Y49283D01*
X9205Y49268D01*
X9202Y49268D01*
X9190Y49265D01*
X9176Y49261D01*
X9153Y49254D01*
X9124Y49250D01*
X9094Y49242D01*
X9024Y49239D01*
X9002Y49239D01*
X8976Y49242D01*
X8946Y49242D01*
X8909Y49246D01*
X8872Y49254D01*
X8835Y49261D01*
X8798Y49272D01*
X8794Y49272D01*
X8783Y49279D01*
X8768Y49287D01*
X8746Y49298D01*
X8698Y49331D01*
X8653Y49376D01*
X8650Y49379D01*
X8646Y49387D01*
X8635Y49402D01*
X8624Y49420D01*
X8598Y49468D01*
X8576Y49524D01*
X8576Y49528D01*
X8572Y49539D01*
X8568Y49557D01*
X8565Y49587D01*
X8561Y49620D01*
X8557Y49665D01*
X8553Y49713D01*
X8553Y49772D01*
X8553Y50331D01*
X8553Y50335D01*
X8553Y50342D01*
X8553Y50353D01*
X8553Y50368D01*
X8557Y50409D01*
X8557Y50457D01*
X8561Y50509D01*
X8568Y50565D01*
X8579Y50616D01*
X8590Y50661D01*
X8594Y50665D01*
X8598Y50679D01*
X8609Y50698D01*
X8624Y50724D01*
X8642Y50750D01*
X8665Y50779D01*
X8694Y50809D01*
X8731Y50835D01*
X8735Y50839D01*
X8750Y50846D01*
X8772Y50857D01*
X8805Y50872D01*
X8842Y50883D01*
X8887Y50894D01*
X8939Y50902D01*
X8994Y50905D01*
X9016Y50905D01*
X9039Y50902D01*
X9039Y50902D02*
G37*
G36*
X10820Y50072D02*
X10505Y50072D01*
X10505Y50065D01*
X10505Y50050D01*
X10505Y50020D01*
X10501Y49979D01*
X10498Y49931D01*
X10490Y49876D01*
X10483Y49813D01*
X10472Y49746D01*
X10457Y49668D01*
X10438Y49591D01*
X10416Y49509D01*
X10390Y49424D01*
X10361Y49335D01*
X10324Y49246D01*
X10283Y49157D01*
X10235Y49072D01*
X10231Y49068D01*
X10224Y49054D01*
X10209Y49028D01*
X10187Y48998D01*
X10161Y48957D01*
X10127Y48913D01*
X10087Y48861D01*
X10046Y48809D01*
X9994Y48750D01*
X9942Y48691D01*
X9879Y48631D01*
X9816Y48572D01*
X9746Y48509D01*
X9672Y48450D01*
X9594Y48394D01*
X9509Y48343D01*
X9505Y48339D01*
X9487Y48331D01*
X9464Y48317D01*
X9427Y48302D01*
X9387Y48280D01*
X9335Y48257D01*
X9276Y48235D01*
X9213Y48209D01*
X9139Y48183D01*
X9064Y48161D01*
X8979Y48139D01*
X8894Y48117D01*
X8802Y48102D01*
X8709Y48087D01*
X8609Y48080D01*
X8509Y48076D01*
X8479Y48076D01*
X8442Y48080D01*
X8394Y48083D01*
X8335Y48087D01*
X8268Y48098D01*
X8191Y48109D01*
X8105Y48128D01*
X8013Y48146D01*
X7916Y48176D01*
X7816Y48206D01*
X7716Y48246D01*
X7613Y48291D01*
X7505Y48346D01*
X7402Y48409D01*
X7302Y48480D01*
X7294Y48483D01*
X7280Y48498D01*
X7250Y48520D01*
X7217Y48554D01*
X7172Y48594D01*
X7124Y48642D01*
X7068Y48702D01*
X7013Y48765D01*
X6954Y48839D01*
X6894Y48917D01*
X6835Y49005D01*
X6776Y49098D01*
X6720Y49198D01*
X6668Y49305D01*
X6624Y49420D01*
X6587Y49539D01*
X6861Y49276D01*
X7246Y49646D01*
X7246Y49642D01*
X7254Y49628D01*
X7261Y49605D01*
X7272Y49579D01*
X7287Y49542D01*
X7309Y49505D01*
X7331Y49461D01*
X7357Y49413D01*
X7391Y49361D01*
X7424Y49305D01*
X7465Y49254D01*
X7509Y49198D01*
X7557Y49142D01*
X7609Y49091D01*
X7668Y49039D01*
X7731Y48991D01*
X7735Y48987D01*
X7746Y48979D01*
X7765Y48968D01*
X7794Y48954D01*
X7824Y48931D01*
X7865Y48913D01*
X7909Y48891D01*
X7961Y48868D01*
X8013Y48842D01*
X8076Y48820D01*
X8139Y48802D01*
X8205Y48783D01*
X8279Y48765D01*
X8353Y48754D01*
X8431Y48746D01*
X8509Y48742D01*
X8535Y48742D01*
X8561Y48746D01*
X8602Y48750D01*
X8650Y48754D01*
X8702Y48765D01*
X8765Y48776D01*
X8831Y48791D01*
X8905Y48813D01*
X8979Y48839D01*
X9057Y48868D01*
X9135Y48905D01*
X9216Y48950D01*
X9294Y49002D01*
X9372Y49065D01*
X9446Y49131D01*
X9450Y49135D01*
X9464Y49150D01*
X9483Y49172D01*
X9509Y49202D01*
X9539Y49239D01*
X9572Y49283D01*
X9605Y49335D01*
X9642Y49394D01*
X9679Y49461D01*
X9713Y49531D01*
X9746Y49609D01*
X9776Y49691D01*
X9801Y49779D01*
X9820Y49872D01*
X9835Y49972D01*
X9838Y50072D01*
X9490Y50072D01*
X10157Y50705D01*
X10820Y50072D01*
X10820Y50072D02*
G37*
%LPC*%
G36*
X63430Y17925D02*
X63422Y17925D01*
X63411Y17922D01*
X63397Y17920D01*
X63383Y17914D01*
X63367Y17909D01*
X63350Y17897D01*
X63333Y17884D01*
X63331Y17881D01*
X63328Y17875D01*
X63319Y17867D01*
X63314Y17856D01*
X63297Y17825D01*
X63294Y17806D01*
X63292Y17786D01*
X63292Y17784D01*
X63292Y17778D01*
X63294Y17767D01*
X63297Y17753D01*
X63303Y17736D01*
X63308Y17720D01*
X63319Y17703D01*
X63333Y17686D01*
X63336Y17684D01*
X63342Y17681D01*
X63350Y17673D01*
X63361Y17667D01*
X63392Y17650D01*
X63408Y17648D01*
X63430Y17645D01*
X63439Y17645D01*
X63450Y17648D01*
X63464Y17650D01*
X63478Y17656D01*
X63494Y17661D01*
X63511Y17673D01*
X63528Y17686D01*
X63530Y17689D01*
X63533Y17695D01*
X63539Y17703D01*
X63547Y17714D01*
X63561Y17747D01*
X63564Y17764D01*
X63567Y17786D01*
X63567Y17789D01*
X63567Y17795D01*
X63564Y17806D01*
X63561Y17820D01*
X63550Y17850D01*
X63542Y17867D01*
X63528Y17884D01*
X63525Y17886D01*
X63519Y17889D01*
X63511Y17897D01*
X63500Y17906D01*
X63469Y17920D01*
X63450Y17922D01*
X63430Y17925D01*
X63430Y17925D02*
G37*
%LPD*%
G36*
X63461Y17878D02*
X63475Y17875D01*
X63486Y17867D01*
X63497Y17859D01*
X63505Y17845D01*
X63508Y17828D01*
X63508Y17825D01*
X63508Y17820D01*
X63503Y17803D01*
X63497Y17795D01*
X63486Y17786D01*
X63475Y17778D01*
X63458Y17775D01*
X63511Y17689D01*
X63478Y17689D01*
X63428Y17772D01*
X63392Y17772D01*
X63392Y17689D01*
X63367Y17689D01*
X63367Y17881D01*
X63450Y17881D01*
X63461Y17878D01*
X63461Y17878D02*
G37*
%LPC*%
G36*
X63447Y17856D02*
X63392Y17856D01*
X63392Y17795D01*
X63430Y17795D01*
X63436Y17797D01*
X63453Y17800D01*
X63467Y17811D01*
X63472Y17820D01*
X63475Y17828D01*
X63475Y17834D01*
X63469Y17842D01*
X63464Y17847D01*
X63458Y17850D01*
X63447Y17856D01*
X63447Y17856D02*
G37*
G36*
X61762Y17537D02*
X61751Y17537D01*
X61737Y17531D01*
X61718Y17525D01*
X61695Y17514D01*
X61673Y17498D01*
X61648Y17473D01*
X61623Y17442D01*
X61357Y17067D01*
X62156Y15818D01*
X62159Y15812D01*
X62167Y15799D01*
X62181Y15782D01*
X62198Y15760D01*
X62217Y15738D01*
X62239Y15721D01*
X62259Y15707D01*
X62278Y15701D01*
X62281Y15701D01*
X62292Y15704D01*
X62309Y15707D01*
X62328Y15713D01*
X62351Y15721D01*
X62375Y15738D01*
X62398Y15757D01*
X62420Y15785D01*
X62698Y16184D01*
X61906Y17437D01*
X61904Y17442D01*
X61895Y17453D01*
X61881Y17467D01*
X61865Y17487D01*
X61842Y17506D01*
X61817Y17520D01*
X61790Y17531D01*
X61762Y17537D01*
X61762Y17537D02*
G37*
G36*
X73194Y16823D02*
X72767Y16823D01*
X72767Y16545D01*
X73219Y16545D01*
X73228Y16548D01*
X73242Y16551D01*
X73256Y16559D01*
X73267Y16573D01*
X73281Y16595D01*
X73289Y16623D01*
X73292Y16662D01*
X73292Y16706D01*
X73292Y16712D01*
X73289Y16726D01*
X73286Y16743D01*
X73281Y16765D01*
X73267Y16787D01*
X73250Y16804D01*
X73228Y16817D01*
X73194Y16823D01*
X73194Y16823D02*
G37*
G36*
X68228Y16823D02*
X67797Y16823D01*
X67797Y16554D01*
X68236Y16554D01*
X68253Y16556D01*
X68272Y16565D01*
X68292Y16579D01*
X68294Y16584D01*
X68300Y16590D01*
X68303Y16601D01*
X68308Y16612D01*
X68311Y16629D01*
X68314Y16648D01*
X68314Y16670D01*
X68314Y16706D01*
X68314Y16709D01*
X68314Y16720D01*
X68311Y16734D01*
X68311Y16751D01*
X68300Y16784D01*
X68292Y16798D01*
X68281Y16809D01*
X68278Y16812D01*
X68264Y16817D01*
X68256Y16817D01*
X68242Y16820D01*
X68228Y16823D01*
X68228Y16823D02*
G37*
G36*
X69344Y16826D02*
X69055Y16826D01*
X69038Y16823D01*
X69019Y16817D01*
X68997Y16809D01*
X68977Y16795D01*
X68958Y16779D01*
X68944Y16756D01*
X68944Y16754D01*
X68941Y16748D01*
X68938Y16737D01*
X68933Y16720D01*
X68930Y16698D01*
X68925Y16673D01*
X68922Y16640D01*
X68922Y16604D01*
X68922Y16482D01*
X68922Y16479D01*
X68922Y16476D01*
X68922Y16459D01*
X68925Y16432D01*
X68927Y16404D01*
X68930Y16370D01*
X68938Y16340D01*
X68947Y16312D01*
X68961Y16290D01*
X68963Y16290D01*
X68966Y16284D01*
X68975Y16282D01*
X68986Y16276D01*
X68997Y16271D01*
X69013Y16265D01*
X69036Y16262D01*
X69058Y16259D01*
X69372Y16259D01*
X69388Y16262D01*
X69408Y16268D01*
X69427Y16276D01*
X69447Y16290D01*
X69463Y16307D01*
X69474Y16332D01*
X69474Y16334D01*
X69477Y16340D01*
X69480Y16351D01*
X69483Y16365D01*
X69485Y16384D01*
X69488Y16412D01*
X69491Y16443D01*
X69491Y16482D01*
X69491Y16604D01*
X69491Y16606D01*
X69491Y16609D01*
X69491Y16623D01*
X69488Y16645D01*
X69485Y16673D01*
X69477Y16729D01*
X69466Y16754D01*
X69455Y16776D01*
X69452Y16779D01*
X69449Y16784D01*
X69438Y16792D01*
X69427Y16801D01*
X69413Y16809D01*
X69394Y16817D01*
X69372Y16823D01*
X69344Y16826D01*
X69344Y16826D02*
G37*
G36*
X8698Y46110D02*
X8468Y46110D01*
X8468Y46069D01*
X8698Y46069D01*
X8698Y46110D01*
X8698Y46110D02*
G37*
G36*
X8168Y46069D02*
X8142Y46069D01*
X8142Y45988D01*
X8168Y45988D01*
X8168Y46069D01*
X8168Y46069D02*
G37*
G36*
X8402Y46055D02*
X8339Y46051D01*
X8283Y46044D01*
X8231Y46036D01*
X8231Y45925D01*
X9064Y45925D01*
X9064Y45940D01*
X9039Y45966D01*
X9002Y45988D01*
X8957Y46006D01*
X8902Y46021D01*
X8835Y46036D01*
X8761Y46047D01*
X8761Y46006D01*
X8402Y46006D01*
X8402Y46055D01*
X8402Y46055D02*
G37*
G36*
X8079Y45988D02*
X8042Y45969D01*
X8020Y45955D01*
X8002Y45936D01*
X8002Y45925D01*
X8079Y45925D01*
X8079Y45988D01*
X8079Y45988D02*
G37*
G36*
X9164Y45977D02*
X9161Y45977D01*
X9150Y45973D01*
X9135Y45962D01*
X9131Y45944D01*
X9131Y45940D01*
X9135Y45929D01*
X9146Y45918D01*
X9164Y45914D01*
X9168Y45914D01*
X9183Y45918D01*
X9194Y45925D01*
X9198Y45944D01*
X9198Y45947D01*
X9194Y45962D01*
X9183Y45973D01*
X9164Y45977D01*
X9164Y45977D02*
G37*
G36*
X9209Y45692D02*
X9083Y45692D01*
X9083Y45569D01*
X9209Y45569D01*
X9209Y45692D01*
X9209Y45692D02*
G37*
G36*
X8794Y45410D02*
X8461Y45410D01*
X8461Y45388D01*
X8794Y45388D01*
X8794Y45410D01*
X8794Y45410D02*
G37*
G36*
X9053Y45810D02*
X8013Y45810D01*
X8031Y45592D01*
X8502Y45103D01*
X8716Y45325D01*
X8394Y45325D01*
X8394Y45477D01*
X8865Y45477D01*
X9020Y45636D01*
X9020Y45755D01*
X9050Y45755D01*
X9053Y45810D01*
X9053Y45810D02*
G37*
G36*
X8042Y45488D02*
X8116Y44707D01*
X8457Y45058D01*
X8042Y45488D01*
X8042Y45488D02*
G37*
G36*
X9020Y45544D02*
X8865Y45381D01*
X8865Y45325D01*
X8809Y45325D01*
X8546Y45058D01*
X8953Y44636D01*
X9027Y45503D01*
X9020Y45503D01*
X9020Y45544D01*
X9020Y45544D02*
G37*
G36*
X8502Y45010D02*
X8124Y44621D01*
X8161Y44225D01*
X8687Y44225D01*
X8683Y44262D01*
X8694Y44310D01*
X8713Y44355D01*
X8739Y44392D01*
X8765Y44418D01*
X8794Y44440D01*
X8835Y44458D01*
X8876Y44470D01*
X8909Y44473D01*
X8939Y44470D01*
X8946Y44551D01*
X8502Y45010D01*
X8502Y45010D02*
G37*
G36*
X8909Y44359D02*
X8890Y44359D01*
X8876Y44351D01*
X8853Y44344D01*
X8835Y44333D01*
X8816Y44310D01*
X8802Y44284D01*
X8798Y44247D01*
X8798Y44244D01*
X8802Y44229D01*
X8805Y44210D01*
X8813Y44192D01*
X8824Y44170D01*
X8846Y44151D01*
X8872Y44136D01*
X8909Y44133D01*
X8913Y44133D01*
X8927Y44136D01*
X8946Y44140D01*
X8968Y44147D01*
X8987Y44162D01*
X9005Y44181D01*
X9020Y44210D01*
X9024Y44247D01*
X9024Y44251D01*
X9024Y44266D01*
X9016Y44284D01*
X9009Y44303D01*
X8994Y44325D01*
X8976Y44340D01*
X8946Y44355D01*
X8909Y44359D01*
X8909Y44359D02*
G37*
G36*
X8202Y44162D02*
X8187Y44162D01*
X8187Y44073D01*
X8202Y44073D01*
X8202Y44162D01*
X8202Y44162D02*
G37*
%LPD*%
G36*
X8950Y44314D02*
X8961Y44303D01*
X8976Y44292D01*
X8983Y44273D01*
X8987Y44247D01*
X8987Y44244D01*
X8987Y44236D01*
X8976Y44210D01*
X8968Y44196D01*
X8953Y44184D01*
X8935Y44177D01*
X8909Y44173D01*
X8898Y44173D01*
X8872Y44184D01*
X8857Y44192D01*
X8846Y44203D01*
X8839Y44221D01*
X8835Y44247D01*
X8835Y44251D01*
X8835Y44259D01*
X8846Y44284D01*
X8853Y44299D01*
X8865Y44310D01*
X8883Y44318D01*
X8909Y44321D01*
X8920Y44321D01*
X8950Y44314D01*
X8950Y44314D02*
G37*
%LPC*%
G36*
X8916Y44259D02*
X8905Y44259D01*
X8902Y44255D01*
X8898Y44247D01*
X8898Y44244D01*
X8902Y44240D01*
X8909Y44236D01*
X8916Y44236D01*
X8920Y44240D01*
X8920Y44247D01*
X8920Y44251D01*
X8920Y44255D01*
X8916Y44259D01*
X8916Y44259D02*
G37*
G36*
X4779Y49489D02*
X4234Y49489D01*
X4212Y49485D01*
X4179Y49481D01*
X4146Y49470D01*
X4138Y49466D01*
X4123Y49459D01*
X4097Y49444D01*
X4075Y49422D01*
X4072Y49418D01*
X4060Y49404D01*
X4046Y49381D01*
X4027Y49352D01*
X4023Y49344D01*
X4020Y49326D01*
X4012Y49300D01*
X4009Y49266D01*
X4009Y48907D01*
X5008Y48907D01*
X5008Y49266D01*
X5008Y49270D01*
X5008Y49281D01*
X5005Y49300D01*
X5001Y49322D01*
X4990Y49344D01*
X4979Y49370D01*
X4960Y49396D01*
X4938Y49422D01*
X4934Y49426D01*
X4927Y49433D01*
X4912Y49444D01*
X4894Y49455D01*
X4871Y49466D01*
X4842Y49478D01*
X4812Y49485D01*
X4779Y49489D01*
X4779Y49489D02*
G37*
G36*
X9002Y50661D02*
X8994Y50661D01*
X8979Y50657D01*
X8961Y50646D01*
X8946Y50627D01*
X8942Y50620D01*
X8942Y50609D01*
X8939Y50594D01*
X8935Y50576D01*
X8935Y50546D01*
X8931Y50513D01*
X8931Y50468D01*
X8931Y49687D01*
X8931Y49679D01*
X8931Y49665D01*
X8931Y49639D01*
X8935Y49613D01*
X8935Y49579D01*
X8939Y49554D01*
X8942Y49528D01*
X8946Y49513D01*
X8950Y49509D01*
X8957Y49502D01*
X8976Y49491D01*
X8998Y49487D01*
X9005Y49487D01*
X9020Y49491D01*
X9039Y49502D01*
X9053Y49520D01*
X9057Y49528D01*
X9057Y49539D01*
X9061Y49554D01*
X9064Y49572D01*
X9064Y49602D01*
X9068Y49635D01*
X9068Y49676D01*
X9068Y50468D01*
X9068Y50476D01*
X9068Y50487D01*
X9068Y50509D01*
X9068Y50535D01*
X9064Y50590D01*
X9061Y50613D01*
X9057Y50627D01*
X9053Y50631D01*
X9046Y50646D01*
X9027Y50657D01*
X9002Y50661D01*
X9002Y50661D02*
G37*
%LPD*%
D10*
X77054Y45114D02*
G03*
X77054Y45114I-125J0D01*
G01*
X68545Y45114D02*
G03*
X68545Y45114I-125J0D01*
G01*
X34394Y16100D02*
G03*
X34394Y16100I-125J0D01*
G01*
X42957Y16100D02*
G03*
X42957Y16100I-125J0D01*
G01*
D11*
X25369Y12106D02*
G03*
X25369Y12106I-76J0D01*
G01*
X21793Y11455D02*
X21793Y11621D01*
X21793Y14707D02*
X24435Y14707D01*
X21793Y14541D02*
X21793Y14707D01*
X21793Y11455D02*
X24435Y11455D01*
X24435Y11621D01*
X24435Y14541D02*
X24435Y14707D01*
D12*
X76835Y48835D02*
X76835Y54035D01*
X20975Y48835D02*
X20975Y51435D01*
X18385Y51435D02*
X20975Y51435D01*
X18385Y54035D02*
X76835Y54035D01*
X18385Y49075D02*
X18385Y54035D01*
X18385Y49075D02*
X18625Y48835D01*
X76835Y48835D01*
X77850Y36026D02*
X77850Y36395D01*
X77835Y36011D02*
X77850Y36026D01*
X68780Y36011D02*
X77835Y36011D01*
X79560Y26719D02*
X79560Y36394D01*
X55060Y26719D02*
X79560Y26719D01*
X79559Y36395D02*
X79560Y36394D01*
X77850Y36395D02*
X79559Y36395D01*
X56715Y36011D02*
X65840Y36011D01*
X65840Y36395D02*
X68780Y36395D01*
X55060Y26719D02*
X55060Y36395D01*
X56715Y36395D01*
X64570Y26724D02*
X64570Y28194D01*
X70050Y26724D02*
X70050Y28194D01*
X64570Y28194D02*
X70050Y28194D01*
X65840Y36011D02*
X65840Y36395D01*
X55045Y32820D02*
X56340Y32820D01*
X55045Y29918D02*
X56340Y29918D01*
X56340Y32820D01*
X56715Y36011D02*
X56715Y36395D01*
X68780Y36011D02*
X68780Y36395D01*
X78225Y29918D02*
X78225Y32820D01*
X78225Y29918D02*
X79520Y29918D01*
X78225Y32820D02*
X79520Y32820D01*
X63350Y25403D02*
X70975Y25403D01*
X71250Y25128D01*
X71250Y22603D02*
X71250Y25128D01*
X68550Y22603D02*
X68550Y25403D01*
X63350Y22603D02*
X63350Y25403D01*
X63350Y22603D02*
X71250Y22603D01*
X34700Y40389D02*
X42325Y40389D01*
X42600Y40114D01*
X42600Y37589D02*
X42600Y40114D01*
X39900Y37589D02*
X39900Y40389D01*
X34700Y37589D02*
X34700Y40389D01*
X34700Y37589D02*
X42600Y37589D01*
X13430Y45720D02*
X43815Y45720D01*
X13180Y45970D02*
X13430Y45720D01*
X13180Y45970D02*
X13180Y48520D01*
X15880Y45720D02*
X15880Y48520D01*
X43815Y45720D02*
X43815Y48520D01*
X13180Y48520D02*
X43815Y48520D01*
X49650Y32820D02*
X50945Y32820D01*
X49650Y29918D02*
X50945Y29918D01*
X49650Y29918D02*
X49650Y32820D01*
X40205Y36011D02*
X40205Y36395D01*
X28140Y36011D02*
X28140Y36395D01*
X27765Y29918D02*
X27765Y32820D01*
X26470Y29918D02*
X27765Y29918D01*
X26470Y32820D02*
X27765Y32820D01*
X37265Y36011D02*
X37265Y36395D01*
X35995Y28194D02*
X41475Y28194D01*
X41475Y26724D02*
X41475Y28194D01*
X35995Y26724D02*
X35995Y28194D01*
X26485Y36395D02*
X28140Y36395D01*
X26485Y26719D02*
X26485Y36395D01*
X37265Y36395D02*
X40205Y36395D01*
X28140Y36011D02*
X37265Y36011D01*
X49275Y36395D02*
X50984Y36395D01*
X50985Y36394D01*
X26485Y26719D02*
X50985Y26719D01*
X50985Y36394D01*
X40205Y36011D02*
X49260Y36011D01*
X49275Y36026D01*
X49275Y36395D01*
X76835Y575D02*
X76835Y5775D01*
X20975Y575D02*
X20975Y3175D01*
X18385Y3175D02*
X20975Y3175D01*
X18385Y5775D02*
X76835Y5775D01*
X18385Y815D02*
X18385Y5775D01*
X18385Y815D02*
X18625Y575D01*
X76835Y575D01*
X488Y8672D02*
X10688Y8672D01*
X10688Y172D02*
X10688Y8672D01*
X488Y172D02*
X10688Y172D01*
X488Y172D02*
X488Y8672D01*
X328Y12164D02*
X8428Y12164D01*
X13828Y12164D02*
X14928Y12164D01*
X14928Y19764D02*
X14928Y21364D01*
X14928Y12164D02*
X14928Y13764D01*
X328Y21364D02*
X14928Y21364D01*
X328Y12164D02*
X328Y21364D01*
X29464Y6472D02*
X29464Y9017D01*
X26924Y6472D02*
X31989Y6472D01*
X26924Y6472D02*
X26924Y9017D01*
X31854Y9017D01*
X31989Y8882D01*
X31989Y6472D02*
X31989Y8882D01*
X18285Y9147D02*
X25910Y9147D01*
X26185Y8872D01*
X26185Y6347D02*
X26185Y8872D01*
X23485Y6347D02*
X23485Y9147D01*
X18285Y6347D02*
X18285Y9147D01*
X18285Y6347D02*
X26185Y6347D01*
X17014Y14559D02*
X17014Y14859D01*
X20614Y14559D02*
X20614Y14859D01*
X19514Y14859D02*
X20614Y14859D01*
X17014Y14859D02*
X18214Y14859D01*
X17014Y11259D02*
X18214Y11259D01*
X19514Y11259D02*
X20614Y11259D01*
X20614Y11559D01*
X17014Y11259D02*
X17014Y11559D01*
X24141Y18096D02*
X24141Y18496D01*
X25541Y18096D02*
X25541Y18496D01*
X16488Y17969D02*
X16488Y18369D01*
X17888Y17969D02*
X17888Y18369D01*
X20341Y16746D02*
X21391Y16746D01*
X21391Y19846D01*
X20341Y16746D02*
X20341Y19571D01*
X20616Y19846D01*
X21391Y19846D01*
X76529Y40364D02*
X76529Y41258D01*
X76379Y41408D02*
X76529Y41258D01*
X76529Y43045D02*
X76529Y43939D01*
X76379Y42895D02*
X76529Y43045D01*
X70029Y43939D02*
X76529Y43939D01*
X70029Y40364D02*
X76529Y40364D01*
X76379Y41408D02*
X76379Y42895D01*
X70029Y40364D02*
X70029Y43939D01*
X61520Y40364D02*
X61520Y43939D01*
X67870Y41408D02*
X67870Y42895D01*
X61520Y40364D02*
X68020Y40364D01*
X61520Y43939D02*
X68020Y43939D01*
X67870Y42895D02*
X68020Y43045D01*
X68020Y43939D01*
X67870Y41408D02*
X68020Y41258D01*
X68020Y40364D02*
X68020Y41258D01*
X41169Y17275D02*
X41169Y20850D01*
X34819Y18319D02*
X34819Y19806D01*
X34669Y20850D02*
X41169Y20850D01*
X34669Y17275D02*
X41169Y17275D01*
X34669Y18169D02*
X34819Y18319D01*
X34669Y17275D02*
X34669Y18169D01*
X34669Y19956D02*
X34819Y19806D01*
X34669Y19956D02*
X34669Y20850D01*
X43232Y19956D02*
X43232Y20850D01*
X43232Y19956D02*
X43382Y19806D01*
X43232Y17275D02*
X43232Y18169D01*
X43382Y18319D01*
X43232Y17275D02*
X49732Y17275D01*
X43232Y20850D02*
X49732Y20850D01*
X43382Y18319D02*
X43382Y19806D01*
X49732Y17275D02*
X49732Y20850D01*
X30260Y12031D02*
X30260Y15806D01*
X28160Y12006D02*
X28160Y15806D01*
X31025Y10784D02*
X32225Y10784D01*
X27624Y12881D02*
X27624Y13281D01*
X26224Y12881D02*
X26224Y13281D01*
X78240Y51757D02*
X77907Y51757D01*
X78074Y51757D01*
X78074Y50924D01*
X77907Y50757D01*
X77741Y50757D01*
X77574Y50924D01*
X78574Y51590D02*
X78740Y51757D01*
X79073Y51757D01*
X79240Y51590D01*
X79240Y51424D01*
X79073Y51257D01*
X79240Y51090D01*
X79240Y50924D01*
X79073Y50757D01*
X78740Y50757D01*
X78574Y50924D01*
X78574Y51090D01*
X78740Y51257D01*
X78574Y51424D01*
X78574Y51590D01*
X78740Y51257D02*
X79073Y51257D01*
X55680Y38353D02*
X55347Y38353D01*
X55514Y38353D01*
X55514Y37520D01*
X55347Y37353D01*
X55180Y37353D01*
X55014Y37520D01*
X56013Y37353D02*
X56347Y37353D01*
X56180Y37353D01*
X56180Y38353D01*
X56013Y38186D01*
X56847Y38186D02*
X57013Y38353D01*
X57346Y38353D01*
X57513Y38186D01*
X57513Y37520D01*
X57346Y37353D01*
X57013Y37353D01*
X56847Y37520D01*
X56847Y38186D01*
X61627Y24503D02*
X61294Y24503D01*
X61460Y24503D01*
X61460Y23670D01*
X61294Y23503D01*
X61127Y23503D01*
X60960Y23670D01*
X62626Y24503D02*
X62293Y24336D01*
X61960Y24003D01*
X61960Y23670D01*
X62127Y23503D01*
X62460Y23503D01*
X62626Y23670D01*
X62626Y23836D01*
X62460Y24003D01*
X61960Y24003D01*
X32980Y39489D02*
X32647Y39489D01*
X32814Y39489D01*
X32814Y38656D01*
X32647Y38489D01*
X32481Y38489D01*
X32314Y38656D01*
X33980Y39489D02*
X33314Y39489D01*
X33314Y38989D01*
X33647Y39156D01*
X33813Y39156D01*
X33980Y38989D01*
X33980Y38656D01*
X33813Y38489D01*
X33480Y38489D01*
X33314Y38656D01*
X11938Y47617D02*
X11605Y47617D01*
X11771Y47617D01*
X11771Y46784D01*
X11605Y46617D01*
X11438Y46617D01*
X11272Y46784D01*
X12271Y46617D02*
X12604Y46617D01*
X12438Y46617D01*
X12438Y47617D01*
X12271Y47450D01*
X27105Y38353D02*
X26772Y38353D01*
X26939Y38353D01*
X26939Y37520D01*
X26772Y37353D01*
X26605Y37353D01*
X26439Y37520D01*
X27438Y38353D02*
X28105Y38353D01*
X28105Y38186D01*
X27438Y37520D01*
X27438Y37353D01*
X78192Y3675D02*
X77859Y3675D01*
X78026Y3675D01*
X78026Y2842D01*
X77859Y2675D01*
X77693Y2675D01*
X77526Y2842D01*
X78526Y2842D02*
X78692Y2675D01*
X79025Y2675D01*
X79192Y2842D01*
X79192Y3508D01*
X79025Y3675D01*
X78692Y3675D01*
X78526Y3508D01*
X78526Y3342D01*
X78692Y3175D01*
X79192Y3175D01*
X12025Y1516D02*
X11692Y1516D01*
X11859Y1516D01*
X11859Y683D01*
X11692Y516D01*
X11526Y516D01*
X11359Y683D01*
X13025Y516D02*
X12359Y516D01*
X13025Y1183D01*
X13025Y1349D01*
X12858Y1516D01*
X12525Y1516D01*
X12359Y1349D01*
X7051Y10097D02*
X7051Y9764D01*
X7051Y9931D01*
X7884Y9931D01*
X8051Y9764D01*
X8051Y9598D01*
X7884Y9431D01*
X7218Y10431D02*
X7051Y10597D01*
X7051Y10930D01*
X7218Y11097D01*
X7385Y11097D01*
X7551Y10930D01*
X7551Y10764D01*
X7551Y10930D01*
X7718Y11097D01*
X7884Y11097D01*
X8051Y10930D01*
X8051Y10597D01*
X7884Y10431D01*
X33619Y8374D02*
X33286Y8374D01*
X33453Y8374D01*
X33453Y7541D01*
X33286Y7374D01*
X33120Y7374D01*
X32953Y7541D01*
X33953Y7374D02*
X34286Y7374D01*
X34119Y7374D01*
X34119Y8374D01*
X33953Y8207D01*
X34786Y7374D02*
X35119Y7374D01*
X34952Y7374D01*
X34952Y8374D01*
X34786Y8207D01*
X16684Y8147D02*
X16351Y8147D01*
X16518Y8147D01*
X16518Y7314D01*
X16351Y7147D01*
X16185Y7147D01*
X16018Y7314D01*
X17517Y7147D02*
X17517Y8147D01*
X17018Y7647D01*
X17684Y7647D01*
X17717Y3883D02*
X17051Y3883D01*
X17717Y4549D01*
X17717Y4716D01*
X17551Y4883D01*
X17218Y4883D01*
X17051Y4716D01*
X17218Y1216D02*
X17551Y1216D01*
X17385Y1216D01*
X17385Y2216D01*
X17218Y2049D01*
X18786Y15473D02*
X18786Y16139D01*
X18619Y16306D01*
X18286Y16306D01*
X18119Y16139D01*
X18119Y15473D01*
X18286Y15306D01*
X18619Y15306D01*
X18453Y15639D02*
X18786Y15306D01*
X18619Y15306D02*
X18786Y15473D01*
X19119Y15306D02*
X19452Y15306D01*
X19286Y15306D01*
X19286Y16306D01*
X19119Y16139D01*
X20914Y11659D02*
X21081Y11659D01*
X21081Y11492D01*
X20914Y11492D01*
X20914Y11659D01*
X24175Y20201D02*
X24175Y21201D01*
X24675Y21201D01*
X24841Y21034D01*
X24841Y20701D01*
X24675Y20534D01*
X24175Y20534D01*
X24508Y20534D02*
X24841Y20201D01*
X25174Y20201D02*
X25508Y20201D01*
X25341Y20201D01*
X25341Y21201D01*
X25174Y21034D01*
X18084Y10531D02*
X17918Y10698D01*
X17585Y10698D01*
X17418Y10531D01*
X17418Y9865D01*
X17585Y9698D01*
X17918Y9698D01*
X18084Y9865D01*
X18084Y10198D01*
X17751Y10198D01*
X18418Y9698D02*
X18418Y10698D01*
X19084Y9698D01*
X19084Y10698D01*
X19417Y10698D02*
X19417Y9698D01*
X19917Y9698D01*
X20084Y9865D01*
X20084Y10531D01*
X19917Y10698D01*
X19417Y10698D01*
X16482Y20350D02*
X16482Y21350D01*
X16982Y21350D01*
X17148Y21183D01*
X17148Y20850D01*
X16982Y20683D01*
X16482Y20683D01*
X16815Y20683D02*
X17148Y20350D01*
X18148Y20350D02*
X17482Y20350D01*
X18148Y21017D01*
X18148Y21183D01*
X17981Y21350D01*
X17648Y21350D01*
X17482Y21183D01*
X9929Y10117D02*
X9762Y10283D01*
X9429Y10283D01*
X9262Y10117D01*
X9262Y9450D01*
X9429Y9284D01*
X9762Y9284D01*
X9929Y9450D01*
X9929Y9783D01*
X9595Y9783D01*
X10262Y9284D02*
X10262Y10283D01*
X10928Y9284D01*
X10928Y10283D01*
X11262Y10283D02*
X11262Y9284D01*
X11761Y9284D01*
X11928Y9450D01*
X11928Y10117D01*
X11761Y10283D01*
X11262Y10283D01*
X20429Y21350D02*
X20429Y20517D01*
X20595Y20350D01*
X20929Y20350D01*
X21095Y20517D01*
X21095Y21350D01*
X21428Y20350D02*
X21762Y20350D01*
X21595Y20350D01*
X21595Y21350D01*
X21428Y21183D01*
X19366Y20246D02*
X19533Y20246D01*
X19533Y20079D01*
X19366Y20079D01*
X19366Y20246D01*
X77145Y42664D02*
X77145Y41831D01*
X77312Y41664D01*
X77645Y41664D01*
X77811Y41831D01*
X77811Y42664D01*
X78145Y42497D02*
X78311Y42664D01*
X78644Y42664D01*
X78811Y42497D01*
X78811Y42331D01*
X78644Y42164D01*
X78478Y42164D01*
X78644Y42164D01*
X78811Y41997D01*
X78811Y41831D01*
X78644Y41664D01*
X78311Y41664D01*
X78145Y41831D01*
X59238Y42664D02*
X59238Y41831D01*
X59405Y41664D01*
X59738Y41664D01*
X59904Y41831D01*
X59904Y42664D01*
X60904Y42664D02*
X60238Y42664D01*
X60238Y42164D01*
X60571Y42331D01*
X60737Y42331D01*
X60904Y42164D01*
X60904Y41831D01*
X60737Y41664D01*
X60404Y41664D01*
X60238Y41831D01*
X32314Y19550D02*
X32314Y18717D01*
X32481Y18550D01*
X32814Y18550D01*
X32980Y18717D01*
X32980Y19550D01*
X33813Y18550D02*
X33813Y19550D01*
X33314Y19050D01*
X33980Y19050D01*
X50348Y19550D02*
X50348Y18717D01*
X50515Y18550D01*
X50848Y18550D01*
X51014Y18717D01*
X51014Y19550D01*
X52014Y18550D02*
X51348Y18550D01*
X52014Y19217D01*
X52014Y19383D01*
X51847Y19550D01*
X51514Y19550D01*
X51348Y19383D01*
X59132Y13773D02*
X59132Y12773D01*
X59799Y12773D01*
X60798Y13773D02*
X60132Y13773D01*
X60132Y12773D01*
X60798Y12773D01*
X60132Y13273D02*
X60465Y13273D01*
X61132Y13773D02*
X61132Y12773D01*
X61632Y12773D01*
X61798Y12940D01*
X61798Y13606D01*
X61632Y13773D01*
X61132Y13773D01*
X63131Y12773D02*
X63131Y13773D01*
X63464Y13439D01*
X63798Y13773D01*
X63798Y12773D01*
X64297Y13439D02*
X64631Y13439D01*
X64797Y13273D01*
X64797Y12773D01*
X64297Y12773D01*
X64131Y12940D01*
X64297Y13106D01*
X64797Y13106D01*
X65297Y13606D02*
X65297Y13439D01*
X65130Y13439D01*
X65464Y13439D01*
X65297Y13439D01*
X65297Y12940D01*
X65464Y12773D01*
X65963Y13439D02*
X65963Y12773D01*
X65963Y13106D01*
X66130Y13273D01*
X66297Y13439D01*
X66463Y13439D01*
X66963Y12773D02*
X67296Y12773D01*
X67130Y12773D01*
X67130Y13439D01*
X66963Y13439D01*
X67796Y13439D02*
X68463Y12773D01*
X68129Y13106D01*
X68463Y13439D01*
X67796Y12773D01*
X69796Y13773D02*
X69796Y12773D01*
X70295Y12773D01*
X70462Y12940D01*
X70462Y13106D01*
X70295Y13273D01*
X69796Y13273D01*
X70295Y13273D01*
X70462Y13439D01*
X70462Y13606D01*
X70295Y13773D01*
X69796Y13773D01*
X70962Y12773D02*
X71295Y12773D01*
X71462Y12940D01*
X71462Y13273D01*
X71295Y13439D01*
X70962Y13439D01*
X70795Y13273D01*
X70795Y12940D01*
X70962Y12773D01*
X71795Y12773D02*
X71795Y13439D01*
X72295Y13439D01*
X72461Y13273D01*
X72461Y12773D01*
X72795Y12773D02*
X72795Y13439D01*
X73294Y13439D01*
X73461Y13273D01*
X73461Y12773D01*
X74294Y12773D02*
X73961Y12773D01*
X73794Y12940D01*
X73794Y13273D01*
X73961Y13439D01*
X74294Y13439D01*
X74461Y13273D01*
X74461Y13106D01*
X73794Y13106D01*
X74961Y13606D02*
X74961Y13439D01*
X74794Y13439D01*
X75127Y13439D01*
X74961Y13439D01*
X74961Y12940D01*
X75127Y12773D01*
X28479Y17679D02*
X28479Y16680D01*
X28979Y16680D01*
X29146Y16846D01*
X29146Y17513D01*
X28979Y17679D01*
X28479Y17679D01*
X30145Y16680D02*
X29479Y16680D01*
X30145Y17346D01*
X30145Y17513D01*
X29979Y17679D01*
X29645Y17679D01*
X29479Y17513D01*
X30958Y15934D02*
X30958Y14934D01*
X31458Y14934D01*
X31625Y15101D01*
X31625Y15767D01*
X31458Y15934D01*
X30958Y15934D01*
X31958Y14934D02*
X32291Y14934D01*
X32125Y14934D01*
X32125Y15934D01*
X31958Y15767D01*
X22838Y15452D02*
X22838Y16118D01*
X22672Y16285D01*
X22338Y16285D01*
X22172Y16118D01*
X22172Y15452D01*
X22338Y15285D01*
X22672Y15285D01*
X22505Y15618D02*
X22838Y15285D01*
X22672Y15285D02*
X22838Y15452D01*
X23838Y15285D02*
X23171Y15285D01*
X23838Y15951D01*
X23838Y16118D01*
X23671Y16285D01*
X23338Y16285D01*
X23171Y16118D01*
X20882Y10531D02*
X21049Y10698D01*
X21382Y10698D01*
X21548Y10531D01*
X21548Y10364D01*
X21382Y10198D01*
X21215Y10198D01*
X21382Y10198D01*
X21548Y10031D01*
X21548Y9865D01*
X21382Y9698D01*
X21049Y9698D01*
X20882Y9865D01*
X21882Y10698D02*
X21882Y10031D01*
X22215Y9698D01*
X22548Y10031D01*
X22548Y10698D01*
X22881Y10531D02*
X23048Y10698D01*
X23381Y10698D01*
X23548Y10531D01*
X23548Y10364D01*
X23381Y10198D01*
X23215Y10198D01*
X23381Y10198D01*
X23548Y10031D01*
X23548Y9865D01*
X23381Y9698D01*
X23048Y9698D01*
X22881Y9865D01*
X26091Y14977D02*
X26091Y15977D01*
X26591Y15977D01*
X26757Y15810D01*
X26757Y15477D01*
X26591Y15310D01*
X26091Y15310D01*
X26424Y15310D02*
X26757Y14977D01*
X27091Y15810D02*
X27257Y15977D01*
X27590Y15977D01*
X27757Y15810D01*
X27757Y15644D01*
X27590Y15477D01*
X27424Y15477D01*
X27590Y15477D01*
X27757Y15310D01*
X27757Y15144D01*
X27590Y14977D01*
X27257Y14977D01*
X27091Y15144D01*
X24996Y10725D02*
X24330Y10725D01*
X24330Y10225D01*
X24663Y10391D01*
X24830Y10391D01*
X24996Y10225D01*
X24996Y9892D01*
X24830Y9725D01*
X24497Y9725D01*
X24330Y9892D01*
X25330Y10725D02*
X25330Y10058D01*
X25663Y9725D01*
X25996Y10058D01*
X25996Y10725D01*
X17718Y52143D02*
X17051Y52143D01*
X17718Y52809D01*
X17718Y52976D01*
X17551Y53143D01*
X17218Y53143D01*
X17051Y52976D01*
X200Y10450D02*
X200Y9783D01*
X533Y9450D01*
X866Y9783D01*
X866Y10450D01*
X1200Y10450D02*
X1200Y9450D01*
X1700Y9450D01*
X1866Y9617D01*
X1866Y10283D01*
X1700Y10450D01*
X1200Y10450D01*
X2199Y10450D02*
X2199Y9450D01*
X2699Y9450D01*
X2866Y9617D01*
X2866Y10283D01*
X2699Y10450D01*
X2199Y10450D01*
X3199Y9284D02*
X3865Y9284D01*
X4865Y10450D02*
X4199Y10450D01*
X4199Y9950D01*
X4532Y10117D01*
X4699Y10117D01*
X4865Y9950D01*
X4865Y9617D01*
X4699Y9450D01*
X4365Y9450D01*
X4199Y9617D01*
X5198Y10450D02*
X5198Y9783D01*
X5532Y9450D01*
X5865Y9783D01*
X5865Y10450D01*
X17218Y49476D02*
X17551Y49476D01*
X17385Y49476D01*
X17385Y50476D01*
X17218Y50309D01*
D13*
X30122Y15443D02*
D03*
D14*
X28298Y15444D02*
D03*
D15*
X41400Y-164500D02*
X41400Y-159420D01*
X-22100Y-104175D02*
X-17020Y-104175D01*
X-22100Y-43850D02*
X-17020Y-43850D01*
X-22100Y16475D02*
X-17020Y16475D01*
X104900Y-164500D02*
X104900Y-159420D01*
X168400Y-164500D02*
X168400Y-159420D01*
X231900Y-164500D02*
X231900Y-159420D01*
X295400Y-164500D02*
X295400Y-159420D01*
X353820Y-104175D02*
X358900Y-104175D01*
X353820Y-43850D02*
X358900Y-43850D01*
X353820Y16475D02*
X358900Y16475D01*
X41400Y71720D02*
X41400Y76800D01*
X104900Y71720D02*
X104900Y76800D01*
X168400Y71720D02*
X168400Y76800D01*
X231900Y71720D02*
X231900Y76800D01*
X295400Y71720D02*
X295400Y76800D01*
D16*
X327582Y-161198D02*
X327497Y-161029D01*
X327243Y-160944D01*
X327074Y-160944D01*
X326820Y-161029D01*
X326650Y-161283D01*
X326566Y-161706D01*
X326566Y-162129D01*
X326650Y-162468D01*
X326820Y-162637D01*
X327074Y-162722D01*
X327158Y-162722D01*
X327412Y-162637D01*
X327582Y-162468D01*
X327666Y-162214D01*
X327666Y-162129D01*
X327582Y-161876D01*
X327412Y-161706D01*
X327158Y-161622D01*
X327074Y-161622D01*
X326820Y-161706D01*
X326650Y-161876D01*
X326566Y-162129D01*
X263955Y-160944D02*
X263108Y-160944D01*
X263023Y-161706D01*
X263108Y-161622D01*
X263362Y-161537D01*
X263616Y-161537D01*
X263870Y-161622D01*
X264039Y-161791D01*
X264124Y-162045D01*
X264124Y-162214D01*
X264039Y-162468D01*
X263870Y-162637D01*
X263616Y-162722D01*
X263362Y-162722D01*
X263108Y-162637D01*
X263023Y-162553D01*
X262939Y-162383D01*
X200311Y-160944D02*
X199464Y-162129D01*
X200734Y-162129D01*
X200311Y-160944D02*
X200311Y-162722D01*
X135964Y-160944D02*
X136896Y-160944D01*
X136388Y-161622D01*
X136642Y-161622D01*
X136811Y-161706D01*
X136896Y-161791D01*
X136980Y-162045D01*
X136980Y-162214D01*
X136896Y-162468D01*
X136726Y-162637D01*
X136472Y-162722D01*
X136218Y-162722D01*
X135964Y-162637D01*
X135880Y-162553D01*
X135795Y-162383D01*
X72650Y-161368D02*
X72650Y-161283D01*
X72735Y-161114D01*
X72820Y-161029D01*
X72989Y-160944D01*
X73328Y-160944D01*
X73497Y-161029D01*
X73582Y-161114D01*
X73666Y-161283D01*
X73666Y-161452D01*
X73582Y-161622D01*
X73412Y-161876D01*
X72566Y-162722D01*
X73751Y-162722D01*
X9176Y-161283D02*
X9345Y-161198D01*
X9599Y-160944D01*
X9599Y-162722D01*
X-20195Y-134732D02*
X-20195Y-136509D01*
X-20195Y-134732D02*
X-19602Y-134732D01*
X-19348Y-134816D01*
X-19179Y-134986D01*
X-19095Y-135155D01*
X-19010Y-135409D01*
X-19010Y-135832D01*
X-19095Y-136086D01*
X-19179Y-136255D01*
X-19348Y-136425D01*
X-19602Y-136509D01*
X-20195Y-136509D01*
X-18925Y-74957D02*
X-19010Y-74788D01*
X-19179Y-74618D01*
X-19348Y-74534D01*
X-19687Y-74534D01*
X-19856Y-74618D01*
X-20026Y-74788D01*
X-20110Y-74957D01*
X-20195Y-75211D01*
X-20195Y-75634D01*
X-20110Y-75888D01*
X-20026Y-76057D01*
X-19856Y-76227D01*
X-19687Y-76311D01*
X-19348Y-76311D01*
X-19179Y-76227D01*
X-19010Y-76057D01*
X-18925Y-75888D01*
X-20195Y-14209D02*
X-20195Y-15986D01*
X-20195Y-14209D02*
X-19433Y-14209D01*
X-19179Y-14293D01*
X-19095Y-14378D01*
X-19010Y-14547D01*
X-19010Y-14716D01*
X-19095Y-14886D01*
X-19179Y-14970D01*
X-19433Y-15055D01*
X-20195Y-15055D02*
X-19433Y-15055D01*
X-19179Y-15140D01*
X-19095Y-15224D01*
X-19010Y-15394D01*
X-19010Y-15648D01*
X-19095Y-15817D01*
X-19179Y-15902D01*
X-19433Y-15986D01*
X-20195Y-15986D01*
X355725Y-134732D02*
X355725Y-136509D01*
X355725Y-134732D02*
X356318Y-134732D01*
X356572Y-134816D01*
X356741Y-134986D01*
X356825Y-135155D01*
X356910Y-135409D01*
X356910Y-135832D01*
X356825Y-136086D01*
X356741Y-136255D01*
X356572Y-136425D01*
X356318Y-136509D01*
X355725Y-136509D01*
X356995Y-74957D02*
X356910Y-74788D01*
X356741Y-74618D01*
X356572Y-74534D01*
X356233Y-74534D01*
X356064Y-74618D01*
X355894Y-74788D01*
X355810Y-74957D01*
X355725Y-75211D01*
X355725Y-75634D01*
X355810Y-75888D01*
X355894Y-76057D01*
X356064Y-76227D01*
X356233Y-76311D01*
X356572Y-76311D01*
X356741Y-76227D01*
X356910Y-76057D01*
X356995Y-75888D01*
X355725Y-14209D02*
X355725Y-15986D01*
X355725Y-14209D02*
X356487Y-14209D01*
X356741Y-14293D01*
X356825Y-14378D01*
X356910Y-14547D01*
X356910Y-14716D01*
X356825Y-14886D01*
X356741Y-14970D01*
X356487Y-15055D01*
X355725Y-15055D02*
X356487Y-15055D01*
X356741Y-15140D01*
X356825Y-15224D01*
X356910Y-15394D01*
X356910Y-15648D01*
X356825Y-15817D01*
X356741Y-15902D01*
X356487Y-15986D01*
X355725Y-15986D01*
X357079Y44466D02*
X356402Y46243D01*
X355725Y44466D01*
X355979Y45058D02*
X356825Y45058D01*
X263955Y75276D02*
X263108Y75276D01*
X263023Y74514D01*
X263108Y74598D01*
X263362Y74683D01*
X263616Y74683D01*
X263870Y74598D01*
X264039Y74429D01*
X264124Y74175D01*
X264124Y74006D01*
X264039Y73752D01*
X263870Y73583D01*
X263616Y73498D01*
X263362Y73498D01*
X263108Y73583D01*
X263023Y73667D01*
X262939Y73837D01*
X200311Y75276D02*
X199464Y74091D01*
X200734Y74091D01*
X200311Y75276D02*
X200311Y73498D01*
X135964Y75276D02*
X136896Y75276D01*
X136388Y74598D01*
X136642Y74598D01*
X136811Y74514D01*
X136896Y74429D01*
X136980Y74175D01*
X136980Y74006D01*
X136896Y73752D01*
X136726Y73583D01*
X136472Y73498D01*
X136218Y73498D01*
X135964Y73583D01*
X135880Y73667D01*
X135795Y73837D01*
X72650Y74852D02*
X72650Y74937D01*
X72735Y75106D01*
X72820Y75191D01*
X72989Y75276D01*
X73328Y75276D01*
X73497Y75191D01*
X73582Y75106D01*
X73666Y74937D01*
X73666Y74768D01*
X73582Y74598D01*
X73412Y74344D01*
X72566Y73498D01*
X73751Y73498D01*
M02*
